<svg width="70" height="51" viewBox="0 0 70 51" fill="none" xmlns="http://www.w3.org/2000/svg">
<path d="M34.9978 38.07H14.3408V22.2075H7.45516V47.5875C7.45516 49.3423 8.99367 50.76 10.898 50.76H38.4406C40.3449 50.76 41.8834 49.3423 41.8834 47.5875V22.2075H34.9978V38.07ZM68.845 14.0978L59.6678 1.4078C59.0222 0.525445 57.9464 0 56.7952 0H13.2004C12.0492 0 10.9733 0.525445 10.3385 1.4078L1.16124 14.0978C-0.366514 16.2095 1.26883 19.035 4.02309 19.035H65.9832C68.7267 19.035 70.362 16.2095 68.845 14.0978ZM55.6547 49.1737C55.6547 50.0462 56.4294 50.76 57.3761 50.76H60.819C61.7657 50.76 62.5404 50.0462 62.5404 49.1737V22.2075H55.6547V49.1737Z" fill="white" fill-opacity="0.15"/>
</svg>
