<svg width="69" height="51" viewBox="0 0 69 51" fill="none" xmlns="http://www.w3.org/2000/svg">
<path d="M34.4228 38.07H13.7658V22.2075H6.88014V47.5875C6.88014 49.3423 8.41866 50.76 10.323 50.76H37.8656C39.7699 50.76 41.3084 49.3423 41.3084 47.5875V22.2075H34.4228V38.07ZM68.27 14.0978L59.0928 1.4078C58.4472 0.525445 57.3713 0 56.2201 0H12.6254C11.4742 0 10.3983 0.525445 9.76351 1.4078L0.586228 14.0978C-0.941526 16.2095 0.693816 19.035 3.44808 19.035H65.4082C68.1517 19.035 69.787 16.2095 68.27 14.0978ZM55.0797 49.1737C55.0797 50.0462 55.8543 50.76 56.8011 50.76H60.2439C61.1907 50.76 61.9654 50.0462 61.9654 49.1737V22.2075H55.0797V49.1737Z" fill="#B29564"/>
</svg>
