<svg width="56" height="51" viewBox="0 0 56 51" fill="none" xmlns="http://www.w3.org/2000/svg">
<g clip-path="url(#clip0_1785_14962)">
<path d="M55.7266 18.3014L50.1922 3.25181C49.4813 1.30866 47.4797 0 45.2156 0H29.75V19.035H55.8578C55.8141 18.7871 55.8141 18.5393 55.7266 18.3014ZM26.25 0H10.7844C8.52031 0 6.51875 1.30866 5.80781 3.25181L0.273438 18.3014C0.185937 18.5393 0.185937 18.7871 0.142187 19.035H26.25V0ZM0 22.2075V46.0012C0 48.6285 2.35156 50.76 5.25 50.76H50.75C53.6484 50.76 56 48.6285 56 46.0012V22.2075H0Z" fill="white" fill-opacity="0.15"/>
<path d="M18.2397 36.8033L23.0565 45L37.7604 25" stroke="white" stroke-width="5"/>
</g>
<defs>
<clipPath id="clip0_1785_14962">
<rect width="56" height="50.76" fill="white"/>
</clipPath>
</defs>
</svg>
