<svg width="42" height="41" viewBox="0 0 42 41" fill="none" xmlns="http://www.w3.org/2000/svg">
<rect x="0.5" y="0.5" width="41" height="40" rx="20" fill="#B29564"/>
<rect x="0.5" y="0.5" width="41" height="40" rx="20" stroke="#B29564"/>
<path d="M25.6833 15.0974L28.1889 17.9167C28.2944 18.0355 28.2944 18.2292 28.1889 18.348L22.1222 25.1744L19.5444 25.4963C19.2 25.54 18.9083 25.2119 18.9472 24.8243L19.2333 21.9237L25.3 15.0974C25.4056 14.9786 25.5778 14.9786 25.6833 15.0974ZM30.1833 14.3816L28.8278 12.8563C28.4056 12.3812 27.7194 12.3812 27.2944 12.8563L26.3111 13.9628C26.2056 14.0816 26.2056 14.2753 26.3111 14.3941L28.8167 17.2134C28.9222 17.3322 29.0944 17.3322 29.2 17.2134L30.1833 16.107C30.6056 15.6287 30.6056 14.8567 30.1833 14.3816ZM25.1667 23.3177V26.4996H16.2778V16.4977H22.6611C22.75 16.4977 22.8333 16.457 22.8972 16.3883L24.0083 15.138C24.2194 14.9005 24.0694 14.4973 23.7722 14.4973H15.8333C15.0972 14.4973 14.5 15.1693 14.5 15.9976V26.9997C14.5 27.828 15.0972 28.5 15.8333 28.5H25.6111C26.3472 28.5 26.9444 27.828 26.9444 26.9997V22.0675C26.9444 21.7331 26.5861 21.5674 26.375 21.8018L25.2639 23.0521C25.2028 23.124 25.1667 23.2177 25.1667 23.3177Z" fill="#003E52"/>
</svg>
