<svg width="42" height="41" viewBox="0 0 42 41" fill="none" xmlns="http://www.w3.org/2000/svg">
<rect x="0.5" y="0.5" width="41" height="40" rx="20" fill="#B29564"/>
<rect x="0.5" y="0.5" width="41" height="40" rx="20" stroke="#B29564"/>
<path d="M26.67 21.9162L27.9831 15.4162C28.0779 14.9469 27.7609 14.5 27.3331 14.5H16.4224L16.1678 13.0997C16.1044 12.7507 15.8314 12.5 15.5147 12.5H12.6667C12.2985 12.5 12 12.8358 12 13.25V13.75C12 14.1642 12.2985 14.5 12.6667 14.5H14.6079L16.5592 25.2323C16.0924 25.5344 15.7778 26.1007 15.7778 26.75C15.7778 27.7165 16.4742 28.5 17.3333 28.5C18.1924 28.5 18.8889 27.7165 18.8889 26.75C18.8889 26.2602 18.7098 25.8177 18.4216 25.5H24.2451C23.9569 25.8177 23.7778 26.2602 23.7778 26.75C23.7778 27.7165 24.4742 28.5 25.3333 28.5C26.1924 28.5 26.8889 27.7165 26.8889 26.75C26.8889 26.0571 26.5309 25.4584 26.0117 25.1748L26.1649 24.4162C26.2598 23.9469 25.9427 23.5 25.5149 23.5H18.0588L17.877 22.5H26.0199C26.3312 22.5 26.601 22.2577 26.67 21.9162Z" fill="#003E52"/>
</svg>
