<svg width="56" height="51" viewBox="0 0 56 51" fill="none" xmlns="http://www.w3.org/2000/svg">
<path d="M43.75 6.375H35C35 2.85879 31.8609 0 28 0C24.1391 0 21 2.85879 21 6.375H12.25C9.35156 6.375 7 8.5166 7 11.1562V46.2188C7 48.8584 9.35156 51 12.25 51H43.75C46.6484 51 49 48.8584 49 46.2188V11.1562C49 8.5166 46.6484 6.375 43.75 6.375ZM17.5 42.2344C16.0453 42.2344 14.875 41.1686 14.875 39.8438C14.875 38.5189 16.0453 37.4531 17.5 37.4531C18.9547 37.4531 20.125 38.5189 20.125 39.8438C20.125 41.1686 18.9547 42.2344 17.5 42.2344ZM17.5 32.6719C16.0453 32.6719 14.875 31.6061 14.875 30.2812C14.875 28.9564 16.0453 27.8906 17.5 27.8906C18.9547 27.8906 20.125 28.9564 20.125 30.2812C20.125 31.6061 18.9547 32.6719 17.5 32.6719ZM17.5 23.1094C16.0453 23.1094 14.875 22.0436 14.875 20.7188C14.875 19.3939 16.0453 18.3281 17.5 18.3281C18.9547 18.3281 20.125 19.3939 20.125 20.7188C20.125 22.0436 18.9547 23.1094 17.5 23.1094ZM28 3.98438C29.4547 3.98438 30.625 5.0502 30.625 6.375C30.625 7.6998 29.4547 8.76562 28 8.76562C26.5453 8.76562 25.375 7.6998 25.375 6.375C25.375 5.0502 26.5453 3.98438 28 3.98438ZM42 40.6406C42 41.0789 41.6063 41.4375 41.125 41.4375H25.375C24.8937 41.4375 24.5 41.0789 24.5 40.6406V39.0469C24.5 38.6086 24.8937 38.25 25.375 38.25H41.125C41.6063 38.25 42 38.6086 42 39.0469V40.6406ZM42 31.0781C42 31.5164 41.6063 31.875 41.125 31.875H25.375C24.8937 31.875 24.5 31.5164 24.5 31.0781V29.4844C24.5 29.0461 24.8937 28.6875 25.375 28.6875H41.125C41.6063 28.6875 42 29.0461 42 29.4844V31.0781ZM42 21.5156C42 21.9539 41.6063 22.3125 41.125 22.3125H25.375C24.8937 22.3125 24.5 21.9539 24.5 21.5156V19.9219C24.5 19.4836 24.8937 19.125 25.375 19.125H41.125C41.6063 19.125 42 19.4836 42 19.9219V21.5156Z" fill="white" fill-opacity="0.15"/>
<path d="M17 36.623L22.6753 44L40 26" stroke="white" stroke-width="5"/>
</svg>
