<svg width="19" height="22" viewBox="0 0 19 22" fill="none" xmlns="http://www.w3.org/2000/svg">
<path d="M1.625 19.5313C1.625 20.0534 1.83242 20.5542 2.20163 20.9234C2.57085 21.2926 3.0716 21.5 3.59375 21.5H15.4062C15.9284 21.5 16.4292 21.2926 16.7984 20.9234C17.1676 20.5542 17.375 20.0534 17.375 19.5313V5.75001H1.625V19.5313ZM12.7812 9.03126C12.7812 8.85721 12.8504 8.69029 12.9735 8.56722C13.0965 8.44415 13.2635 8.37501 13.4375 8.37501C13.6115 8.37501 13.7785 8.44415 13.9015 8.56722C14.0246 8.69029 14.0938 8.85721 14.0938 9.03126V18.2188C14.0938 18.3928 14.0246 18.5597 13.9015 18.6828C13.7785 18.8059 13.6115 18.875 13.4375 18.875C13.2635 18.875 13.0965 18.8059 12.9735 18.6828C12.8504 18.5597 12.7812 18.3928 12.7812 18.2188V9.03126ZM8.84375 9.03126C8.84375 8.85721 8.91289 8.69029 9.03596 8.56722C9.15903 8.44415 9.32595 8.37501 9.5 8.37501C9.67405 8.37501 9.84097 8.44415 9.96404 8.56722C10.0871 8.69029 10.1562 8.85721 10.1562 9.03126V18.2188C10.1562 18.3928 10.0871 18.5597 9.96404 18.6828C9.84097 18.8059 9.67405 18.875 9.5 18.875C9.32595 18.875 9.15903 18.8059 9.03596 18.6828C8.91289 18.5597 8.84375 18.3928 8.84375 18.2188V9.03126ZM4.90625 9.03126C4.90625 8.85721 4.97539 8.69029 5.09846 8.56722C5.22153 8.44415 5.38845 8.37501 5.5625 8.37501C5.73655 8.37501 5.90347 8.44415 6.02654 8.56722C6.14961 8.69029 6.21875 8.85721 6.21875 9.03126V18.2188C6.21875 18.3928 6.14961 18.5597 6.02654 18.6828C5.90347 18.8059 5.73655 18.875 5.5625 18.875C5.38845 18.875 5.22153 18.8059 5.09846 18.6828C4.97539 18.5597 4.90625 18.3928 4.90625 18.2188V9.03126ZM18.0312 1.81251H13.1094L12.7238 1.04552C12.6422 0.88154 12.5163 0.743608 12.3606 0.647236C12.2048 0.550864 12.0252 0.499876 11.842 0.500007H7.15391C6.97113 0.499305 6.79186 0.550103 6.63662 0.646582C6.48138 0.743061 6.35646 0.881319 6.27617 1.04552L5.89062 1.81251H0.96875C0.794702 1.81251 0.627782 1.88165 0.504711 2.00472C0.38164 2.12779 0.3125 2.29471 0.3125 2.46876L0.3125 3.78126C0.3125 3.95531 0.38164 4.12223 0.504711 4.2453C0.627782 4.36837 0.794702 4.43751 0.96875 4.43751H18.0312C18.2053 4.43751 18.3722 4.36837 18.4953 4.2453C18.6184 4.12223 18.6875 3.95531 18.6875 3.78126V2.46876C18.6875 2.29471 18.6184 2.12779 18.4953 2.00472C18.3722 1.88165 18.2053 1.81251 18.0312 1.81251Z" fill="#B29564"/>
</svg>
