<svg width="69" height="51" viewBox="0 0 69 51" fill="none" xmlns="http://www.w3.org/2000/svg">
<path d="M67.1287 34.8975H65.4075V24.1804C65.4075 22.9213 64.8588 21.7118 63.8906 20.8195L53.1436 10.9154C52.1754 10.0231 50.8629 9.5175 49.4967 9.5175H44.7525V4.75875C44.7525 2.13152 42.4396 0 39.5887 0H5.16375C2.31293 0 0 2.13152 0 4.75875V36.4837C0 39.111 2.31293 41.2425 5.16375 41.2425H6.885C6.885 46.497 11.5109 50.76 17.2125 50.76C22.9141 50.76 27.54 46.497 27.54 41.2425H41.31C41.31 46.497 45.9359 50.76 51.6375 50.76C57.3391 50.76 61.965 46.497 61.965 41.2425H67.1287C68.0754 41.2425 68.85 40.5287 68.85 39.6562V36.4837C68.85 35.6113 68.0754 34.8975 67.1287 34.8975ZM17.2125 46.0012C14.3617 46.0012 12.0487 43.8697 12.0487 41.2425C12.0487 38.6153 14.3617 36.4837 17.2125 36.4837C20.0633 36.4837 22.3762 38.6153 22.3762 41.2425C22.3762 43.8697 20.0633 46.0012 17.2125 46.0012ZM51.6375 46.0012C48.7867 46.0012 46.4737 43.8697 46.4737 41.2425C46.4737 38.6153 48.7867 36.4837 51.6375 36.4837C54.4883 36.4837 56.8012 38.6153 56.8012 41.2425C56.8012 43.8697 54.4883 46.0012 51.6375 46.0012ZM60.2437 25.38H44.7525V14.2762H49.4967L60.2437 24.1804V25.38Z" fill="#B29564"/>
</svg>
