<svg width="70" height="51" viewBox="0 0 70 51" fill="none" xmlns="http://www.w3.org/2000/svg">
<path d="M67.7038 34.8975H65.9825V24.1804C65.9825 22.9213 65.4339 21.7118 64.4657 20.8195L53.7186 10.9154C52.7504 10.0231 51.438 9.5175 50.0717 9.5175H45.3275V4.75875C45.3275 2.13152 43.0146 0 40.1638 0H5.73876C2.88794 0 0.575012 2.13152 0.575012 4.75875V36.4837C0.575012 39.111 2.88794 41.2425 5.73876 41.2425H7.46001C7.46001 46.497 12.0859 50.76 17.7875 50.76C23.4892 50.76 28.115 46.497 28.115 41.2425H41.885C41.885 46.497 46.5109 50.76 52.2125 50.76C57.9142 50.76 62.54 46.497 62.54 41.2425H67.7038C68.6504 41.2425 69.425 40.5287 69.425 39.6562V36.4837C69.425 35.6113 68.6504 34.8975 67.7038 34.8975ZM17.7875 46.0012C14.9367 46.0012 12.6238 43.8697 12.6238 41.2425C12.6238 38.6153 14.9367 36.4837 17.7875 36.4837C20.6383 36.4837 22.9513 38.6153 22.9513 41.2425C22.9513 43.8697 20.6383 46.0012 17.7875 46.0012ZM52.2125 46.0012C49.3617 46.0012 47.0488 43.8697 47.0488 41.2425C47.0488 38.6153 49.3617 36.4837 52.2125 36.4837C55.0633 36.4837 57.3763 38.6153 57.3763 41.2425C57.3763 43.8697 55.0633 46.0012 52.2125 46.0012ZM60.8188 25.38H45.3275V14.2762H50.0717L60.8188 24.1804V25.38Z" fill="white" fill-opacity="0.15"/>
</svg>
