<svg width="270" height="131" viewBox="0 0 270 131" fill="none" xmlns="http://www.w3.org/2000/svg">
<g clip-path="url(#clip0_1943_27890)">
<path d="M109.185 16.2068C106.592 17.8382 103.758 17.3106 100.808 17.1081C101.111 17.379 101.414 17.6499 101.683 17.8895C100.952 18.1291 100.259 17.8011 99.7524 17.0453C99.4675 16.6204 99.0627 16.1783 98.598 15.9615C97.0448 15.2371 95.4586 14.5697 93.8514 13.9594C91.8694 13.2093 89.8485 13.2407 87.8875 14.0393C87.3808 14.2446 86.883 14.6011 86.5412 15.0089C85.6836 16.0385 85.9775 17.1081 87.2548 17.9523C85.7286 18.072 84.6972 16.9968 85.081 15.6278C85.4468 14.3188 86.4453 13.5031 87.7256 13.0154C89.6446 12.2824 91.6266 12.2025 93.6325 12.6874C94.0853 12.7958 94.5291 12.927 94.9788 13.0496C95.8694 9.98364 98.526 9.05672 101.147 11.0646C102.628 12.1968 104.007 12.6446 105.881 12.4564C108.052 12.2368 109.98 13.2264 111.872 14.1106C112.757 14.5241 113.608 14.9947 114.478 15.4311C117.293 16.84 120.232 17.0881 123.281 16.2353C123.425 16.1954 123.569 16.1555 123.731 16.1897C121.995 17.3619 120.022 17.4075 118.001 17.2507C115.998 17.0938 114.187 16.4264 112.388 15.6107C110.679 14.835 108.892 14.1904 107.09 13.6314C106.295 13.3861 105.374 13.4917 104.475 13.5915C105.8 15.123 107.521 15.6393 109.524 15.5052C107.41 16.1783 105.599 15.4938 103.983 14.2845C103.371 13.8282 102.814 13.6856 102.25 14.0934C101.689 14.5013 101.258 15.0717 100.772 15.5708C101.291 15.8275 101.782 16.1783 102.337 16.3266C104.622 16.9483 106.901 16.82 109.179 16.204L109.185 16.2068ZM102.244 12.6246C101.177 12.0571 100.13 11.3555 98.9698 10.9391C98.3431 10.7138 97.4286 10.7965 96.8169 11.0731C96.3131 11.3013 95.9593 11.9886 95.7464 12.5419C95.6475 12.7958 95.9413 13.3662 96.2292 13.5401C97.1377 14.0877 98.1242 14.5327 99.0987 14.9776C99.2906 15.066 99.6714 15.0774 99.8003 14.9605C100.574 14.2731 101.303 13.5373 102.247 12.6218L102.244 12.6246Z" fill="#B29564"/>
<path d="M159.94 12.8471C161.457 12.7074 162.96 12.4792 164.465 12.4536C165.952 12.4279 167.391 12.8101 168.54 13.7541C169.061 14.1819 169.529 14.7466 169.805 15.3398C170.459 16.7516 169.427 18.0122 167.475 17.9409C168.654 17.5502 169.013 16.8628 168.879 15.9616C168.747 15.0603 168.159 14.4557 167.298 14.0992C165.412 13.3206 163.466 13.1894 161.523 13.8454C160.084 14.3302 158.672 14.8978 157.287 15.5052C156.39 15.8988 155.44 16.2126 155.02 17.2707C154.762 17.9181 153.982 18.0949 153.176 17.9523C153.545 17.6757 153.865 17.4332 154.186 17.1937C154.171 17.1052 154.153 17.0197 154.138 16.9313C151.281 17.2108 148.366 17.9067 145.758 16.1726C148.648 16.9541 151.482 17.0254 154.282 15.7306C153.943 14.5869 153.101 14.0878 152.069 13.871C151.79 13.814 151.383 14.0536 151.113 14.2503C149.748 15.24 148.252 15.8475 146.498 15.7819C146.276 15.7733 146.054 15.6992 145.824 15.5851C147.659 15.5024 149.314 15.0803 150.711 13.6115C149.164 13.2864 147.853 13.4803 146.597 13.9737C144.903 14.6411 143.227 15.3484 141.563 16.0785C138.987 17.2136 136.3 17.5958 133.509 17.1138C132.702 16.9741 131.941 16.6004 131.197 16.2154C133.338 16.7516 135.494 17.0225 137.623 16.4407C139.014 16.0585 140.324 15.4111 141.656 14.8493C143.143 14.2218 144.594 13.5088 146.099 12.9213C147.68 12.3052 149.344 12.3167 151.026 12.5306C151.428 12.5819 151.928 12.4079 152.285 12.1883C152.966 11.7719 153.536 11.1958 154.219 10.7823C156.801 9.22218 159.344 10.189 159.946 12.8471H159.94ZM152.855 12.7872C153.631 13.486 154.375 14.0421 154.96 14.7209C155.335 15.1516 155.586 15.1744 156.045 14.9291C156.84 14.5042 157.634 14.065 158.477 13.7341C159.418 13.3634 159.418 12.7245 159.158 12.0143C158.84 11.1416 158.054 10.8536 157.155 10.8022C155.305 10.6938 154.075 11.7405 152.855 12.7901V12.7872Z" fill="#B29564"/>
<path d="M139.935 13.8159C140.801 11.9849 139.797 10.6045 137.647 10.8298C136.81 10.9182 135.944 11.289 135.233 11.731C134.3 12.3072 133.485 13.0544 132.66 13.7703C129.494 16.531 125.449 16.5196 122.307 13.7474C121.464 13.0031 120.568 12.3072 119.662 11.6312C118.772 10.9667 117.734 10.6758 116.598 10.8184C114.88 11.0351 114.22 12.3528 115.11 13.7474C115.032 13.7902 114.951 13.8301 114.874 13.8729C114.649 13.4965 114.313 13.1457 114.22 12.7435C114.04 11.9735 114.289 11.269 115.02 10.8098C116.406 9.93995 117.908 9.75457 119.356 10.5531C120.343 11.095 121.194 11.8594 122.079 12.5581C122.547 12.9289 122.936 13.3824 123.386 13.7731C126.013 16.0633 129.062 16.0291 131.686 13.7303C132.903 12.6637 134.106 11.5628 135.455 10.6587C136.84 9.73175 138.798 9.92569 140.04 10.8669C141.137 11.6968 141.086 13.1228 139.935 13.8102V13.8159Z" fill="#B29564"/>
</g>
<path d="M102.141 93.75V98.7656C102.141 98.901 102.167 99 102.219 99.0625C102.281 99.1146 102.38 99.1406 102.516 99.1406H103.5L103.906 99L104.297 98.7812L104.625 98.5312L104.891 98.2344L105.109 97.9062L105.266 97.5312L105.375 97.0938L105.453 96.5781L105.469 96.125L105.453 95.7031L105.375 95.2344L105.25 94.8281L105.094 94.4844L104.859 94.1875L104.562 93.9219L104.188 93.6719L103.75 93.4844L103.375 93.3594L102.516 93.375C102.38 93.375 102.281 93.4062 102.219 93.4688C102.167 93.5208 102.141 93.6146 102.141 93.75ZM102.891 104.25C103.036 104.365 103.109 104.453 103.109 104.516C103.109 104.641 102.995 104.703 102.766 104.703H100.312C100.167 104.703 100.062 104.677 100 104.625C99.9688 104.583 99.9531 104.542 99.9531 104.5C99.9531 104.417 100.021 104.312 100.156 104.188H100.562C100.698 104.188 100.792 104.161 100.844 104.109C100.906 104.047 100.938 103.953 100.938 103.828V93.75C100.938 93.6146 100.906 93.5208 100.844 93.4688C100.792 93.4062 100.698 93.375 100.562 93.375H100.141C100.016 93.2396 99.9531 93.1302 99.9531 93.0469C99.9531 93.0052 99.974 92.9635 100.016 92.9219C100.068 92.8698 100.172 92.8438 100.328 92.8438H102.766L103.281 92.8125L103.906 92.8594L104.484 93L105 93.2188L105.469 93.5312L105.875 93.9375L106.203 94.4062L106.422 94.9375L106.578 95.5312L106.641 96.2031L106.578 96.7344L106.438 97.375L106.203 97.9375L105.922 98.4375L105.562 98.8594L105.125 99.1875L104.625 99.4531L104.078 99.5938L103.5 99.6719H102.516C102.38 99.6719 102.281 99.7031 102.219 99.7656C102.167 99.8177 102.141 99.9115 102.141 100.047V103.812C102.141 103.948 102.167 104.047 102.219 104.109C102.281 104.161 102.38 104.188 102.516 104.188H102.531L102.891 104.25ZM111.062 103.812C111.062 103.948 111.089 104.047 111.141 104.109C111.203 104.161 111.302 104.188 111.438 104.188H111.453L111.812 104.25C111.875 104.292 111.927 104.339 111.969 104.391C112.01 104.432 112.031 104.474 112.031 104.516C112.031 104.641 111.917 104.703 111.688 104.703L109.109 104.625C109.047 104.583 108.995 104.542 108.953 104.5C108.911 104.448 108.891 104.401 108.891 104.359C108.891 104.245 109.005 104.188 109.234 104.188H109.484C109.62 104.188 109.714 104.161 109.766 104.109C109.828 104.047 109.859 103.948 109.859 103.812V98.125C109.859 98.0104 109.839 97.9323 109.797 97.8906C109.755 97.849 109.708 97.8281 109.656 97.8281C109.656 97.8281 109.604 97.8333 109.5 97.8438H109.156C108.969 97.7604 108.875 97.6771 108.875 97.5938C108.875 97.5625 108.891 97.526 108.922 97.4844C108.964 97.4427 109.052 97.4115 109.188 97.3906C110.25 97.1823 110.797 97.0781 110.828 97.0781C110.87 97.0781 110.917 97.1042 110.969 97.1562C111.021 97.1979 111.052 97.3021 111.062 97.4688V98.4531C111.062 98.4844 111.062 98.5156 111.062 98.5469L111.266 98.2188L111.734 97.6562L112.219 97.2656L112.703 97L113.188 96.875L113.609 96.8594L114.016 96.9375L114.359 97.0781L114.641 97.375L114.688 97.8281L114.312 98.3125L113.891 98.4844L113.172 98.0781L113.016 98.0312L112.844 98.0469L112.594 98.125L112.25 98.3594L111.828 98.75L111.062 99.75V103.812ZM115.766 100.891L115.797 100.172L115.953 99.4688L116.203 98.8438L116.531 98.2969L116.938 97.8281L117.391 97.4531L117.906 97.1719L118.438 97L119 96.9219L119.297 96.9531L119.594 96.9219L120.156 97L120.703 97.1875L121.203 97.4531L121.672 97.8438L122.062 98.3125L122.406 98.8594L122.641 99.4844L122.781 100.188L122.828 100.938L122.781 101.656L122.641 102.359L122.391 102.984L122.062 103.531L121.656 104L121.188 104.375L120.688 104.656L120.141 104.828L119.594 104.906L119.297 104.875L119 104.906L118.422 104.828L117.891 104.641L117.375 104.375L116.922 103.984L116.531 103.516L116.188 102.969L115.953 102.344L115.797 101.641L115.766 100.891ZM119.234 97.4688L119.094 97.4219L118.656 97.5938L118.25 97.8281L117.906 98.0938L117.594 98.4375L117.344 98.8281L117.156 99.2656L117.016 99.7344L116.953 100.281V100.844L117.047 101.469L117.172 102.016L117.359 102.516L117.562 102.953L117.828 103.312L118.125 103.656L118.469 103.938L118.906 104.172L119.359 104.359L119.5 104.406L119.938 104.234L120.344 104L120.688 103.734L121 103.391L121.25 103L121.438 102.562L121.578 102.094L121.641 101.547V100.984L121.547 100.359L121.422 99.8125L121.234 99.3125L121.031 98.875L120.766 98.5156L120.469 98.1719L120.125 97.8906L119.688 97.6562L119.234 97.4688ZM127.891 96.75C127.891 96.8854 127.917 96.9844 127.969 97.0469C128.031 97.099 128.125 97.125 128.25 97.125L129.875 97.1406C130 97.2656 130.062 97.3698 130.062 97.4531C130.062 97.4948 130.047 97.5365 130.016 97.5781C129.953 97.6302 129.849 97.6562 129.703 97.6562H128.266C128.13 97.6562 128.031 97.6875 127.969 97.75C127.917 97.8021 127.891 97.8958 127.891 98.0312V103.812C127.891 103.948 127.917 104.047 127.969 104.109C128.031 104.161 128.13 104.188 128.266 104.188C128.266 104.188 128.562 104.208 129.156 104.25C129.219 104.292 129.271 104.339 129.312 104.391C129.354 104.432 129.375 104.474 129.375 104.516C129.375 104.641 129.26 104.703 129.031 104.703L125.438 104.625C125.375 104.583 125.323 104.542 125.281 104.5C125.24 104.448 125.219 104.401 125.219 104.359C125.219 104.245 125.333 104.188 125.562 104.188H126.328C126.464 104.188 126.557 104.161 126.609 104.109C126.672 104.047 126.703 103.948 126.703 103.812V98.0312C126.703 97.8958 126.672 97.8021 126.609 97.75C126.557 97.6875 126.464 97.6562 126.328 97.6562H125.141C125.016 97.5208 124.953 97.4115 124.953 97.3281C124.953 97.2865 124.974 97.2448 125.016 97.2031C125.068 97.151 125.172 97.125 125.328 97.125H126.328C126.464 97.125 126.557 97.099 126.609 97.0469C126.672 96.9844 126.703 96.8906 126.703 96.7656V95.5312L126.766 94.9531L126.875 94.4219L127.031 93.9531L127.219 93.5469L127.453 93.1875L127.734 92.9062L128.047 92.6875L128.281 92.5781L128.938 92.4219L129.406 92.375H129.734L130.062 92.4219L130.375 92.5312L130.656 92.6875L130.891 92.9062L131.078 93.1875L131.203 93.5312L131.094 93.9531L130.578 94.1875L130.141 94.1562L129.828 93.8125L129.781 93.4844L129.531 93.1719L129.375 93.0781L129.188 93L128.859 92.9531L128.641 93.0781L128.453 93.25L128.297 93.4219L128.172 93.6562L128.078 93.9375L127.984 94.25L127.891 95.0469V96.75ZM133.953 104.625C133.807 104.521 133.734 104.432 133.734 104.359C133.734 104.245 133.849 104.188 134.078 104.188H134.328C134.464 104.188 134.557 104.161 134.609 104.109C134.672 104.047 134.703 103.948 134.703 103.812V98.0469C134.703 97.9219 134.682 97.8385 134.641 97.7969C134.599 97.7552 134.552 97.7344 134.5 97.7344C134.479 97.7344 134.427 97.7396 134.344 97.75H133.984C133.797 97.6667 133.703 97.5833 133.703 97.5C133.703 97.4688 133.724 97.4323 133.766 97.3906C133.807 97.349 133.891 97.3177 134.016 97.2969L135.438 97.0156C135.479 97.0052 135.516 97 135.547 97C135.641 97 135.719 97.0312 135.781 97.0938C135.844 97.1562 135.88 97.2552 135.891 97.3906V103.812C135.891 103.948 135.917 104.047 135.969 104.109C136.031 104.161 136.13 104.188 136.266 104.188H136.281L136.656 104.25C136.719 104.292 136.771 104.339 136.812 104.391C136.854 104.432 136.875 104.474 136.875 104.516C136.875 104.641 136.76 104.703 136.531 104.703L133.953 104.625ZM134.672 95.5156L134.469 95.2656L134.344 95.0156L134.328 94.75L134.344 94.4531L134.469 94.2031L134.484 94.1875L134.672 93.9688L134.969 93.8125L135.297 93.7656L135.625 93.8125L135.922 93.9688L136.125 94.2031L136.234 94.4688L136.281 94.75L136.234 95.0156L136.125 95.2656L135.922 95.5156L135.625 95.6719L135.297 95.7188L134.969 95.6719L134.672 95.5156ZM141.953 104.625C141.807 104.521 141.734 104.432 141.734 104.359C141.734 104.245 141.849 104.188 142.078 104.188H142.328C142.464 104.188 142.557 104.161 142.609 104.109C142.672 104.047 142.703 103.948 142.703 103.812V93.5938C142.703 93.4688 142.682 93.3854 142.641 93.3438C142.599 93.3021 142.552 93.2812 142.5 93.2812C142.479 93.2812 142.427 93.2865 142.344 93.2969H141.984C141.797 93.2135 141.703 93.1302 141.703 93.0469C141.703 93.0156 141.724 92.9792 141.766 92.9375C141.807 92.8958 141.891 92.8646 142.016 92.8438L143.453 92.5625C143.484 92.5625 143.516 92.5625 143.547 92.5625C143.641 92.5625 143.719 92.5938 143.781 92.6562C143.844 92.7188 143.88 92.8125 143.891 92.9375V103.812C143.891 103.948 143.917 104.047 143.969 104.109C144.031 104.161 144.13 104.188 144.266 104.188H144.281L144.656 104.25C144.719 104.292 144.771 104.339 144.812 104.391C144.854 104.432 144.875 104.474 144.875 104.516C144.875 104.641 144.76 104.703 144.531 104.703L141.953 104.625ZM154.125 102.734C154.24 102.651 154.323 102.609 154.375 102.609C154.406 102.609 154.432 102.62 154.453 102.641C154.474 102.661 154.484 102.688 154.484 102.719C154.484 102.781 154.448 102.87 154.375 102.984L154.031 103.531L153.234 104.219L152.359 104.672L151.406 104.859L150.469 104.797L149.562 104.453L148.797 103.859L148.188 103L148.172 102.984L147.828 101.906L147.766 100.625L147.812 100.062L147.969 99.4219L148.234 98.8281L148.578 98.3125L148.969 97.8594L149.438 97.5156L149.938 97.25L150.516 97.0469L151.094 96.9375L151.672 96.9219L152.266 97L152.812 97.1875L153.297 97.4688L153.75 97.8594L154.094 98.3906L154.375 99L154.531 99.7031L154.578 100.25C154.578 100.385 154.542 100.49 154.469 100.562C154.396 100.635 154.292 100.672 154.156 100.672L149.328 100.75C149.203 100.75 149.115 100.776 149.062 100.828C149.021 100.87 149 100.943 149 101.047C149 101.068 149.016 101.245 149.047 101.578L149.297 102.328L149.703 102.938L150.203 103.375L150.797 103.672L151.453 103.812L152.172 103.766L152.906 103.531L153.656 103.078L154.125 102.734ZM149.016 99.8906C149.016 99.974 149.036 100.042 149.078 100.094C149.12 100.135 149.203 100.156 149.328 100.156H152.875C152.99 100.156 153.068 100.135 153.109 100.094C153.161 100.042 153.188 99.9635 153.188 99.8594C153.188 99.849 153.156 99.651 153.094 99.2656L152.969 98.8125L152.781 98.4375L152.562 98.1406L152.281 97.9062L151.953 97.6875L151.562 97.5625L151.094 97.5156L150.688 97.6719L150.281 97.9062L149.922 98.1875L149.625 98.5L149.359 98.8594L149.172 99.2656L149.016 99.7969C149.016 99.8281 149.016 99.8594 149.016 99.8906Z" fill="#B29564"/>
<path d="M145.815 113.81C148.409 112.163 151.243 112.695 154.193 112.9C153.89 112.626 153.587 112.353 153.318 112.111C154.049 111.869 154.742 112.2 155.249 112.963C155.533 113.392 155.938 113.838 156.403 114.057C157.956 114.789 159.542 115.462 161.149 116.079C163.131 116.836 165.152 116.804 167.113 115.998C167.62 115.791 168.118 115.431 168.46 115.019C169.317 113.98 169.023 112.9 167.746 112.047C169.272 111.926 170.304 113.012 169.92 114.394C169.554 115.716 168.556 116.539 167.275 117.032C165.356 117.772 163.374 117.852 161.368 117.363C160.916 117.254 160.472 117.121 160.022 116.997C159.132 120.093 156.475 121.029 153.854 119.001C152.373 117.858 150.994 117.406 149.12 117.596C146.949 117.818 145.021 116.819 143.129 115.926C142.244 115.509 141.393 115.033 140.523 114.593C137.708 113.17 134.769 112.92 131.72 113.781C131.576 113.821 131.432 113.861 131.27 113.827C133.006 112.643 134.979 112.597 137 112.756C139.003 112.914 140.814 113.588 142.613 114.411C144.322 115.195 146.109 115.845 147.911 116.41C148.706 116.657 149.626 116.551 150.526 116.45C149.201 114.904 147.48 114.383 145.477 114.518C147.59 113.838 149.402 114.53 151.018 115.75C151.629 116.211 152.187 116.355 152.751 115.943C153.312 115.532 153.743 114.956 154.229 114.452C153.71 114.193 153.219 113.838 152.664 113.689C150.379 113.061 148.1 113.191 145.821 113.813L145.815 113.81ZM152.757 117.426C153.824 117.999 154.871 118.708 156.031 119.128C156.658 119.356 157.572 119.272 158.184 118.993C158.688 118.762 159.042 118.068 159.254 117.51C159.353 117.254 159.06 116.678 158.772 116.502C157.863 115.949 156.877 115.5 155.902 115.051C155.71 114.961 155.329 114.95 155.201 115.068C154.427 115.762 153.698 116.505 152.754 117.429L152.757 117.426Z" fill="#B29564"/>
<path d="M95.061 117.202C93.5438 117.343 92.0416 117.573 90.5364 117.599C89.0491 117.625 87.6099 117.239 86.4615 116.286C85.9398 115.854 85.472 115.284 85.1961 114.685C84.5425 113.26 85.5739 111.987 87.5259 112.059C86.3475 112.454 85.9877 113.148 86.1227 114.058C86.2546 114.967 86.8423 115.578 87.7028 115.938C89.5889 116.724 91.5348 116.856 93.4778 116.194C94.9171 115.705 96.3294 115.132 97.7146 114.518C98.6112 114.121 99.5617 113.804 99.9815 112.736C100.239 112.082 101.019 111.904 101.826 112.048C101.457 112.327 101.136 112.572 100.815 112.814C100.83 112.903 100.848 112.989 100.863 113.079C103.721 112.796 106.635 112.094 109.244 113.844C106.353 113.055 103.52 112.983 100.719 114.291C101.058 115.445 101.9 115.949 102.932 116.168C103.211 116.226 103.619 115.984 103.888 115.785C105.253 114.786 106.749 114.173 108.503 114.239C108.725 114.248 108.947 114.322 109.178 114.438C107.343 114.521 105.688 114.947 104.29 116.43C105.837 116.759 107.148 116.563 108.404 116.065C110.098 115.391 111.774 114.677 113.438 113.939C116.014 112.793 118.701 112.408 121.492 112.894C122.299 113.035 123.06 113.413 123.804 113.801C121.663 113.26 119.507 112.986 117.378 113.574C115.987 113.96 114.677 114.613 113.346 115.181C111.858 115.814 110.407 116.534 108.902 117.127C107.322 117.749 105.658 117.738 103.975 117.522C103.574 117.47 103.073 117.645 102.716 117.867C102.035 118.288 101.466 118.869 100.782 119.287C98.2004 120.862 95.6577 119.886 95.055 117.202L95.061 117.202ZM102.146 117.262C101.37 116.557 100.626 115.995 100.041 115.31C99.6666 114.875 99.4148 114.852 98.956 115.1C98.1614 115.529 97.3668 115.972 96.5243 116.306C95.5827 116.681 95.5827 117.326 95.8436 118.043C96.1614 118.924 96.947 119.215 97.8466 119.267C99.6966 119.376 100.926 118.319 102.146 117.26L102.146 117.262Z" fill="#B29564"/>
<path d="M115.066 116.222C114.2 118.071 115.204 119.464 117.354 119.237C118.191 119.148 119.057 118.773 119.768 118.327C120.7 117.745 121.516 116.991 122.341 116.268C125.507 113.481 129.552 113.492 132.694 116.291C133.537 117.043 134.433 117.745 135.339 118.428C136.229 119.099 137.267 119.392 138.403 119.248C140.121 119.03 140.781 117.699 139.89 116.291C139.968 116.248 140.049 116.208 140.127 116.164C140.352 116.545 140.688 116.899 140.781 117.305C140.961 118.082 140.712 118.793 139.98 119.257C138.595 120.135 137.093 120.322 135.645 119.516C134.658 118.969 133.807 118.197 132.922 117.492C132.454 117.118 132.064 116.66 131.615 116.265C128.988 113.953 125.939 113.988 123.315 116.308C122.098 117.385 120.895 118.497 119.546 119.41C118.161 120.345 116.203 120.15 114.961 119.199C113.864 118.362 113.915 116.922 115.066 116.228L115.066 116.222Z" fill="#B29564"/>
<path d="M0 55.5H30" stroke="#B29564" stroke-width="2"/>
<path d="M86.2109 61.7812C86.5495 62.0677 86.7188 62.3802 86.7188 62.7188C86.7188 63.0312 86.5234 63.3568 86.1328 63.6953V71.3125C86.1328 72.1979 85.7422 72.8229 84.9609 73.1875L84.5703 73.4219C84.3099 73.5521 84.0885 73.6172 83.9062 73.6172C83.724 73.6172 83.5547 73.5391 83.3984 73.3828C83.2422 73.2266 83.1641 72.9531 83.1641 72.5625C83.1641 72.4583 83.138 72.3802 83.0859 72.3281C83.0599 72.3021 82.9948 72.2891 82.8906 72.2891L67.3438 72.4453C66.901 72.7578 66.4583 73.0182 66.0156 73.2266L65.2734 73.6172C65.013 73.7474 64.7917 73.8125 64.6094 73.8125C64.4271 73.8125 64.2578 73.7344 64.1016 73.5781C63.9453 73.4219 63.8672 73.1484 63.8672 72.7578V61.7422C63.8672 61.3516 63.9323 61.0911 64.0625 60.9609C64.2188 60.8047 64.388 60.7266 64.5703 60.7266C64.7786 60.7266 65 60.7917 65.2344 60.9219L66.6406 61.6641H83.3203L83.5938 61.3906C83.9583 61.1042 84.3099 60.9609 84.6484 60.9609C85.013 60.9609 85.3646 61.0911 85.7031 61.3516L86.2109 61.7812ZM67.7734 67.4844C67.4349 67.4844 67.1875 67.5625 67.0312 67.7188C66.901 67.849 66.8359 68.0833 66.8359 68.4219V70.0234C66.8359 70.362 66.901 70.6094 67.0312 70.7656C67.1875 70.8958 67.4349 70.9609 67.7734 70.9609H82.2266C82.5651 70.9609 82.7995 70.8958 82.9297 70.7656C83.0859 70.6094 83.1641 70.362 83.1641 70.0234V68.4219C83.1641 68.0833 83.0859 67.849 82.9297 67.7188C82.7995 67.5625 82.5651 67.4844 82.2266 67.4844H67.7734ZM67.7734 62.9531C67.4349 62.9531 67.1875 63.0312 67.0312 63.1875C66.901 63.3177 66.8359 63.5521 66.8359 63.8906V65.2188C66.8359 65.5573 66.901 65.8047 67.0312 65.9609C67.1875 66.0911 67.4349 66.1562 67.7734 66.1562H82.2266C82.5651 66.1562 82.7995 66.0911 82.9297 65.9609C83.0859 65.8047 83.1641 65.5573 83.1641 65.2188V63.8906C83.1641 63.5521 83.0859 63.3177 82.9297 63.1875C82.7995 63.0312 82.5651 62.9531 82.2266 62.9531H67.7734ZM63.9844 60.2578C63.9844 61.1432 63.5938 61.7682 62.8125 62.1328L62.4219 62.3672C62.1615 62.4974 61.9401 62.5625 61.7578 62.5625C61.5755 62.5625 61.4062 62.4844 61.25 62.3281C61.0938 62.1719 61.0156 61.8984 61.0156 61.5078V50.0625C61.0156 49.6719 61.0807 49.4115 61.2109 49.2812C61.3672 49.125 61.5365 49.0469 61.7188 49.0469C61.9271 49.0469 62.1615 49.112 62.4219 49.2422L63.7891 49.9453H86.1719L86.4453 49.6719C86.8099 49.3854 87.1615 49.2422 87.5 49.2422C87.8385 49.2422 88.1901 49.3854 88.5547 49.6719L89.1016 50.1797L89.2578 50.7266C89.0755 51.5078 88.9844 52.276 88.9844 53.0312V59.0469C88.9844 59.9062 88.5938 60.5182 87.8125 60.8828L87.4219 61.1172C87.1875 61.2474 86.9792 61.3125 86.7969 61.3125C86.6146 61.3125 86.4583 61.2344 86.3281 61.0781C86.1198 60.8958 86.0156 60.5573 86.0156 60.0625C86.0156 59.724 85.9375 59.4896 85.7812 59.3594C85.651 59.2031 85.4167 59.125 85.0781 59.125H64.9219C64.6354 59.125 64.401 59.2161 64.2188 59.3984C64.0625 59.5547 63.9844 59.8411 63.9844 60.2578ZM64.9219 51.2734C64.5833 51.2734 64.3359 51.3516 64.1797 51.5078C64.0495 51.638 63.9844 51.8724 63.9844 52.2109V56.8984C63.9844 57.237 64.0495 57.4844 64.1797 57.6406C64.3359 57.7708 64.5833 57.8359 64.9219 57.8359H72.5781C72.9167 57.8359 73.151 57.7708 73.2812 57.6406C73.4375 57.4844 73.5156 57.237 73.5156 56.8984V52.2109C73.5156 51.8724 73.4375 51.638 73.2812 51.5078C73.151 51.3516 72.9167 51.2734 72.5781 51.2734H64.9219ZM77.4219 51.2734C77.0833 51.2734 76.8359 51.3516 76.6797 51.5078C76.5495 51.638 76.4844 51.8724 76.4844 52.2109V56.8984C76.4844 57.237 76.5495 57.4844 76.6797 57.6406C76.8359 57.7708 77.0833 57.8359 77.4219 57.8359H85.0781C85.4167 57.8359 85.651 57.7708 85.7812 57.6406C85.9375 57.4844 86.0156 57.237 86.0156 56.8984V52.2109C86.0156 51.8724 85.9375 51.638 85.7812 51.5078C85.651 51.3516 85.4167 51.2734 85.0781 51.2734H77.4219ZM83.1641 52.3672L84.1797 53.3828C84.2318 53.513 84.2578 53.6432 84.2578 53.7734C84.2578 53.9036 84.1927 54.0339 84.0625 54.1641C83.9583 54.2682 83.8021 54.3203 83.5938 54.3203C83.5156 54.3203 83.4505 54.3073 83.3984 54.2812L81.4844 55.6875L80.2734 56.5078L78.75 57.4062C78.6198 57.4062 78.4896 57.4062 78.3594 57.4062C78.2552 57.4062 78.1641 57.3802 78.0859 57.3281C78.0078 57.25 77.9688 57.1849 77.9688 57.1328C77.9688 56.9505 78.0599 56.7552 78.2422 56.5469L81.2891 52.4844C81.6016 52.0938 81.9141 51.8984 82.2266 51.8984C82.5651 51.8984 82.8776 52.0547 83.1641 52.3672ZM65.8984 52.6406C65.8203 52.4844 65.7812 52.3542 65.7812 52.25C65.7812 52.1458 65.8073 52.0677 65.8594 52.0156C65.9375 51.9375 66.0286 51.8984 66.1328 51.8984C66.237 51.8984 66.3672 51.9245 66.5234 51.9766L67.1484 52.25L68.3984 52.7969L69.5312 53.5L70.4688 54.3594L70.9375 54.8281L71.3672 55.375L71.4844 56.5078L70.7812 57.4062L69.6484 57.4844L68.75 56.8594L68.5547 56.3516L68.3984 55.9219L68.1641 55.4922L67.8906 55.0625L67.2266 54.2031L65.8984 52.6406ZM75.9375 39.9062C75.7292 39.6979 75.4948 39.724 75.2344 39.9844L73.5938 41.5469L71.8359 42.9531L69.9219 44.3203L67.9688 45.6094L65.8594 46.7812L63.6719 47.9141L61.3672 48.9688L58.9062 49.8672L56.2891 49.7891L58.4375 48.7344L62.8125 46.3125L64.8047 45.0234L66.6797 43.6953L68.5156 42.3672L70.1953 41L71.7578 39.5156L73.2422 37.9922C73.7109 37.4453 73.9583 37.1458 73.9844 37.0938C74.2708 36.8073 74.5573 36.6641 74.8438 36.6641C75.1562 36.6641 75.4818 36.8203 75.8203 37.1328C75.8464 37.1328 76.0026 37.3281 76.2891 37.7188C76.6016 38.0833 76.8229 38.526 76.9531 39.0469L78.5547 40.2188L80.1562 41.3125L81.7969 42.2891L83.4766 43.2656L85.1953 44.125L86.9141 44.8672L88.7109 45.6094L90.5859 46.2734L93.0078 47.0547C93.2682 47.1328 93.4635 47.237 93.5938 47.3672C93.724 47.4974 93.7891 47.6406 93.7891 47.7969C93.7891 48.0052 93.6198 48.2526 93.2812 48.5391L92.5781 49.1641C92.1615 49.5026 91.7057 49.6719 91.2109 49.6719C90.9245 49.6719 90.651 49.6328 90.3906 49.5547L89.5312 49.2031L87.5781 48.3438L85.7031 47.4062L83.9453 46.3906L82.2266 45.3359L80.5469 44.1641L78.9844 42.875L77.5 41.5078L76.0156 40.0234C75.9896 39.9714 75.9635 39.9323 75.9375 39.9062ZM83.2031 46.7422C83.2031 47.0807 83.112 47.3411 82.9297 47.5234C82.7474 47.7057 82.487 47.7969 82.1484 47.7969L67.8516 47.6016C67.6953 47.4974 67.5651 47.3932 67.4609 47.2891C67.3568 47.1589 67.3047 47.0417 67.3047 46.9375C67.3047 46.651 67.5911 46.5078 68.1641 46.5078H78.2812L79.4922 45.2969C79.8307 44.9583 80.1693 44.7891 80.5078 44.7891C80.8464 44.7891 81.1849 44.9193 81.5234 45.1797L83.2031 46.625V46.7422ZM127.812 73.2266L127.07 72.6797L125.352 71.4688L124.336 70.8828L122.07 69.7109L118.32 67.0938L121.289 67.6406L122.734 67.9922L124.062 68.3828L125.312 68.8906L127.578 69.8672L128.594 70.4141L129.57 71L130.469 71.6641L130.898 72.6797L130.586 73.7734L129.492 74.2422L128.477 73.8906L127.812 73.2266ZM110.625 66.9766C110.833 66.8464 111.042 66.7812 111.25 66.7812C111.562 66.7812 111.836 66.9635 112.07 67.3281L113.32 68.5781C113.32 68.6823 113.32 68.7474 113.32 68.7734C113.32 68.9818 113.268 69.138 113.164 69.2422C113.06 69.3464 112.93 69.3984 112.773 69.3984C112.643 69.3984 112.5 69.3854 112.344 69.3594L110.234 70.3359L107.578 71.5469L104.805 72.6016L101.797 73.5391L100.234 73.8906L99.7266 73.8516C99.3099 73.8516 99.0625 73.7995 98.9844 73.6953C98.9062 73.6172 98.8672 73.5391 98.8672 73.4609C98.8672 73.2786 99.0625 73.0964 99.4531 72.9141L105.273 70.0234L107.812 68.6953L110.625 66.9766ZM103.789 67.9922C103.555 68.1224 103.333 68.1875 103.125 68.1875C102.943 68.1875 102.773 68.1094 102.617 67.9531C102.461 67.7969 102.383 67.5234 102.383 67.1328V49.1641C102.383 48.7734 102.461 48.5 102.617 48.3438C102.773 48.1875 102.943 48.1094 103.125 48.1094C103.307 48.1094 103.529 48.1745 103.789 48.3047L105.156 49.0078H124.766L125.039 48.7344C125.404 48.4479 125.755 48.3047 126.094 48.3047C126.432 48.3047 126.784 48.4479 127.148 48.7344L127.734 49.2422L127.891 49.7891C127.708 50.5703 127.617 51.3385 127.617 52.0938V64.3984C127.617 65.2839 127.214 65.9089 126.406 66.2734L125.742 66.5859L125.625 66.5078C125.052 66.0391 124.401 65.8047 123.672 65.8047H106.367L105.781 66.1562C105.443 66.8854 104.909 67.4193 104.18 67.7578L103.789 67.9922ZM106.289 60.4531C105.951 60.4531 105.703 60.5312 105.547 60.6875C105.417 60.8177 105.352 61.0521 105.352 61.3906V63.5781C105.352 63.9167 105.417 64.1641 105.547 64.3203C105.703 64.4505 105.951 64.5156 106.289 64.5156H123.672C124.01 64.5156 124.245 64.4505 124.375 64.3203C124.531 64.1641 124.609 63.9167 124.609 63.5781V61.3906C124.609 61.0521 124.531 60.8177 124.375 60.6875C124.245 60.5312 124.01 60.4531 123.672 60.4531H106.289ZM106.289 55.375C105.951 55.375 105.703 55.4531 105.547 55.6094C105.417 55.7396 105.352 55.974 105.352 56.3125V58.1875C105.352 58.526 105.417 58.7734 105.547 58.9297C105.703 59.0599 105.951 59.125 106.289 59.125H123.672C124.01 59.125 124.245 59.0599 124.375 58.9297C124.531 58.7734 124.609 58.526 124.609 58.1875V56.3125C124.609 55.974 124.531 55.7396 124.375 55.6094C124.245 55.4531 124.01 55.375 123.672 55.375H106.289ZM106.289 50.3359C105.951 50.3359 105.703 50.4141 105.547 50.5703C105.417 50.7005 105.352 50.9349 105.352 51.2734V53.1484C105.352 53.487 105.417 53.7344 105.547 53.8906C105.703 54.0208 105.951 54.0859 106.289 54.0859H123.672C124.01 54.0859 124.245 54.0208 124.375 53.8906C124.531 53.7344 124.609 53.487 124.609 53.1484V51.2734C124.609 50.9349 124.531 50.7005 124.375 50.5703C124.245 50.4141 124.01 50.3359 123.672 50.3359H106.289ZM125.938 38.6172C126.276 38.9036 126.445 39.2161 126.445 39.5547C126.445 39.8672 126.25 40.1927 125.859 40.5312V44.7109C125.859 45.5964 125.469 46.2214 124.688 46.5859L124.297 46.8203C124.036 46.9505 123.815 47.0156 123.633 47.0156C123.451 47.0156 123.281 46.9375 123.125 46.7812C122.969 46.625 122.891 46.3516 122.891 45.9609C122.891 45.8568 122.865 45.7917 122.812 45.7656C122.786 45.7135 122.721 45.6875 122.617 45.6875L107.656 45.8438C107.188 46.1562 106.719 46.4297 106.25 46.6641L105.508 47.0547C105.247 47.1849 105.026 47.25 104.844 47.25C104.661 47.25 104.492 47.1719 104.336 47.0156C104.18 46.8594 104.102 46.5859 104.102 46.1953V38.6172C104.102 38.2266 104.18 37.9531 104.336 37.7969C104.492 37.6406 104.661 37.5625 104.844 37.5625C105.052 37.5625 105.273 37.6276 105.508 37.7578L106.914 38.5H123.047L123.32 38.2266C123.685 37.9401 124.036 37.7969 124.375 37.7969C124.74 37.7969 125.091 37.9271 125.43 38.1875L125.938 38.6172ZM108.047 39.7891C107.708 39.7891 107.461 39.8672 107.305 40.0234C107.174 40.1536 107.109 40.388 107.109 40.7266V43.4609C107.109 43.7995 107.174 44.0469 107.305 44.2031C107.461 44.3333 107.708 44.3984 108.047 44.3984H121.992C122.305 44.3984 122.526 44.3333 122.656 44.2031C122.812 44.0469 122.891 43.7995 122.891 43.4609V40.7266C122.891 40.388 122.812 40.1536 122.656 40.0234C122.526 39.8672 122.305 39.7891 121.992 39.7891H108.047ZM156.836 38.3828C156.836 38.5651 156.758 38.7474 156.602 38.9297L156.484 39.4375V44.9062C156.484 45.2448 156.549 45.4922 156.68 45.6484C156.836 45.7786 157.083 45.8438 157.422 45.8438H167.305L167.578 45.6094C167.943 45.3229 168.294 45.1797 168.633 45.1797C168.997 45.1797 169.349 45.3099 169.688 45.5703L170.273 46.0781L170.43 46.625C170.247 47.4062 170.156 48.1745 170.156 48.9297V60.2578C170.156 61.1432 169.766 61.7682 168.984 62.1328L168.555 62.3672C168.32 62.4974 168.112 62.5625 167.93 62.5625C167.747 62.5625 167.578 62.4974 167.422 62.3672C167.24 62.1589 167.148 61.8594 167.148 61.4688C167.148 61.0521 167.07 60.7786 166.914 60.6484C166.784 60.4922 166.549 60.4141 166.211 60.4141H157.422C157.083 60.4141 156.836 60.4922 156.68 60.6484C156.549 60.7786 156.484 61 156.484 61.3125V71.1562C156.484 72.0417 156.107 72.6667 155.352 73.0312L154.922 73.2656C154.661 73.3958 154.427 73.4609 154.219 73.4609C154.036 73.4609 153.867 73.3828 153.711 73.2266C153.581 73.0964 153.516 72.8359 153.516 72.4453V61.3516C153.516 61.013 153.438 60.7786 153.281 60.6484C153.151 60.4922 152.917 60.4141 152.578 60.4141H143.789C143.477 60.4141 143.242 60.4922 143.086 60.6484C142.93 60.8047 142.852 61.0911 142.852 61.5078C142.852 62.3932 142.461 63.0182 141.68 63.3828L141.25 63.6172C140.99 63.7474 140.768 63.8125 140.586 63.8125C140.404 63.8125 140.234 63.7344 140.078 63.5781C139.922 63.4219 139.844 63.1484 139.844 62.7578V46C139.844 45.6094 139.922 45.3359 140.078 45.1797C140.234 45.0234 140.404 44.9453 140.586 44.9453C140.768 44.9453 140.99 45.0104 141.25 45.1406L142.656 45.8438H152.578C152.917 45.8438 153.151 45.7786 153.281 45.6484C153.438 45.4922 153.516 45.2578 153.516 44.9453V38.6562C153.516 38.2396 153.607 37.9271 153.789 37.7188C153.997 37.5104 154.271 37.4062 154.609 37.4062C154.714 37.4062 154.831 37.4193 154.961 37.4453L156.328 37.6797C156.667 37.9141 156.836 38.1484 156.836 38.3828ZM143.789 47.1719C143.451 47.1719 143.203 47.25 143.047 47.4062C142.917 47.5365 142.852 47.7708 142.852 48.1094V58.1484C142.852 58.487 142.917 58.7344 143.047 58.8906C143.203 59.0208 143.451 59.0859 143.789 59.0859H152.578C152.917 59.0859 153.151 59.0208 153.281 58.8906C153.438 58.7344 153.516 58.487 153.516 58.1484V48.1094C153.516 47.7708 153.438 47.5365 153.281 47.4062C153.151 47.25 152.917 47.1719 152.578 47.1719H143.789ZM157.422 47.1719C157.083 47.1719 156.836 47.25 156.68 47.4062C156.549 47.5365 156.484 47.7708 156.484 48.1094V58.1484C156.484 58.487 156.549 58.7344 156.68 58.8906C156.836 59.0208 157.083 59.0859 157.422 59.0859H166.211C166.549 59.0859 166.784 59.0208 166.914 58.8906C167.07 58.7344 167.148 58.487 167.148 58.1484V48.1094C167.148 47.7708 167.07 47.5365 166.914 47.4062C166.784 47.25 166.549 47.1719 166.211 47.1719H157.422ZM186.797 69.0859V48.5391C186.797 48.0964 186.901 47.7839 187.109 47.6016C187.318 47.3932 187.591 47.2891 187.93 47.2891C188.398 47.2891 188.802 47.4583 189.141 47.7969C189.479 48.1354 189.688 48.6432 189.766 49.3203L190.586 68.2266C190.586 68.5391 190.664 68.7734 190.82 68.9297C190.977 69.0859 191.224 69.1641 191.562 69.1641H202.656C203.047 69.1641 203.333 69.0729 203.516 68.8906C203.698 68.7083 203.815 68.487 203.867 68.2266L204.883 64.4766C205.065 64.2682 205.208 64.1641 205.312 64.1641C205.417 64.1641 205.508 64.2031 205.586 64.2812C205.664 64.3594 205.703 64.5026 205.703 64.7109C205.703 64.737 205.638 65.388 205.508 66.6641C205.404 67.9141 205.352 68.5521 205.352 68.5781C205.352 69.0469 205.56 69.4375 205.977 69.75C206.211 70.0625 206.328 70.375 206.328 70.6875C206.328 70.974 206.211 71.2734 205.977 71.5859L205.156 72.1719H190.391L189.805 72.1328L189.219 72.0156L188.672 71.8203L188.164 71.5469L187.734 71.1953L187.383 70.7266L187.07 70.1797L186.875 69.6719L186.797 69.0859ZM176.445 65.4922L176.211 64.3594L176.797 63.4219L177.461 62.9141L178.086 62.3672L178.672 61.625L179.219 60.6484L179.727 59.5547L180.156 58.2266L180.586 56.7812L180.938 55.1406L181.25 53.2266L182.383 51.8984L182.5 53.3828L182.539 55.2969L182.422 57.0938L182.188 58.7344L181.875 60.2578L181.406 61.625L180.859 62.9141L180.234 64.0469L179.414 64.9844L178.477 65.8828L177.383 66.0781L176.445 65.4922ZM205.898 52.0547C205.768 51.8464 205.703 51.638 205.703 51.4297C205.703 51.3516 205.729 51.2865 205.781 51.2344C205.859 51.1562 205.938 51.1172 206.016 51.1172C206.094 51.1172 206.185 51.1302 206.289 51.1562C206.471 51.2083 206.68 51.3125 206.914 51.4688L208.047 52.3672L209.023 53.3047L210 54.2812L210.82 55.4141L211.523 56.5078L212.188 57.7188L212.773 58.9688L213.203 60.2188L213.555 61.625L213.32 62.7188L212.383 63.3047L211.211 63.0703L210.625 62.1719L210.43 60.9219L210.156 59.8281L209.805 58.6953L209.375 57.6016L208.906 56.5469L208.32 55.5312L207.617 54.4766L205.898 52.0547ZM190.508 39.1641C190.221 38.9297 190.078 38.7214 190.078 38.5391C190.078 38.4609 190.117 38.3958 190.195 38.3438C190.273 38.2656 190.378 38.2266 190.508 38.2266C190.742 38.2266 190.977 38.2656 191.211 38.3438L192.5 38.8906L193.672 39.4375L194.766 40.1406L195.82 40.8438L196.758 41.7031L197.695 42.6016L198.477 43.5391L199.219 44.5938L199.883 45.7266L199.922 46.8594L199.141 47.7188L197.969 47.7578L197.148 47.0547L196.719 46.0391L196.25 45.0625L195.664 44.1641L195 43.3438L193.516 41.7031L191.641 40.2188L190.508 39.1641Z" fill="#B29564"/>
<path d="M240 55.5H270" stroke="#B29564" stroke-width="2"/>
<defs>
<clipPath id="clip0_1943_27890">
<rect width="85" height="8" fill="white" transform="translate(85 10)"/>
</clipPath>
</defs>
</svg>
