<svg width="22" height="23" viewBox="0 0 22 23" fill="none" xmlns="http://www.w3.org/2000/svg">
<path d="M9.35387 1.97355L10.4439 0.855164C10.9055 0.381612 11.6518 0.381612 12.1085 0.855164L21.6538 10.6436C22.1154 11.1171 22.1154 11.8829 21.6538 12.3514L12.1085 22.1448C11.6469 22.6184 10.9006 22.6184 10.4439 22.1448L9.35387 21.0264C8.8874 20.5479 8.89722 19.767 9.37351 19.2985L15.2903 13.5151H1.17844C0.525388 13.5151 0 12.9761 0 12.306V10.694C0 10.0239 0.525388 9.48489 1.17844 9.48489H15.2903L9.37351 3.70151C8.89231 3.233 8.88249 2.45214 9.35387 1.97355Z" fill="#B29564"/>
</svg>
