<svg width="118" height="96" viewBox="0 0 118 96" fill="none" xmlns="http://www.w3.org/2000/svg">
<g clip-path="url(#clip0_1378_6859)">
<path d="M40.6855 6.20608C38.0919 7.83745 35.2583 7.30982 32.3079 7.10732C32.6107 7.37827 32.9136 7.64921 33.1834 7.88879C32.4518 8.12836 31.7592 7.80037 31.2524 7.04458C30.9676 6.61962 30.5628 6.17756 30.098 5.9608C28.5448 5.23638 26.9586 4.569 25.3515 3.95866C23.3695 3.20857 21.3485 3.23994 19.3876 4.03852C18.8808 4.24387 18.3831 4.60037 18.0413 5.00822C17.1837 6.03781 17.4775 7.10732 18.7549 7.95153C17.2287 8.07132 16.1972 6.99609 16.581 5.62711C16.9468 4.31802 17.9453 3.50233 19.2256 3.01463C21.1446 2.28166 23.1266 2.2018 25.1326 2.68665C25.5854 2.79502 26.0291 2.92622 26.4789 3.04886C27.3694 -0.0170969 30.026 -0.944013 32.6467 1.06383C34.1279 2.19609 35.5072 2.64387 37.3812 2.45563C39.5521 2.23602 41.4801 3.22568 43.3721 4.10982C44.2567 4.52337 45.1082 4.99396 45.9778 5.43032C48.7933 6.83923 51.7318 7.08736 54.7812 6.2346C54.9252 6.19467 55.0691 6.15474 55.231 6.18896C53.4949 7.36116 51.5219 7.40679 49.501 7.24993C47.498 7.09306 45.6869 6.42568 43.8879 5.61C42.1788 4.83424 40.3917 4.18968 38.5896 3.63068C37.795 3.3854 36.8745 3.49092 35.975 3.59075C37.3003 5.1223 39.0214 5.63852 41.0244 5.50447C38.9105 6.17756 37.0994 5.49306 35.4832 4.28379C34.8715 3.82747 34.3138 3.68486 33.7501 4.09271C33.1894 4.50055 32.7576 5.07096 32.2719 5.57007C32.7906 5.82675 33.2824 6.17756 33.8371 6.32586C36.1219 6.94761 38.4007 6.81927 40.6795 6.20322L40.6855 6.20608ZM33.7441 2.6239C32.6767 2.05634 31.6302 1.35474 30.4698 0.93834C29.8431 0.713028 28.9286 0.795738 28.3169 1.07239C27.8132 1.30055 27.4594 1.98789 27.2465 2.54119C27.1475 2.79502 27.4414 3.36543 27.7292 3.53941C28.6378 4.087 29.6243 4.53192 30.5988 4.97684C30.7907 5.06526 31.1715 5.07666 31.3004 4.95973C32.074 4.27239 32.8026 3.53656 33.7471 2.62105L33.7441 2.6239Z" fill="#B29564"/>
<path d="M91.4404 2.84641C92.9576 2.70665 94.4598 2.47849 95.965 2.45282C97.4523 2.42715 98.8915 2.80933 100.04 3.75336C100.562 4.18116 101.029 4.74587 101.305 5.3391C101.959 6.75086 100.927 8.01147 98.9755 7.94017C100.154 7.54944 100.514 6.86209 100.379 5.96084C100.247 5.0596 99.6591 4.45496 98.7986 4.09846C96.9126 3.31985 94.9666 3.18865 93.0236 3.84462C91.5843 4.32947 90.172 4.89703 88.7868 5.50452C87.8902 5.8981 86.9397 6.21182 86.5199 7.26994C86.2621 7.91735 85.4825 8.09418 84.6759 7.95157C85.0447 7.67493 85.3655 7.4325 85.6864 7.19293C85.6714 7.10452 85.6534 7.01895 85.6384 6.93054C82.7809 7.21004 79.8664 7.90594 77.2577 6.1719C80.1482 6.95336 82.9818 7.02466 85.7823 5.72983C85.4435 4.58616 84.6009 4.08705 83.5695 3.87029C83.2906 3.81325 82.8828 4.05282 82.613 4.24961C81.2487 5.23928 79.7524 5.84676 77.9983 5.78117C77.7765 5.77261 77.5546 5.69846 77.3237 5.58437C79.1587 5.50166 80.8139 5.07956 82.2112 3.61075C80.664 3.28562 79.3536 3.47956 78.0973 3.97297C76.4032 4.64035 74.727 5.34765 73.0629 6.07778C70.4872 7.21289 67.8006 7.59507 65.0091 7.11307C64.2025 6.97332 63.4409 6.5997 62.6973 6.21468C64.8382 6.75086 66.994 7.02181 69.1229 6.43999C70.5142 6.05781 71.8245 5.4104 73.1558 4.84854C74.6431 4.22109 76.0943 3.50808 77.5996 2.92056C79.1797 2.30452 80.8439 2.31592 82.526 2.52983C82.9278 2.58116 83.4285 2.40719 83.7853 2.18758C84.466 1.77118 85.0357 1.19507 85.7193 0.781521C88.301 -0.77855 90.8437 0.188295 91.4464 2.84641H91.4404ZM84.3551 2.78651C85.1317 3.48526 85.8753 4.04141 86.46 4.7202C86.8348 5.15086 87.0866 5.17368 87.5454 4.9284C88.34 4.50345 89.1346 4.06423 89.9771 3.73339C90.9187 3.36263 90.9187 2.72377 90.6578 2.01361C90.34 1.14088 89.5544 0.852823 88.6548 0.801486C86.8048 0.693108 85.5754 1.73981 84.3551 2.78936V2.78651Z" fill="#B29564"/>
<path d="M71.4344 3.81601C72.3009 1.98499 71.2965 0.604602 69.1466 0.829914C68.31 0.918328 67.4435 1.28909 66.7328 1.73116C65.8003 2.30728 64.9847 3.05451 64.1602 3.77038C60.9938 6.53116 56.9489 6.51975 53.8065 3.74756C52.9639 3.00318 52.0674 2.30728 51.1619 1.63134C50.2713 0.966813 49.2339 0.675904 48.0975 0.818506C46.3794 1.03526 45.7197 2.35291 46.6102 3.74756C46.5323 3.79034 46.4513 3.83027 46.3734 3.87305C46.1485 3.49658 45.8127 3.14578 45.7197 2.74364C45.5398 1.97359 45.7887 1.26913 46.5203 0.80995C47.9056 -0.0599253 49.4078 -0.245308 50.856 0.553266C51.8425 1.09516 52.6941 1.8595 53.5786 2.55826C54.0464 2.92902 54.4362 3.3825 54.886 3.77323C57.5126 6.06343 60.562 6.0292 63.1857 3.73045C64.403 2.66378 65.6054 1.56289 66.9547 0.658791C68.34 -0.268125 70.298 -0.0741855 71.5393 0.866991C72.6368 1.69694 72.5858 3.12296 71.4344 3.81031V3.81601Z" fill="#B29564"/>
</g>
<path d="M15.28 23.88H36.4V26.16H15.28V23.88ZM14.36 33.44H37.24V35.72H14.36V33.44ZM14.24 48.28H37.4V50.6H14.24V48.28ZM16.32 28.56H35.72V30.8H16.32V28.56ZM20.16 20.44H22.84V34.36H20.16V20.44ZM28.8 20.44H31.48V34.36H28.8V20.44ZM24.4 34.44H27.08V49H24.4V34.44ZM32.24 38.04H35V54.08C35 55.56 34.68 56.32 33.64 56.76C32.52 57.2 30.68 57.16 27.8 57.16C27.68 56.48 27.32 55.44 26.96 54.72C29.04 54.8 31 54.8 31.52 54.76C32.08 54.72 32.24 54.6 32.24 54.08V38.04ZM16.8 38.04H33.44V40.32H19.52V57.24H16.8V38.04ZM18.2 43.2H33.36V45.28H18.2V43.2ZM4.28 47.96L7 48.6C6.04 51.88 4.36 55.12 2.52 57.24C2 56.84 0.88 56.04 0.24 55.64C2.04 53.72 3.52 50.88 4.28 47.96ZM9.32 48.96L11.56 47.92C12.88 49.88 14.32 52.48 14.92 54.12L12.52 55.28C11.92 53.6 10.56 50.92 9.32 48.96ZM4.92 31.92V37.08H10.92V31.92H4.92ZM4.92 39.4V44.64H10.92V39.4H4.92ZM4.92 24.44V29.56H10.92V24.44H4.92ZM2.28 21.92H13.6V47.12H2.28V21.92ZM60.36 20.4L63.08 20.96C61.6 27.52 58.96 33.6 55.6 37.56C55.12 37.12 53.92 36.24 53.28 35.84C56.64 32.24 59 26.48 60.36 20.4ZM74.16 27.12H77C77 27.12 77 28.24 76.96 28.68C76.04 46.92 75.2 53.2 73.56 55.16C72.76 56.24 72 56.6 70.76 56.72C69.72 56.88 67.96 56.84 66.2 56.72C66.12 55.84 65.84 54.56 65.36 53.76C67.16 53.92 68.8 53.96 69.56 53.96C70.2 53.96 70.6 53.8 71.08 53.28C72.4 51.76 73.32 45.4 74.16 27.84V27.12ZM60.08 27.12H75.36V29.96H58.8L60.08 27.12ZM64.12 28L66.4 29.16C64.68 36.24 60.88 44.24 56.32 48.2C55.72 47.6 54.76 46.88 53.96 46.44C58.64 42.76 62.48 35 64.12 28ZM69.84 28.24L72.24 29.36C70.24 40.12 65.76 51.16 59.04 56.56C58.44 55.92 57.36 55.16 56.48 54.72C63.48 49.72 67.92 38.88 69.84 28.24ZM40.4 42.6C44.16 41.64 49.88 39.96 55.32 38.32L55.72 40.96C50.64 42.56 45.24 44.24 41.2 45.52L40.4 42.6ZM47.88 20.44H50.68V57.2H47.88V20.44ZM42.92 22.72L45.52 23.16C44.92 28.48 43.92 33.88 42.4 37.44C41.92 37.08 40.76 36.4 40.12 36.12C41.64 32.72 42.44 27.64 42.92 22.72ZM43.16 28.6H54.8V31.52H42.68L43.16 28.6ZM82.32 24.08H115.68V26.84H82.32V24.08ZM81.08 48.64H117.04V51.4H81.08V48.64ZM97.36 20.44H100.44V57.32H97.36V20.44ZM88.16 38.72V42.88H109.8V38.72H88.16ZM88.16 32.28V36.36H109.8V32.28H88.16ZM85.28 29.76H112.8V45.36H85.28V29.76Z" fill="#B29564"/>
<path d="M48.8125 73.3906C48.8125 74.0781 48.5677 74.6615 48.0781 75.1406C47.3698 75.8177 46.3542 76.1562 45.0312 76.1562C43.8958 76.1562 42.9271 75.8906 42.125 75.3594C42.125 75.5365 42.1146 75.6771 42.0938 75.7812C42.0417 75.9479 41.875 76.0312 41.5938 76.0312V72.7188H42.2031C42.2448 73.2708 42.3594 73.7604 42.5469 74.1875C42.9948 75.1979 43.7708 75.7031 44.875 75.7031C45.1667 75.7031 45.4323 75.6615 45.6719 75.5781C46.3385 75.3281 46.6719 74.8281 46.6719 74.0781C46.6719 73.8594 46.625 73.6458 46.5312 73.4375C46.3125 73 45.7552 72.5469 44.8594 72.0781C43.8594 71.5677 43.2969 71.2708 43.1719 71.1875C42.1823 70.5729 41.6875 69.8333 41.6875 68.9688C41.6875 68.3854 41.8906 67.8802 42.2969 67.4531C42.9323 66.7969 43.8802 66.4688 45.1406 66.4688C46.099 66.4688 47.0104 66.6719 47.875 67.0781C47.875 66.9844 47.8802 66.901 47.8906 66.8281C47.9427 66.6302 48.1146 66.5312 48.4062 66.5312V69.3594H47.7969C47.7865 68.7969 47.651 68.3125 47.3906 67.9062C46.9635 67.2604 46.3229 66.9375 45.4688 66.9375C45.25 66.9375 45.0417 66.9688 44.8438 67.0312C44.25 67.2292 43.9531 67.6354 43.9531 68.25C43.9531 68.4896 44.0052 68.7188 44.1094 68.9375C44.3281 69.3854 44.875 69.8385 45.75 70.2969C46.7083 70.8073 47.2552 71.099 47.3906 71.1719C48.3385 71.7865 48.8125 72.526 48.8125 73.3906ZM49.6875 69.7656V69.3594H50.7656V67.875L52.75 67.5469V69.3594H54.8125V69.7656H52.75V74.5C52.75 74.6354 52.7604 74.7656 52.7812 74.8906C52.8646 75.4323 53.099 75.7031 53.4844 75.7031C53.5469 75.7031 53.6094 75.6979 53.6719 75.6875C54.0781 75.6042 54.3854 75.1406 54.5938 74.2969L55.0156 74.3594C54.9323 74.7865 54.8177 75.1302 54.6719 75.3906C54.3698 75.9115 53.8177 76.1719 53.0156 76.1719C52.8906 76.1719 52.7656 76.1667 52.6406 76.1562C51.3906 76.0104 50.7656 75.1823 50.7656 73.6719V69.7656H49.6875ZM57.7031 72.6094C57.7031 73.5885 57.7656 74.3021 57.8906 74.75C58.0781 75.4167 58.4948 75.75 59.1406 75.75C59.5052 75.75 59.8021 75.6406 60.0312 75.4219C60.4271 75.026 60.625 74.0677 60.625 72.5469C60.625 71.599 60.5625 70.9062 60.4375 70.4688C60.25 69.7917 59.8229 69.4531 59.1562 69.4531C58.7604 69.4531 58.4531 69.5729 58.2344 69.8125C57.8802 70.2188 57.7031 71.151 57.7031 72.6094ZM59.2344 69.0469C60.1302 69.0469 60.8958 69.2917 61.5312 69.7812C62.3542 70.4375 62.7656 71.349 62.7656 72.5156C62.7656 73.3906 62.5052 74.1615 61.9844 74.8281C61.2865 75.7135 60.3229 76.1562 59.0938 76.1562C58.1979 76.1562 57.4271 75.8854 56.7812 75.3438C55.9688 74.6562 55.5625 73.724 55.5625 72.5469C55.5625 71.7135 55.8021 70.9844 56.2812 70.3594C56.9688 69.4844 57.9531 69.0469 59.2344 69.0469ZM67.5938 75.5938C67.6562 75.5938 67.7135 75.599 67.7656 75.6094C67.901 75.6302 67.9688 75.7604 67.9688 76H63.5469V75.5938C63.6823 75.5938 63.8021 75.5833 63.9062 75.5625C64.2708 75.5 64.4531 75.2396 64.4531 74.7812V69.6875H63.5469V69.2812H66.2812L66.3906 70.7344C66.5052 70.4427 66.6719 70.1719 66.8906 69.9219C67.3802 69.4115 67.9479 69.1562 68.5938 69.1562C68.7292 69.1562 68.8594 69.1719 68.9844 69.2031C69.4948 69.3385 69.75 69.6667 69.75 70.1875C69.75 70.3333 69.7188 70.474 69.6562 70.6094C69.4792 71.0052 69.1823 71.2031 68.7656 71.2031C68.6406 71.2031 68.526 71.1875 68.4219 71.1562C68.2031 71.0729 68 70.8646 67.8125 70.5312C67.6771 70.2917 67.5521 70.1719 67.4375 70.1719C67.375 70.1719 67.3073 70.1875 67.2344 70.2188C66.776 70.4583 66.5104 71.125 66.4375 72.2188V75.5938H67.5938ZM73.7969 69.4531C72.9635 69.4844 72.5104 70.3646 72.4375 72.0938L73.4375 72.1406C73.8542 72.1615 74.1667 72.1354 74.375 72.0625C74.6667 71.9479 74.8125 71.6458 74.8125 71.1562C74.8021 70.0417 74.4635 69.474 73.7969 69.4531ZM76.7188 74.3906C76.6562 74.5573 76.5729 74.7188 76.4688 74.875C75.9375 75.7292 75.0625 76.1562 73.8438 76.1562C73.1562 76.1562 72.5417 76.0156 72 75.7344C70.8646 75.1406 70.2969 74.0885 70.2969 72.5781C70.2969 71.651 70.5469 70.875 71.0469 70.25C71.7031 69.4479 72.6198 69.0469 73.7969 69.0469C74.4427 69.0469 75.0208 69.1562 75.5312 69.375C76.4375 69.7812 76.8906 70.4271 76.8906 71.3125C76.8906 71.4896 76.8594 71.651 76.7969 71.7969C76.526 72.3802 75.5521 72.6458 73.875 72.5938L72.4375 72.5469C72.4479 73.151 72.5 73.6719 72.5938 74.1094C72.8333 75.1719 73.3698 75.7031 74.2031 75.7031C74.4635 75.7031 74.7188 75.6562 74.9688 75.5625C75.5938 75.3333 76.0521 74.901 76.3438 74.2656L76.7188 74.3906Z" fill="#B29564"/>
<g clip-path="url(#clip1_1378_6859)">
<path d="M76.4526 89.7939C78.9242 88.1626 81.6244 88.6902 84.436 88.8927C84.1474 88.6217 83.8588 88.3508 83.6017 88.1112C84.2989 87.8716 84.9589 88.1996 85.4418 88.9554C85.7132 89.3804 86.099 89.8224 86.5419 90.0392C88.022 90.7636 89.5335 91.431 91.065 92.0413C92.9538 92.7914 94.8796 92.7601 96.7483 91.9615C97.2312 91.7561 97.7055 91.3996 98.0313 90.9918C98.8485 89.9622 98.5684 88.8927 97.3512 88.0485C98.8056 87.9287 99.7885 89.0039 99.4228 90.3729C99.0742 91.682 98.1227 92.4977 96.9026 92.9854C95.0739 93.7183 93.1852 93.7982 91.2736 93.3134C90.8422 93.205 90.4193 93.0738 89.9907 92.9511C89.1421 96.0171 86.6104 96.944 84.1131 94.9362C82.7016 93.8039 81.3872 93.3561 79.6014 93.5444C77.5327 93.764 75.6954 92.7743 73.8924 91.8902C73.0495 91.4766 72.238 91.006 71.4094 90.5697C68.7263 89.1608 65.9261 88.9126 63.0202 89.7654C62.8831 89.8053 62.7459 89.8453 62.5916 89.811C64.246 88.6388 66.1261 88.5932 68.052 88.7501C69.9607 88.9069 71.6865 89.5743 73.4009 90.39C75.0296 91.1658 76.7326 91.8103 78.4499 92.3693C79.2071 92.6146 80.0843 92.5091 80.9415 92.4093C79.6785 90.8777 78.0384 90.3615 76.1297 90.4955C78.1441 89.8224 79.87 90.5069 81.4101 91.7162C81.993 92.1725 82.5244 92.3151 83.0616 91.9073C83.5959 91.4995 84.0074 90.929 84.4703 90.4299C83.976 90.1733 83.5074 89.8224 82.9788 89.6741C80.8015 89.0524 78.6299 89.1807 76.4583 89.7968L76.4526 89.7939ZM83.0673 93.3761C84.0846 93.9437 85.0818 94.6453 86.1876 95.0617C86.7847 95.287 87.6562 95.2043 88.2391 94.9276C88.7192 94.6994 89.0563 94.0121 89.2592 93.4588C89.3535 93.205 89.0735 92.6346 88.7992 92.4606C87.9334 91.913 86.9933 91.4681 86.0647 91.0232C85.8818 90.9347 85.5189 90.9233 85.3961 91.0403C84.6589 91.7276 83.9645 92.4634 83.0645 93.379L83.0673 93.3761Z" fill="#B29564"/>
<path d="M28.0866 93.1536C26.6407 93.2933 25.2092 93.5215 23.7748 93.5472C22.3576 93.5728 20.9861 93.1907 19.8917 92.2466C19.3945 91.8188 18.9488 91.2541 18.6859 90.6609C18.063 89.2491 19.0459 87.9885 20.906 88.0598C19.7831 88.4506 19.4402 89.1379 19.5688 90.0392C19.6945 90.9404 20.2546 91.545 21.0746 91.9015C22.8719 92.6802 24.7263 92.8113 26.5779 92.1554C27.9494 91.6705 29.2952 91.103 30.6153 90.4955C31.4696 90.1019 32.3754 89.7882 32.7755 88.7301C33.0212 88.0827 33.7641 87.9058 34.5327 88.0484C34.1813 88.3251 33.8755 88.5675 33.5698 88.8071C33.5841 88.8955 33.6012 88.9811 33.6155 89.0695C36.3386 88.79 39.1159 88.0941 41.6018 89.8281C38.8473 89.0466 36.1471 88.9753 33.4784 90.2702C33.8012 91.4138 34.6042 91.913 35.5871 92.1297C35.8528 92.1868 36.2414 91.9472 36.4986 91.7504C37.7987 90.7607 39.2245 90.1532 40.896 90.2188C41.1075 90.2274 41.3189 90.3015 41.5389 90.4156C39.7902 90.4983 38.213 90.9204 36.8815 92.3892C38.3558 92.7144 39.6045 92.5204 40.8017 92.027C42.4161 91.3597 44.0134 90.6524 45.5992 89.9222C48.0537 88.7871 50.6139 88.4049 53.274 88.8869C54.0427 89.0267 54.7684 89.4003 55.4771 89.7853C53.4369 89.2491 51.3825 88.9782 49.3538 89.56C48.028 89.9422 46.7793 90.5896 45.5106 91.1515C44.0934 91.7789 42.7104 92.4919 41.276 93.0794C39.7702 93.6955 38.1844 93.6841 36.5814 93.4702C36.1986 93.4188 35.7214 93.5928 35.3814 93.8124C34.7327 94.2288 34.1898 94.8049 33.5384 95.2185C31.0782 96.7785 28.6552 95.8117 28.0808 93.1536L28.0866 93.1536ZM34.8385 93.2135C34.0984 92.5147 33.3898 91.9586 32.8326 91.2798C32.4754 90.8491 32.2354 90.8263 31.7982 91.0716C31.041 91.4966 30.2838 91.9358 29.4809 92.2666C28.5837 92.6374 28.5837 93.2762 28.8323 93.9864C29.1352 94.8591 29.8838 95.1472 30.741 95.1985C32.504 95.3069 33.6755 94.2602 34.8385 93.2106L34.8385 93.2135Z" fill="#B29564"/>
<path d="M47.1504 92.184C46.3247 94.015 47.2819 95.3954 49.3306 95.1701C50.1278 95.0817 50.9536 94.7109 51.6307 94.2688C52.5194 93.6927 53.2966 92.9455 54.0823 92.2296C57.0997 89.4688 60.9543 89.4803 63.9488 92.2524C64.7517 92.9968 65.606 93.6927 66.4689 94.3687C67.3176 95.0332 68.3062 95.3241 69.3891 95.1815C71.0264 94.9647 71.655 93.6471 70.8064 92.2524C70.8807 92.2097 70.9578 92.1697 71.0321 92.127C71.2464 92.5034 71.5664 92.8542 71.655 93.2564C71.8265 94.0264 71.5893 94.7309 70.8921 95.1901C69.572 96.0599 68.1405 96.2453 66.7604 95.4467C65.8203 94.9048 65.0088 94.1405 64.1659 93.4417C63.7202 93.071 63.3487 92.6175 62.9201 92.2268C60.4171 89.9366 57.5112 89.9708 55.011 92.2696C53.8509 93.3362 52.7051 94.4371 51.4193 95.3412C50.0992 96.2681 48.2334 96.0742 47.0504 95.133C46.0046 94.3031 46.0532 92.877 47.1504 92.1897L47.1504 92.184Z" fill="#B29564"/>
</g>
<defs>
<clipPath id="clip0_1378_6859">
<rect width="85" height="8" fill="white" transform="translate(16.5)"/>
</clipPath>
<clipPath id="clip1_1378_6859">
<rect width="81" height="7.99999" fill="white" transform="translate(99.5 96) rotate(-180)"/>
</clipPath>
</defs>
</svg>
