<svg width="25" height="26" viewBox="0 0 25 26" fill="none" xmlns="http://www.w3.org/2000/svg">
<g clip-path="url(#clip0_703_27171)">
<path d="M17.1875 10.8066C17.1875 10.5994 17.2698 10.4007 17.4163 10.2542C17.5628 10.1077 17.7615 10.0254 17.9688 10.0254H19.5312C19.7385 10.0254 19.9372 10.1077 20.0837 10.2542C20.2302 10.4007 20.3125 10.5994 20.3125 10.8066V12.3691C20.3125 12.5763 20.2302 12.7751 20.0837 12.9216C19.9372 13.0681 19.7385 13.1504 19.5312 13.1504H17.9688C17.7615 13.1504 17.5628 13.0681 17.4163 12.9216C17.2698 12.7751 17.1875 12.5763 17.1875 12.3691V10.8066Z" fill="#AF9262"/>
<path d="M5.46875 0.233887C5.67595 0.233887 5.87466 0.316197 6.02118 0.46271C6.16769 0.609222 6.25 0.807936 6.25 1.01514V1.79639H18.75V1.01514C18.75 0.807936 18.8323 0.609222 18.9788 0.46271C19.1253 0.316197 19.324 0.233887 19.5312 0.233887C19.7384 0.233887 19.9372 0.316197 20.0837 0.46271C20.2302 0.609222 20.3125 0.807936 20.3125 1.01514V1.79639H21.875C22.7038 1.79639 23.4987 2.12563 24.0847 2.71168C24.6708 3.29773 25 4.09259 25 4.92139V22.1089C25 22.9377 24.6708 23.7325 24.0847 24.3186C23.4987 24.9046 22.7038 25.2339 21.875 25.2339H3.125C2.2962 25.2339 1.50134 24.9046 0.915291 24.3186C0.32924 23.7325 0 22.9377 0 22.1089V4.92139C0 4.09259 0.32924 3.29773 0.915291 2.71168C1.50134 2.12563 2.2962 1.79639 3.125 1.79639H4.6875V1.01514C4.6875 0.807936 4.76981 0.609222 4.91632 0.46271C5.06284 0.316197 5.26155 0.233887 5.46875 0.233887ZM1.5625 6.48389V22.1089C1.5625 22.5233 1.72712 22.9207 2.02015 23.2137C2.31317 23.5068 2.7106 23.6714 3.125 23.6714H21.875C22.2894 23.6714 22.6868 23.5068 22.9799 23.2137C23.2729 22.9207 23.4375 22.5233 23.4375 22.1089V6.48389H1.5625Z" fill="#AF9262"/>
</g>
<defs>
<clipPath id="clip0_703_27171">
<rect width="25" height="25" fill="white" transform="translate(0 0.650391)"/>
</clipPath>
</defs>
</svg>
