<svg width="320" height="131" viewBox="0 0 320 131" fill="none" xmlns="http://www.w3.org/2000/svg">
<g clip-path="url(#clip0_2053_6696)">
<path d="M141.685 16.2058C139.092 17.8372 136.258 17.3096 133.308 17.1071C133.611 17.378 133.913 17.649 134.183 17.8885C133.452 18.1281 132.759 17.8001 132.252 17.0443C131.968 16.6194 131.563 16.1773 131.098 15.9606C129.545 15.2361 127.959 14.5688 126.351 13.9584C124.369 13.2083 122.348 13.2397 120.387 14.0383C119.881 14.2436 119.383 14.6001 119.041 15.008C118.184 16.0376 118.477 17.1071 119.755 17.9513C118.229 18.0711 117.197 16.9959 117.581 15.6269C117.947 14.3178 118.945 13.5021 120.226 13.0144C122.145 12.2814 124.127 12.2016 126.133 12.6864C126.585 12.7948 127.029 12.926 127.479 13.0486C128.369 9.98266 131.026 9.05574 133.647 11.0636C135.128 12.1958 136.507 12.6436 138.381 12.4554C140.552 12.2358 142.48 13.2254 144.372 14.1096C145.257 14.5231 146.108 14.9937 146.978 15.4301C149.793 16.839 152.732 17.0871 155.781 16.2344C155.925 16.1944 156.069 16.1545 156.231 16.1887C154.495 17.3609 152.522 17.4065 150.501 17.2497C148.498 17.0928 146.687 16.4254 144.888 15.6098C143.179 14.834 141.392 14.1894 139.59 13.6304C138.795 13.3852 137.874 13.4907 136.975 13.5905C138.3 15.1221 140.021 15.6383 142.024 15.5042C139.91 16.1773 138.099 15.4928 136.483 14.2836C135.871 13.8272 135.314 13.6846 134.75 14.0925C134.189 14.5003 133.758 15.0707 133.272 15.5698C133.791 15.8265 134.282 16.1773 134.837 16.3256C137.122 16.9474 139.401 16.819 141.679 16.203L141.685 16.2058ZM134.744 12.6237C133.677 12.0561 132.63 11.3545 131.47 10.9381C130.843 10.7128 129.929 10.7955 129.317 11.0721C128.813 11.3003 128.459 11.9877 128.246 12.5409C128.147 12.7948 128.441 13.3652 128.729 13.5392C129.638 14.0868 130.624 14.5317 131.599 14.9766C131.791 15.065 132.171 15.0764 132.3 14.9595C133.074 14.2721 133.803 13.5363 134.747 12.6208L134.744 12.6237Z" fill="#B29564"/>
<path d="M192.44 12.8462C193.957 12.7064 195.46 12.4782 196.965 12.4526C198.452 12.4269 199.891 12.8091 201.04 13.7531C201.561 14.1809 202.029 14.7456 202.305 15.3389C202.959 16.7506 201.927 18.0112 199.975 17.9399C201.154 17.5492 201.513 16.8618 201.379 15.9606C201.247 15.0594 200.659 14.4547 199.798 14.0982C197.912 13.3196 195.966 13.1884 194.023 13.8444C192.584 14.3292 191.172 14.8968 189.787 15.5043C188.89 15.8979 187.94 16.2116 187.52 17.2697C187.262 17.9171 186.482 18.0939 185.676 17.9513C186.045 17.6747 186.365 17.4323 186.686 17.1927C186.671 17.1043 186.653 17.0187 186.638 16.9303C183.781 17.2098 180.866 17.9057 178.258 16.1717C181.148 16.9531 183.982 17.0244 186.782 15.7296C186.443 14.5859 185.601 14.0868 184.569 13.87C184.29 13.813 183.883 14.0526 183.613 14.2494C182.248 15.239 180.752 15.8465 178.998 15.7809C178.776 15.7724 178.554 15.6982 178.324 15.5841C180.159 15.5014 181.814 15.0793 183.211 13.6105C181.664 13.2854 180.353 13.4793 179.097 13.9727C177.403 14.6401 175.727 15.3474 174.063 16.0775C171.487 17.2126 168.8 17.5948 166.009 17.1128C165.202 16.9731 164.441 16.5995 163.697 16.2144C165.838 16.7506 167.994 17.0216 170.123 16.4397C171.514 16.0576 172.824 15.4102 174.156 14.8483C175.643 14.2208 177.094 13.5078 178.599 12.9203C180.18 12.3043 181.844 12.3157 183.526 12.5296C183.928 12.5809 184.428 12.4069 184.785 12.1873C185.466 11.7709 186.036 11.1948 186.719 10.7813C189.301 9.22121 191.844 10.1881 192.446 12.8462H192.44ZM185.355 12.7863C186.131 13.485 186.875 14.0412 187.46 14.72C187.835 15.1506 188.086 15.1734 188.545 14.9282C189.34 14.5032 190.134 14.064 190.977 13.7331C191.918 13.3624 191.918 12.7235 191.658 12.0134C191.34 11.1406 190.554 10.8526 189.655 10.8012C187.805 10.6929 186.575 11.7396 185.355 12.7891V12.7863Z" fill="#B29564"/>
<path d="M172.435 13.8159C173.301 11.9849 172.297 10.6045 170.147 10.8298C169.31 10.9182 168.444 11.289 167.733 11.731C166.8 12.3072 165.985 13.0544 165.16 13.7703C161.994 16.531 157.949 16.5196 154.807 13.7474C153.964 13.0031 153.068 12.3072 152.162 11.6312C151.272 10.9667 150.234 10.6758 149.098 10.8184C147.38 11.0351 146.72 12.3528 147.61 13.7474C147.532 13.7902 147.452 13.8301 147.374 13.8729C147.149 13.4965 146.813 13.1457 146.72 12.7435C146.54 11.9735 146.789 11.269 147.52 10.8098C148.906 9.93995 150.408 9.75457 151.856 10.5531C152.843 11.095 153.694 11.8594 154.579 12.5581C155.047 12.9289 155.436 13.3824 155.886 13.7731C158.513 16.0633 161.562 16.0291 164.186 13.7303C165.403 12.6637 166.606 11.5628 167.955 10.6587C169.34 9.73175 171.298 9.92569 172.54 10.8669C173.637 11.6968 173.586 13.1228 172.435 13.8102V13.8159Z" fill="#B29564"/>
</g>
<path d="M134.641 93.75V98.7656C134.641 98.901 134.667 99 134.719 99.0625C134.781 99.1146 134.88 99.1406 135.016 99.1406H136L136.406 99L136.797 98.7812L137.125 98.5312L137.391 98.2344L137.609 97.9062L137.766 97.5312L137.875 97.0938L137.953 96.5781L137.969 96.125L137.953 95.7031L137.875 95.2344L137.75 94.8281L137.594 94.4844L137.359 94.1875L137.062 93.9219L136.688 93.6719L136.25 93.4844L135.875 93.3594L135.016 93.375C134.88 93.375 134.781 93.4062 134.719 93.4688C134.667 93.5208 134.641 93.6146 134.641 93.75ZM135.391 104.25C135.536 104.365 135.609 104.453 135.609 104.516C135.609 104.641 135.495 104.703 135.266 104.703H132.812C132.667 104.703 132.562 104.677 132.5 104.625C132.469 104.583 132.453 104.542 132.453 104.5C132.453 104.417 132.521 104.312 132.656 104.188H133.062C133.198 104.188 133.292 104.161 133.344 104.109C133.406 104.047 133.438 103.953 133.438 103.828V93.75C133.438 93.6146 133.406 93.5208 133.344 93.4688C133.292 93.4062 133.198 93.375 133.062 93.375H132.641C132.516 93.2396 132.453 93.1302 132.453 93.0469C132.453 93.0052 132.474 92.9635 132.516 92.9219C132.568 92.8698 132.672 92.8438 132.828 92.8438H135.266L135.781 92.8125L136.406 92.8594L136.984 93L137.5 93.2188L137.969 93.5312L138.375 93.9375L138.703 94.4062L138.922 94.9375L139.078 95.5312L139.141 96.2031L139.078 96.7344L138.938 97.375L138.703 97.9375L138.422 98.4375L138.062 98.8594L137.625 99.1875L137.125 99.4531L136.578 99.5938L136 99.6719H135.016C134.88 99.6719 134.781 99.7031 134.719 99.7656C134.667 99.8177 134.641 99.9115 134.641 100.047V103.812C134.641 103.948 134.667 104.047 134.719 104.109C134.781 104.161 134.88 104.188 135.016 104.188H135.031L135.391 104.25ZM143.562 103.812C143.562 103.948 143.589 104.047 143.641 104.109C143.703 104.161 143.802 104.188 143.938 104.188H143.953L144.312 104.25C144.375 104.292 144.427 104.339 144.469 104.391C144.51 104.432 144.531 104.474 144.531 104.516C144.531 104.641 144.417 104.703 144.188 104.703L141.609 104.625C141.547 104.583 141.495 104.542 141.453 104.5C141.411 104.448 141.391 104.401 141.391 104.359C141.391 104.245 141.505 104.188 141.734 104.188H141.984C142.12 104.188 142.214 104.161 142.266 104.109C142.328 104.047 142.359 103.948 142.359 103.812V98.125C142.359 98.0104 142.339 97.9323 142.297 97.8906C142.255 97.849 142.208 97.8281 142.156 97.8281C142.156 97.8281 142.104 97.8333 142 97.8438H141.656C141.469 97.7604 141.375 97.6771 141.375 97.5938C141.375 97.5625 141.391 97.526 141.422 97.4844C141.464 97.4427 141.552 97.4115 141.688 97.3906C142.75 97.1823 143.297 97.0781 143.328 97.0781C143.37 97.0781 143.417 97.1042 143.469 97.1562C143.521 97.1979 143.552 97.3021 143.562 97.4688V98.4531C143.562 98.4844 143.562 98.5156 143.562 98.5469L143.766 98.2188L144.234 97.6562L144.719 97.2656L145.203 97L145.688 96.875L146.109 96.8594L146.516 96.9375L146.859 97.0781L147.141 97.375L147.188 97.8281L146.812 98.3125L146.391 98.4844L145.672 98.0781L145.516 98.0312L145.344 98.0469L145.094 98.125L144.75 98.3594L144.328 98.75L143.562 99.75V103.812ZM148.266 100.891L148.297 100.172L148.453 99.4688L148.703 98.8438L149.031 98.2969L149.438 97.8281L149.891 97.4531L150.406 97.1719L150.938 97L151.5 96.9219L151.797 96.9531L152.094 96.9219L152.656 97L153.203 97.1875L153.703 97.4531L154.172 97.8438L154.562 98.3125L154.906 98.8594L155.141 99.4844L155.281 100.188L155.328 100.938L155.281 101.656L155.141 102.359L154.891 102.984L154.562 103.531L154.156 104L153.688 104.375L153.188 104.656L152.641 104.828L152.094 104.906L151.797 104.875L151.5 104.906L150.922 104.828L150.391 104.641L149.875 104.375L149.422 103.984L149.031 103.516L148.688 102.969L148.453 102.344L148.297 101.641L148.266 100.891ZM151.734 97.4688L151.594 97.4219L151.156 97.5938L150.75 97.8281L150.406 98.0938L150.094 98.4375L149.844 98.8281L149.656 99.2656L149.516 99.7344L149.453 100.281V100.844L149.547 101.469L149.672 102.016L149.859 102.516L150.062 102.953L150.328 103.312L150.625 103.656L150.969 103.938L151.406 104.172L151.859 104.359L152 104.406L152.438 104.234L152.844 104L153.188 103.734L153.5 103.391L153.75 103L153.938 102.562L154.078 102.094L154.141 101.547V100.984L154.047 100.359L153.922 99.8125L153.734 99.3125L153.531 98.875L153.266 98.5156L152.969 98.1719L152.625 97.8906L152.188 97.6562L151.734 97.4688ZM160.391 96.75C160.391 96.8854 160.417 96.9844 160.469 97.0469C160.531 97.099 160.625 97.125 160.75 97.125L162.375 97.1406C162.5 97.2656 162.562 97.3698 162.562 97.4531C162.562 97.4948 162.547 97.5365 162.516 97.5781C162.453 97.6302 162.349 97.6562 162.203 97.6562H160.766C160.63 97.6562 160.531 97.6875 160.469 97.75C160.417 97.8021 160.391 97.8958 160.391 98.0312V103.812C160.391 103.948 160.417 104.047 160.469 104.109C160.531 104.161 160.63 104.188 160.766 104.188C160.766 104.188 161.062 104.208 161.656 104.25C161.719 104.292 161.771 104.339 161.812 104.391C161.854 104.432 161.875 104.474 161.875 104.516C161.875 104.641 161.76 104.703 161.531 104.703L157.938 104.625C157.875 104.583 157.823 104.542 157.781 104.5C157.74 104.448 157.719 104.401 157.719 104.359C157.719 104.245 157.833 104.188 158.062 104.188H158.828C158.964 104.188 159.057 104.161 159.109 104.109C159.172 104.047 159.203 103.948 159.203 103.812V98.0312C159.203 97.8958 159.172 97.8021 159.109 97.75C159.057 97.6875 158.964 97.6562 158.828 97.6562H157.641C157.516 97.5208 157.453 97.4115 157.453 97.3281C157.453 97.2865 157.474 97.2448 157.516 97.2031C157.568 97.151 157.672 97.125 157.828 97.125H158.828C158.964 97.125 159.057 97.099 159.109 97.0469C159.172 96.9844 159.203 96.8906 159.203 96.7656V95.5312L159.266 94.9531L159.375 94.4219L159.531 93.9531L159.719 93.5469L159.953 93.1875L160.234 92.9062L160.547 92.6875L160.781 92.5781L161.438 92.4219L161.906 92.375H162.234L162.562 92.4219L162.875 92.5312L163.156 92.6875L163.391 92.9062L163.578 93.1875L163.703 93.5312L163.594 93.9531L163.078 94.1875L162.641 94.1562L162.328 93.8125L162.281 93.4844L162.031 93.1719L161.875 93.0781L161.688 93L161.359 92.9531L161.141 93.0781L160.953 93.25L160.797 93.4219L160.672 93.6562L160.578 93.9375L160.484 94.25L160.391 95.0469V96.75ZM166.453 104.625C166.307 104.521 166.234 104.432 166.234 104.359C166.234 104.245 166.349 104.188 166.578 104.188H166.828C166.964 104.188 167.057 104.161 167.109 104.109C167.172 104.047 167.203 103.948 167.203 103.812V98.0469C167.203 97.9219 167.182 97.8385 167.141 97.7969C167.099 97.7552 167.052 97.7344 167 97.7344C166.979 97.7344 166.927 97.7396 166.844 97.75H166.484C166.297 97.6667 166.203 97.5833 166.203 97.5C166.203 97.4688 166.224 97.4323 166.266 97.3906C166.307 97.349 166.391 97.3177 166.516 97.2969L167.938 97.0156C167.979 97.0052 168.016 97 168.047 97C168.141 97 168.219 97.0312 168.281 97.0938C168.344 97.1562 168.38 97.2552 168.391 97.3906V103.812C168.391 103.948 168.417 104.047 168.469 104.109C168.531 104.161 168.63 104.188 168.766 104.188H168.781L169.156 104.25C169.219 104.292 169.271 104.339 169.312 104.391C169.354 104.432 169.375 104.474 169.375 104.516C169.375 104.641 169.26 104.703 169.031 104.703L166.453 104.625ZM167.172 95.5156L166.969 95.2656L166.844 95.0156L166.828 94.75L166.844 94.4531L166.969 94.2031L166.984 94.1875L167.172 93.9688L167.469 93.8125L167.797 93.7656L168.125 93.8125L168.422 93.9688L168.625 94.2031L168.734 94.4688L168.781 94.75L168.734 95.0156L168.625 95.2656L168.422 95.5156L168.125 95.6719L167.797 95.7188L167.469 95.6719L167.172 95.5156ZM174.453 104.625C174.307 104.521 174.234 104.432 174.234 104.359C174.234 104.245 174.349 104.188 174.578 104.188H174.828C174.964 104.188 175.057 104.161 175.109 104.109C175.172 104.047 175.203 103.948 175.203 103.812V93.5938C175.203 93.4688 175.182 93.3854 175.141 93.3438C175.099 93.3021 175.052 93.2812 175 93.2812C174.979 93.2812 174.927 93.2865 174.844 93.2969H174.484C174.297 93.2135 174.203 93.1302 174.203 93.0469C174.203 93.0156 174.224 92.9792 174.266 92.9375C174.307 92.8958 174.391 92.8646 174.516 92.8438L175.953 92.5625C175.984 92.5625 176.016 92.5625 176.047 92.5625C176.141 92.5625 176.219 92.5938 176.281 92.6562C176.344 92.7188 176.38 92.8125 176.391 92.9375V103.812C176.391 103.948 176.417 104.047 176.469 104.109C176.531 104.161 176.63 104.188 176.766 104.188H176.781L177.156 104.25C177.219 104.292 177.271 104.339 177.312 104.391C177.354 104.432 177.375 104.474 177.375 104.516C177.375 104.641 177.26 104.703 177.031 104.703L174.453 104.625ZM186.625 102.734C186.74 102.651 186.823 102.609 186.875 102.609C186.906 102.609 186.932 102.62 186.953 102.641C186.974 102.661 186.984 102.688 186.984 102.719C186.984 102.781 186.948 102.87 186.875 102.984L186.531 103.531L185.734 104.219L184.859 104.672L183.906 104.859L182.969 104.797L182.062 104.453L181.297 103.859L180.688 103L180.672 102.984L180.328 101.906L180.266 100.625L180.312 100.062L180.469 99.4219L180.734 98.8281L181.078 98.3125L181.469 97.8594L181.938 97.5156L182.438 97.25L183.016 97.0469L183.594 96.9375L184.172 96.9219L184.766 97L185.312 97.1875L185.797 97.4688L186.25 97.8594L186.594 98.3906L186.875 99L187.031 99.7031L187.078 100.25C187.078 100.385 187.042 100.49 186.969 100.562C186.896 100.635 186.792 100.672 186.656 100.672L181.828 100.75C181.703 100.75 181.615 100.776 181.562 100.828C181.521 100.87 181.5 100.943 181.5 101.047C181.5 101.068 181.516 101.245 181.547 101.578L181.797 102.328L182.203 102.938L182.703 103.375L183.297 103.672L183.953 103.812L184.672 103.766L185.406 103.531L186.156 103.078L186.625 102.734ZM181.516 99.8906C181.516 99.974 181.536 100.042 181.578 100.094C181.62 100.135 181.703 100.156 181.828 100.156H185.375C185.49 100.156 185.568 100.135 185.609 100.094C185.661 100.042 185.688 99.9635 185.688 99.8594C185.688 99.849 185.656 99.651 185.594 99.2656L185.469 98.8125L185.281 98.4375L185.062 98.1406L184.781 97.9062L184.453 97.6875L184.062 97.5625L183.594 97.5156L183.188 97.6719L182.781 97.9062L182.422 98.1875L182.125 98.5L181.859 98.8594L181.672 99.2656L181.516 99.7969C181.516 99.8281 181.516 99.8594 181.516 99.8906Z" fill="#B29564"/>
<path d="M178.315 113.809C180.909 112.162 183.743 112.694 186.693 112.899C186.39 112.625 186.087 112.352 185.818 112.11C186.549 111.868 187.242 112.199 187.749 112.962C188.033 113.391 188.438 113.837 188.903 114.056C190.456 114.788 192.042 115.461 193.649 116.078C195.631 116.835 197.652 116.803 199.613 115.997C200.12 115.79 200.618 115.43 200.96 115.018C201.817 113.979 201.523 112.899 200.246 112.046C201.772 111.925 202.804 113.011 202.42 114.393C202.054 115.715 201.056 116.538 199.775 117.031C197.856 117.771 195.874 117.851 193.868 117.362C193.416 117.253 192.972 117.12 192.522 116.996C191.632 120.092 188.975 121.028 186.354 119C184.873 117.857 183.494 117.405 181.62 117.595C179.449 117.817 177.521 116.818 175.629 115.925C174.744 115.508 173.893 115.032 173.023 114.592C170.208 113.169 167.269 112.919 164.22 113.78C164.076 113.82 163.932 113.86 163.77 113.826C165.506 112.642 167.479 112.596 169.5 112.755C171.503 112.913 173.314 113.587 175.113 114.41C176.822 115.194 178.609 115.844 180.411 116.409C181.206 116.656 182.126 116.55 183.026 116.449C181.701 114.903 179.98 114.382 177.977 114.517C180.09 113.837 181.902 114.529 183.518 115.749C184.129 116.21 184.687 116.354 185.251 115.942C185.812 115.531 186.243 114.955 186.729 114.451C186.21 114.192 185.719 113.837 185.164 113.688C182.879 113.06 180.6 113.19 178.321 113.812L178.315 113.809ZM185.257 117.425C186.324 117.998 187.371 118.707 188.531 119.127C189.158 119.355 190.072 119.271 190.684 118.992C191.188 118.761 191.542 118.067 191.754 117.509C191.853 117.253 191.56 116.677 191.272 116.501C190.363 115.948 189.377 115.499 188.402 115.05C188.21 114.96 187.829 114.949 187.701 115.067C186.927 115.761 186.198 116.504 185.254 117.428L185.257 117.425Z" fill="#B29564"/>
<path d="M127.561 117.2C126.044 117.342 124.542 117.572 123.036 117.598C121.549 117.624 120.11 117.238 118.961 116.285C118.44 115.853 117.972 115.283 117.696 114.684C117.042 113.258 118.074 111.986 120.026 112.058C118.848 112.452 118.488 113.146 118.623 114.056C118.755 114.966 119.342 115.576 120.203 115.936C122.089 116.722 124.035 116.855 125.978 116.193C127.417 115.703 128.829 115.13 130.215 114.517C131.111 114.119 132.062 113.803 132.481 112.734C132.739 112.081 133.519 111.902 134.325 112.046C133.957 112.326 133.636 112.57 133.315 112.812C133.33 112.901 133.348 112.988 133.363 113.077C136.221 112.795 139.135 112.092 141.744 113.843C138.853 113.054 136.02 112.982 133.219 114.289C133.558 115.444 134.4 115.948 135.432 116.167C135.711 116.224 136.119 115.982 136.388 115.784C137.753 114.785 139.249 114.171 141.003 114.237C141.225 114.246 141.447 114.321 141.678 114.436C139.843 114.52 138.187 114.946 136.79 116.429C138.337 116.757 139.648 116.561 140.904 116.063C142.598 115.389 144.274 114.675 145.938 113.938C148.514 112.792 151.201 112.406 153.992 112.893C154.799 113.034 155.56 113.411 156.304 113.8C154.163 113.258 152.007 112.985 149.878 113.572C148.487 113.958 147.177 114.612 145.846 115.179C144.358 115.813 142.907 116.532 141.402 117.126C139.822 117.748 138.158 117.736 136.475 117.52C136.074 117.468 135.573 117.644 135.216 117.866C134.535 118.286 133.966 118.868 133.282 119.285C130.7 120.86 128.158 119.884 127.555 117.2L127.561 117.2ZM134.646 117.261C133.87 116.555 133.126 115.994 132.541 115.309C132.167 114.874 131.915 114.851 131.456 115.098C130.661 115.528 129.867 115.971 129.024 116.305C128.083 116.679 128.083 117.324 128.344 118.041C128.661 118.922 129.447 119.213 130.347 119.265C132.197 119.375 133.426 118.318 134.646 117.258L134.646 117.261Z" fill="#B29564"/>
<path d="M147.566 116.222C146.7 118.07 147.704 119.464 149.854 119.236C150.691 119.147 151.557 118.773 152.268 118.326C153.2 117.745 154.016 116.99 154.84 116.268C158.007 113.48 162.052 113.492 165.194 116.291C166.037 117.042 166.933 117.745 167.839 118.427C168.729 119.098 169.767 119.392 170.903 119.248C172.621 119.029 173.281 117.699 172.39 116.291C172.468 116.247 172.549 116.207 172.627 116.164C172.852 116.544 173.188 116.898 173.281 117.304C173.461 118.082 173.212 118.793 172.48 119.257C171.095 120.135 169.593 120.322 168.145 119.516C167.158 118.969 166.307 118.197 165.422 117.491C164.954 117.117 164.564 116.659 164.115 116.265C161.488 113.953 158.439 113.987 155.815 116.308C154.598 117.385 153.395 118.496 152.046 119.409C150.661 120.345 148.703 120.149 147.461 119.199C146.364 118.361 146.415 116.921 147.566 116.227L147.566 116.222Z" fill="#B29564"/>
<path d="M32 55.5H62" stroke="#B29564" stroke-width="2"/>
<path d="M118.211 61.7812C118.549 62.0677 118.719 62.3802 118.719 62.7188C118.719 63.0312 118.523 63.3568 118.133 63.6953V71.3125C118.133 72.1979 117.742 72.8229 116.961 73.1875L116.57 73.4219C116.31 73.5521 116.089 73.6172 115.906 73.6172C115.724 73.6172 115.555 73.5391 115.398 73.3828C115.242 73.2266 115.164 72.9531 115.164 72.5625C115.164 72.4583 115.138 72.3802 115.086 72.3281C115.06 72.3021 114.995 72.2891 114.891 72.2891L99.3438 72.4453C98.901 72.7578 98.4583 73.0182 98.0156 73.2266L97.2734 73.6172C97.013 73.7474 96.7917 73.8125 96.6094 73.8125C96.4271 73.8125 96.2578 73.7344 96.1016 73.5781C95.9453 73.4219 95.8672 73.1484 95.8672 72.7578V61.7422C95.8672 61.3516 95.9323 61.0911 96.0625 60.9609C96.2188 60.8047 96.388 60.7266 96.5703 60.7266C96.7786 60.7266 97 60.7917 97.2344 60.9219L98.6406 61.6641H115.32L115.594 61.3906C115.958 61.1042 116.31 60.9609 116.648 60.9609C117.013 60.9609 117.365 61.0911 117.703 61.3516L118.211 61.7812ZM99.7734 67.4844C99.4349 67.4844 99.1875 67.5625 99.0312 67.7188C98.901 67.849 98.8359 68.0833 98.8359 68.4219V70.0234C98.8359 70.362 98.901 70.6094 99.0312 70.7656C99.1875 70.8958 99.4349 70.9609 99.7734 70.9609H114.227C114.565 70.9609 114.799 70.8958 114.93 70.7656C115.086 70.6094 115.164 70.362 115.164 70.0234V68.4219C115.164 68.0833 115.086 67.849 114.93 67.7188C114.799 67.5625 114.565 67.4844 114.227 67.4844H99.7734ZM99.7734 62.9531C99.4349 62.9531 99.1875 63.0312 99.0312 63.1875C98.901 63.3177 98.8359 63.5521 98.8359 63.8906V65.2188C98.8359 65.5573 98.901 65.8047 99.0312 65.9609C99.1875 66.0911 99.4349 66.1562 99.7734 66.1562H114.227C114.565 66.1562 114.799 66.0911 114.93 65.9609C115.086 65.8047 115.164 65.5573 115.164 65.2188V63.8906C115.164 63.5521 115.086 63.3177 114.93 63.1875C114.799 63.0312 114.565 62.9531 114.227 62.9531H99.7734ZM95.9844 60.2578C95.9844 61.1432 95.5938 61.7682 94.8125 62.1328L94.4219 62.3672C94.1615 62.4974 93.9401 62.5625 93.7578 62.5625C93.5755 62.5625 93.4062 62.4844 93.25 62.3281C93.0938 62.1719 93.0156 61.8984 93.0156 61.5078V50.0625C93.0156 49.6719 93.0807 49.4115 93.2109 49.2812C93.3672 49.125 93.5365 49.0469 93.7188 49.0469C93.9271 49.0469 94.1615 49.112 94.4219 49.2422L95.7891 49.9453H118.172L118.445 49.6719C118.81 49.3854 119.161 49.2422 119.5 49.2422C119.839 49.2422 120.19 49.3854 120.555 49.6719L121.102 50.1797L121.258 50.7266C121.076 51.5078 120.984 52.276 120.984 53.0312V59.0469C120.984 59.9062 120.594 60.5182 119.812 60.8828L119.422 61.1172C119.188 61.2474 118.979 61.3125 118.797 61.3125C118.615 61.3125 118.458 61.2344 118.328 61.0781C118.12 60.8958 118.016 60.5573 118.016 60.0625C118.016 59.724 117.938 59.4896 117.781 59.3594C117.651 59.2031 117.417 59.125 117.078 59.125H96.9219C96.6354 59.125 96.401 59.2161 96.2188 59.3984C96.0625 59.5547 95.9844 59.8411 95.9844 60.2578ZM96.9219 51.2734C96.5833 51.2734 96.3359 51.3516 96.1797 51.5078C96.0495 51.638 95.9844 51.8724 95.9844 52.2109V56.8984C95.9844 57.237 96.0495 57.4844 96.1797 57.6406C96.3359 57.7708 96.5833 57.8359 96.9219 57.8359H104.578C104.917 57.8359 105.151 57.7708 105.281 57.6406C105.438 57.4844 105.516 57.237 105.516 56.8984V52.2109C105.516 51.8724 105.438 51.638 105.281 51.5078C105.151 51.3516 104.917 51.2734 104.578 51.2734H96.9219ZM109.422 51.2734C109.083 51.2734 108.836 51.3516 108.68 51.5078C108.549 51.638 108.484 51.8724 108.484 52.2109V56.8984C108.484 57.237 108.549 57.4844 108.68 57.6406C108.836 57.7708 109.083 57.8359 109.422 57.8359H117.078C117.417 57.8359 117.651 57.7708 117.781 57.6406C117.938 57.4844 118.016 57.237 118.016 56.8984V52.2109C118.016 51.8724 117.938 51.638 117.781 51.5078C117.651 51.3516 117.417 51.2734 117.078 51.2734H109.422ZM115.164 52.3672L116.18 53.3828C116.232 53.513 116.258 53.6432 116.258 53.7734C116.258 53.9036 116.193 54.0339 116.062 54.1641C115.958 54.2682 115.802 54.3203 115.594 54.3203C115.516 54.3203 115.451 54.3073 115.398 54.2812L113.484 55.6875L112.273 56.5078L110.75 57.4062C110.62 57.4062 110.49 57.4062 110.359 57.4062C110.255 57.4062 110.164 57.3802 110.086 57.3281C110.008 57.25 109.969 57.1849 109.969 57.1328C109.969 56.9505 110.06 56.7552 110.242 56.5469L113.289 52.4844C113.602 52.0938 113.914 51.8984 114.227 51.8984C114.565 51.8984 114.878 52.0547 115.164 52.3672ZM97.8984 52.6406C97.8203 52.4844 97.7812 52.3542 97.7812 52.25C97.7812 52.1458 97.8073 52.0677 97.8594 52.0156C97.9375 51.9375 98.0286 51.8984 98.1328 51.8984C98.237 51.8984 98.3672 51.9245 98.5234 51.9766L99.1484 52.25L100.398 52.7969L101.531 53.5L102.469 54.3594L102.938 54.8281L103.367 55.375L103.484 56.5078L102.781 57.4062L101.648 57.4844L100.75 56.8594L100.555 56.3516L100.398 55.9219L100.164 55.4922L99.8906 55.0625L99.2266 54.2031L97.8984 52.6406ZM107.938 39.9062C107.729 39.6979 107.495 39.724 107.234 39.9844L105.594 41.5469L103.836 42.9531L101.922 44.3203L99.9688 45.6094L97.8594 46.7812L95.6719 47.9141L93.3672 48.9688L90.9062 49.8672L88.2891 49.7891L90.4375 48.7344L94.8125 46.3125L96.8047 45.0234L98.6797 43.6953L100.516 42.3672L102.195 41L103.758 39.5156L105.242 37.9922C105.711 37.4453 105.958 37.1458 105.984 37.0938C106.271 36.8073 106.557 36.6641 106.844 36.6641C107.156 36.6641 107.482 36.8203 107.82 37.1328C107.846 37.1328 108.003 37.3281 108.289 37.7188C108.602 38.0833 108.823 38.526 108.953 39.0469L110.555 40.2188L112.156 41.3125L113.797 42.2891L115.477 43.2656L117.195 44.125L118.914 44.8672L120.711 45.6094L122.586 46.2734L125.008 47.0547C125.268 47.1328 125.464 47.237 125.594 47.3672C125.724 47.4974 125.789 47.6406 125.789 47.7969C125.789 48.0052 125.62 48.2526 125.281 48.5391L124.578 49.1641C124.161 49.5026 123.706 49.6719 123.211 49.6719C122.924 49.6719 122.651 49.6328 122.391 49.5547L121.531 49.2031L119.578 48.3438L117.703 47.4062L115.945 46.3906L114.227 45.3359L112.547 44.1641L110.984 42.875L109.5 41.5078L108.016 40.0234C107.99 39.9714 107.964 39.9323 107.938 39.9062ZM115.203 46.7422C115.203 47.0807 115.112 47.3411 114.93 47.5234C114.747 47.7057 114.487 47.7969 114.148 47.7969L99.8516 47.6016C99.6953 47.4974 99.5651 47.3932 99.4609 47.2891C99.3568 47.1589 99.3047 47.0417 99.3047 46.9375C99.3047 46.651 99.5911 46.5078 100.164 46.5078H110.281L111.492 45.2969C111.831 44.9583 112.169 44.7891 112.508 44.7891C112.846 44.7891 113.185 44.9193 113.523 45.1797L115.203 46.625V46.7422ZM159.812 73.2266L159.07 72.6797L157.352 71.4688L156.336 70.8828L154.07 69.7109L150.32 67.0938L153.289 67.6406L154.734 67.9922L156.062 68.3828L157.312 68.8906L159.578 69.8672L160.594 70.4141L161.57 71L162.469 71.6641L162.898 72.6797L162.586 73.7734L161.492 74.2422L160.477 73.8906L159.812 73.2266ZM142.625 66.9766C142.833 66.8464 143.042 66.7812 143.25 66.7812C143.562 66.7812 143.836 66.9635 144.07 67.3281L145.32 68.5781C145.32 68.6823 145.32 68.7474 145.32 68.7734C145.32 68.9818 145.268 69.138 145.164 69.2422C145.06 69.3464 144.93 69.3984 144.773 69.3984C144.643 69.3984 144.5 69.3854 144.344 69.3594L142.234 70.3359L139.578 71.5469L136.805 72.6016L133.797 73.5391L132.234 73.8906L131.727 73.8516C131.31 73.8516 131.062 73.7995 130.984 73.6953C130.906 73.6172 130.867 73.5391 130.867 73.4609C130.867 73.2786 131.062 73.0964 131.453 72.9141L137.273 70.0234L139.812 68.6953L142.625 66.9766ZM135.789 67.9922C135.555 68.1224 135.333 68.1875 135.125 68.1875C134.943 68.1875 134.773 68.1094 134.617 67.9531C134.461 67.7969 134.383 67.5234 134.383 67.1328V49.1641C134.383 48.7734 134.461 48.5 134.617 48.3438C134.773 48.1875 134.943 48.1094 135.125 48.1094C135.307 48.1094 135.529 48.1745 135.789 48.3047L137.156 49.0078H156.766L157.039 48.7344C157.404 48.4479 157.755 48.3047 158.094 48.3047C158.432 48.3047 158.784 48.4479 159.148 48.7344L159.734 49.2422L159.891 49.7891C159.708 50.5703 159.617 51.3385 159.617 52.0938V64.3984C159.617 65.2839 159.214 65.9089 158.406 66.2734L157.742 66.5859L157.625 66.5078C157.052 66.0391 156.401 65.8047 155.672 65.8047H138.367L137.781 66.1562C137.443 66.8854 136.909 67.4193 136.18 67.7578L135.789 67.9922ZM138.289 60.4531C137.951 60.4531 137.703 60.5312 137.547 60.6875C137.417 60.8177 137.352 61.0521 137.352 61.3906V63.5781C137.352 63.9167 137.417 64.1641 137.547 64.3203C137.703 64.4505 137.951 64.5156 138.289 64.5156H155.672C156.01 64.5156 156.245 64.4505 156.375 64.3203C156.531 64.1641 156.609 63.9167 156.609 63.5781V61.3906C156.609 61.0521 156.531 60.8177 156.375 60.6875C156.245 60.5312 156.01 60.4531 155.672 60.4531H138.289ZM138.289 55.375C137.951 55.375 137.703 55.4531 137.547 55.6094C137.417 55.7396 137.352 55.974 137.352 56.3125V58.1875C137.352 58.526 137.417 58.7734 137.547 58.9297C137.703 59.0599 137.951 59.125 138.289 59.125H155.672C156.01 59.125 156.245 59.0599 156.375 58.9297C156.531 58.7734 156.609 58.526 156.609 58.1875V56.3125C156.609 55.974 156.531 55.7396 156.375 55.6094C156.245 55.4531 156.01 55.375 155.672 55.375H138.289ZM138.289 50.3359C137.951 50.3359 137.703 50.4141 137.547 50.5703C137.417 50.7005 137.352 50.9349 137.352 51.2734V53.1484C137.352 53.487 137.417 53.7344 137.547 53.8906C137.703 54.0208 137.951 54.0859 138.289 54.0859H155.672C156.01 54.0859 156.245 54.0208 156.375 53.8906C156.531 53.7344 156.609 53.487 156.609 53.1484V51.2734C156.609 50.9349 156.531 50.7005 156.375 50.5703C156.245 50.4141 156.01 50.3359 155.672 50.3359H138.289ZM157.938 38.6172C158.276 38.9036 158.445 39.2161 158.445 39.5547C158.445 39.8672 158.25 40.1927 157.859 40.5312V44.7109C157.859 45.5964 157.469 46.2214 156.688 46.5859L156.297 46.8203C156.036 46.9505 155.815 47.0156 155.633 47.0156C155.451 47.0156 155.281 46.9375 155.125 46.7812C154.969 46.625 154.891 46.3516 154.891 45.9609C154.891 45.8568 154.865 45.7917 154.812 45.7656C154.786 45.7135 154.721 45.6875 154.617 45.6875L139.656 45.8438C139.188 46.1562 138.719 46.4297 138.25 46.6641L137.508 47.0547C137.247 47.1849 137.026 47.25 136.844 47.25C136.661 47.25 136.492 47.1719 136.336 47.0156C136.18 46.8594 136.102 46.5859 136.102 46.1953V38.6172C136.102 38.2266 136.18 37.9531 136.336 37.7969C136.492 37.6406 136.661 37.5625 136.844 37.5625C137.052 37.5625 137.273 37.6276 137.508 37.7578L138.914 38.5H155.047L155.32 38.2266C155.685 37.9401 156.036 37.7969 156.375 37.7969C156.74 37.7969 157.091 37.9271 157.43 38.1875L157.938 38.6172ZM140.047 39.7891C139.708 39.7891 139.461 39.8672 139.305 40.0234C139.174 40.1536 139.109 40.388 139.109 40.7266V43.4609C139.109 43.7995 139.174 44.0469 139.305 44.2031C139.461 44.3333 139.708 44.3984 140.047 44.3984H153.992C154.305 44.3984 154.526 44.3333 154.656 44.2031C154.812 44.0469 154.891 43.7995 154.891 43.4609V40.7266C154.891 40.388 154.812 40.1536 154.656 40.0234C154.526 39.8672 154.305 39.7891 153.992 39.7891H140.047ZM188.836 38.3828C188.836 38.5651 188.758 38.7474 188.602 38.9297L188.484 39.4375V44.9062C188.484 45.2448 188.549 45.4922 188.68 45.6484C188.836 45.7786 189.083 45.8438 189.422 45.8438H199.305L199.578 45.6094C199.943 45.3229 200.294 45.1797 200.633 45.1797C200.997 45.1797 201.349 45.3099 201.688 45.5703L202.273 46.0781L202.43 46.625C202.247 47.4062 202.156 48.1745 202.156 48.9297V60.2578C202.156 61.1432 201.766 61.7682 200.984 62.1328L200.555 62.3672C200.32 62.4974 200.112 62.5625 199.93 62.5625C199.747 62.5625 199.578 62.4974 199.422 62.3672C199.24 62.1589 199.148 61.8594 199.148 61.4688C199.148 61.0521 199.07 60.7786 198.914 60.6484C198.784 60.4922 198.549 60.4141 198.211 60.4141H189.422C189.083 60.4141 188.836 60.4922 188.68 60.6484C188.549 60.7786 188.484 61 188.484 61.3125V71.1562C188.484 72.0417 188.107 72.6667 187.352 73.0312L186.922 73.2656C186.661 73.3958 186.427 73.4609 186.219 73.4609C186.036 73.4609 185.867 73.3828 185.711 73.2266C185.581 73.0964 185.516 72.8359 185.516 72.4453V61.3516C185.516 61.013 185.438 60.7786 185.281 60.6484C185.151 60.4922 184.917 60.4141 184.578 60.4141H175.789C175.477 60.4141 175.242 60.4922 175.086 60.6484C174.93 60.8047 174.852 61.0911 174.852 61.5078C174.852 62.3932 174.461 63.0182 173.68 63.3828L173.25 63.6172C172.99 63.7474 172.768 63.8125 172.586 63.8125C172.404 63.8125 172.234 63.7344 172.078 63.5781C171.922 63.4219 171.844 63.1484 171.844 62.7578V46C171.844 45.6094 171.922 45.3359 172.078 45.1797C172.234 45.0234 172.404 44.9453 172.586 44.9453C172.768 44.9453 172.99 45.0104 173.25 45.1406L174.656 45.8438H184.578C184.917 45.8438 185.151 45.7786 185.281 45.6484C185.438 45.4922 185.516 45.2578 185.516 44.9453V38.6562C185.516 38.2396 185.607 37.9271 185.789 37.7188C185.997 37.5104 186.271 37.4062 186.609 37.4062C186.714 37.4062 186.831 37.4193 186.961 37.4453L188.328 37.6797C188.667 37.9141 188.836 38.1484 188.836 38.3828ZM175.789 47.1719C175.451 47.1719 175.203 47.25 175.047 47.4062C174.917 47.5365 174.852 47.7708 174.852 48.1094V58.1484C174.852 58.487 174.917 58.7344 175.047 58.8906C175.203 59.0208 175.451 59.0859 175.789 59.0859H184.578C184.917 59.0859 185.151 59.0208 185.281 58.8906C185.438 58.7344 185.516 58.487 185.516 58.1484V48.1094C185.516 47.7708 185.438 47.5365 185.281 47.4062C185.151 47.25 184.917 47.1719 184.578 47.1719H175.789ZM189.422 47.1719C189.083 47.1719 188.836 47.25 188.68 47.4062C188.549 47.5365 188.484 47.7708 188.484 48.1094V58.1484C188.484 58.487 188.549 58.7344 188.68 58.8906C188.836 59.0208 189.083 59.0859 189.422 59.0859H198.211C198.549 59.0859 198.784 59.0208 198.914 58.8906C199.07 58.7344 199.148 58.487 199.148 58.1484V48.1094C199.148 47.7708 199.07 47.5365 198.914 47.4062C198.784 47.25 198.549 47.1719 198.211 47.1719H189.422ZM218.797 69.0859V48.5391C218.797 48.0964 218.901 47.7839 219.109 47.6016C219.318 47.3932 219.591 47.2891 219.93 47.2891C220.398 47.2891 220.802 47.4583 221.141 47.7969C221.479 48.1354 221.688 48.6432 221.766 49.3203L222.586 68.2266C222.586 68.5391 222.664 68.7734 222.82 68.9297C222.977 69.0859 223.224 69.1641 223.562 69.1641H234.656C235.047 69.1641 235.333 69.0729 235.516 68.8906C235.698 68.7083 235.815 68.487 235.867 68.2266L236.883 64.4766C237.065 64.2682 237.208 64.1641 237.312 64.1641C237.417 64.1641 237.508 64.2031 237.586 64.2812C237.664 64.3594 237.703 64.5026 237.703 64.7109C237.703 64.737 237.638 65.388 237.508 66.6641C237.404 67.9141 237.352 68.5521 237.352 68.5781C237.352 69.0469 237.56 69.4375 237.977 69.75C238.211 70.0625 238.328 70.375 238.328 70.6875C238.328 70.974 238.211 71.2734 237.977 71.5859L237.156 72.1719H222.391L221.805 72.1328L221.219 72.0156L220.672 71.8203L220.164 71.5469L219.734 71.1953L219.383 70.7266L219.07 70.1797L218.875 69.6719L218.797 69.0859ZM208.445 65.4922L208.211 64.3594L208.797 63.4219L209.461 62.9141L210.086 62.3672L210.672 61.625L211.219 60.6484L211.727 59.5547L212.156 58.2266L212.586 56.7812L212.938 55.1406L213.25 53.2266L214.383 51.8984L214.5 53.3828L214.539 55.2969L214.422 57.0938L214.188 58.7344L213.875 60.2578L213.406 61.625L212.859 62.9141L212.234 64.0469L211.414 64.9844L210.477 65.8828L209.383 66.0781L208.445 65.4922ZM237.898 52.0547C237.768 51.8464 237.703 51.638 237.703 51.4297C237.703 51.3516 237.729 51.2865 237.781 51.2344C237.859 51.1562 237.938 51.1172 238.016 51.1172C238.094 51.1172 238.185 51.1302 238.289 51.1562C238.471 51.2083 238.68 51.3125 238.914 51.4688L240.047 52.3672L241.023 53.3047L242 54.2812L242.82 55.4141L243.523 56.5078L244.188 57.7188L244.773 58.9688L245.203 60.2188L245.555 61.625L245.32 62.7188L244.383 63.3047L243.211 63.0703L242.625 62.1719L242.43 60.9219L242.156 59.8281L241.805 58.6953L241.375 57.6016L240.906 56.5469L240.32 55.5312L239.617 54.4766L237.898 52.0547ZM222.508 39.1641C222.221 38.9297 222.078 38.7214 222.078 38.5391C222.078 38.4609 222.117 38.3958 222.195 38.3438C222.273 38.2656 222.378 38.2266 222.508 38.2266C222.742 38.2266 222.977 38.2656 223.211 38.3438L224.5 38.8906L225.672 39.4375L226.766 40.1406L227.82 40.8438L228.758 41.7031L229.695 42.6016L230.477 43.5391L231.219 44.5938L231.883 45.7266L231.922 46.8594L231.141 47.7188L229.969 47.7578L229.148 47.0547L228.719 46.0391L228.25 45.0625L227.664 44.1641L227 43.3438L225.516 41.7031L223.641 40.2188L222.508 39.1641Z" fill="#B29564"/>
<path d="M272 55.5H302" stroke="#B29564" stroke-width="2"/>
<defs>
<clipPath id="clip0_2053_6696">
<rect width="85" height="8" fill="white" transform="translate(117.5 10)"/>
</clipPath>
</defs>
</svg>
