<svg width="146" height="146" viewBox="0 0 146 146" fill="none" xmlns="http://www.w3.org/2000/svg">
<path d="M73 0.419189C32.8633 0.419189 0.34375 32.9387 0.34375 73.0754C0.34375 113.212 32.8633 145.732 73 145.732C113.137 145.732 145.656 113.212 145.656 73.0754C145.656 32.9387 113.137 0.419189 73 0.419189ZM73 28.5442C87.2383 28.5442 98.7812 40.0872 98.7812 54.3254C98.7812 68.5637 87.2383 80.1067 73 80.1067C58.7617 80.1067 47.2188 68.5637 47.2188 54.3254C47.2188 40.0872 58.7617 28.5442 73 28.5442ZM73 129.325C55.8027 129.325 40.3926 121.532 30.0801 109.345C35.5879 98.9739 46.3691 91.8254 58.9375 91.8254C59.6406 91.8254 60.3438 91.9426 61.0176 92.1477C64.8262 93.3782 68.8105 94.1692 73 94.1692C77.1895 94.1692 81.2031 93.3782 84.9824 92.1477C85.6562 91.9426 86.3594 91.8254 87.0625 91.8254C99.6309 91.8254 110.412 98.9739 115.92 109.345C105.607 121.532 90.1973 129.325 73 129.325Z" fill="#B29564"/>
</svg>
