<svg width="82" height="8" viewBox="0 0 82 8" fill="none" xmlns="http://www.w3.org/2000/svg">
<g clip-path="url(#clip0_1332_34)">
<path d="M58.4527 1.79393C60.9243 0.162556 63.6245 0.690185 66.4361 0.892681C66.1475 0.621737 65.8589 0.350792 65.6017 0.11122C66.2989 -0.128352 66.959 0.199633 67.4419 0.955426C67.7133 1.38038 68.0991 1.82245 68.5419 2.0392C70.0221 2.76362 71.5336 3.431 73.0651 4.04134C74.9538 4.79143 76.8797 4.76006 78.7484 3.96149C79.2313 3.75614 79.7056 3.39963 80.0313 2.99179C80.8485 1.9622 80.5685 0.892682 79.3513 0.0484765C80.8057 -0.0713092 81.7886 1.00391 81.4229 2.3729C81.0743 3.68198 80.1228 4.49767 78.9027 4.98537C77.074 5.71835 75.1853 5.7982 73.2737 5.31335C72.8422 5.20498 72.4194 5.07378 71.9908 4.95115C71.1421 8.0171 68.6105 8.94401 66.1132 6.93617C64.7017 5.80391 63.3873 5.35613 61.6015 5.54437C59.5327 5.76398 57.6955 4.77432 55.8925 3.89018C55.0496 3.47664 54.2381 3.00605 53.4095 2.56968C50.7264 1.16077 47.9262 0.912643 45.0203 1.76541C44.8831 1.80533 44.746 1.84526 44.5917 1.81104C46.2461 0.638847 48.1262 0.593214 50.0521 0.750077C51.9608 0.90694 53.6866 1.57432 55.401 2.39C57.0297 3.16576 58.7327 3.81033 60.4499 4.36933C61.2071 4.6146 62.0843 4.50908 62.9416 4.40926C61.6786 2.87771 60.0385 2.36149 58.1298 2.49553C60.1442 1.82245 61.87 2.50694 63.4102 3.71621C63.9931 4.17254 64.5245 4.31514 65.0617 3.90729C65.596 3.49945 66.0075 2.92904 66.4704 2.42993C65.9761 2.17325 65.5074 1.82245 64.9788 1.67414C62.8015 1.0524 60.63 1.18074 58.4584 1.79678L58.4527 1.79393ZM65.0674 5.3761C66.0846 5.94366 67.0818 6.64526 68.1876 7.06166C68.7848 7.28697 69.6563 7.20426 70.2392 6.92761C70.7192 6.69945 71.0564 6.01211 71.2593 5.45881C71.3536 5.20498 71.0736 4.63457 70.7992 4.46059C69.9335 3.913 68.9934 3.46808 68.0648 3.02316C67.8819 2.93475 67.519 2.92334 67.3962 3.04027C66.659 3.72762 65.9646 4.46344 65.0646 5.37895L65.0674 5.3761Z" fill="#B29564"/>
<path d="M10.0864 5.15359C8.64058 5.29335 7.20905 5.52151 5.77467 5.54718C4.35743 5.57285 2.9859 5.19067 1.89154 4.24664C1.39436 3.81884 0.948613 3.25413 0.685738 2.6609C0.0628363 1.24914 1.04576 -0.011464 2.90589 0.0598377C1.78296 0.450568 1.44008 1.13791 1.56866 2.03916C1.69438 2.94041 2.25441 3.54504 3.07447 3.90155C4.87174 4.68015 6.72616 4.81135 8.57772 4.15538C9.94924 3.67053 11.2951 3.10297 12.6151 2.49549C13.4695 2.1019 14.3753 1.78818 14.7753 0.73007C15.021 0.0826549 15.7639 -0.0941715 16.5326 0.048431C16.1811 0.325079 15.8754 0.567503 15.5696 0.807075C15.5839 0.895489 15.6011 0.98105 15.6154 1.06946C18.3384 0.789963 21.1157 0.0940638 23.6016 1.82811C20.8472 1.04665 18.147 0.975346 15.4782 2.27018C15.8011 3.41385 16.604 3.91295 17.5869 4.12971C17.8527 4.18675 18.2413 3.94718 18.4984 3.75039C19.7985 2.76073 21.2243 2.15324 22.8959 2.21884C23.1073 2.2274 23.3188 2.30155 23.5388 2.41563C21.7901 2.49834 20.2128 2.92044 18.8813 4.38925C20.3557 4.71438 21.6044 4.52044 22.8016 4.02704C24.416 3.35966 26.0132 2.65235 27.5991 1.92223C30.0535 0.787112 32.6137 0.404938 35.2739 0.886934C36.0425 1.02668 36.7683 1.4003 37.4769 1.78533C35.4368 1.24914 33.3823 0.9782 31.3536 1.56002C30.0278 1.94219 28.7791 2.58961 27.5105 3.15146C26.0932 3.77891 24.7103 4.49192 23.2759 5.07944C21.7701 5.69548 20.1843 5.68408 18.5813 5.47017C18.1984 5.41884 17.7212 5.59281 17.3812 5.81242C16.7326 6.22882 16.1897 6.80493 15.5382 7.21848C13.078 8.77855 10.655 7.8117 10.0807 5.15359L10.0864 5.15359ZM16.8383 5.21349C16.0982 4.51474 15.3896 3.95859 14.8324 3.2798C14.4753 2.84914 14.2353 2.82632 13.7981 3.0716C13.0409 3.49656 12.2837 3.93577 11.4808 4.26661C10.5836 4.63737 10.5836 5.27623 10.8322 5.98639C11.135 6.85912 11.8837 7.14718 12.7409 7.19851C14.5039 7.30689 15.6754 6.26019 16.8383 5.21064L16.8383 5.21349Z" fill="#B29564"/>
<path d="M29.1506 4.18399C28.3248 6.015 29.282 7.3954 31.3308 7.17008C32.128 7.08167 32.9537 6.7109 33.6309 6.26884C34.5196 5.69272 35.2968 4.94549 36.0825 4.22962C39.0999 1.46884 42.9544 1.48025 45.9489 4.25244C46.7519 4.99683 47.6062 5.69273 48.4691 6.36866C49.3177 7.03319 50.3064 7.3241 51.3893 7.18149C53.0266 6.96474 53.6552 5.64709 52.8066 4.25244C52.8809 4.20966 52.958 4.16973 53.0323 4.12695C53.2466 4.50342 53.5666 4.85422 53.6552 5.25636C53.8266 6.02642 53.5895 6.73087 52.8923 7.19005C51.5722 8.05993 50.1407 8.24531 48.7606 7.44673C47.8205 6.90485 47.009 6.1405 46.1661 5.44174C45.7203 5.07098 45.3489 4.6175 44.9203 4.22677C42.4173 1.93658 39.5113 1.9708 37.0112 4.26955C35.8511 5.33622 34.7053 6.43711 33.4195 7.34121C32.0994 8.26812 30.2335 8.07418 29.0506 7.13301C28.0048 6.30306 28.0534 4.87704 29.1506 4.18969L29.1506 4.18399Z" fill="#B29564"/>
</g>
<defs>
<clipPath id="clip0_1332_34">
<rect width="81" height="7.99999" fill="white" transform="translate(81.5 8) rotate(-180)"/>
</clipPath>
</defs>
</svg>
