<svg width="86" height="8" viewBox="0 0 86 8" fill="none" xmlns="http://www.w3.org/2000/svg">
<g clip-path="url(#clip0_1332_27)">
<path d="M24.6855 6.20608C22.0918 7.83745 19.2583 7.30982 16.3078 7.10732C16.6107 7.37827 16.9135 7.64921 17.1834 7.88879C16.4517 8.12836 15.7591 7.80037 15.2524 7.04458C14.9675 6.61962 14.5627 6.17756 14.098 5.9608C12.5448 5.23638 10.9586 4.569 9.35141 3.95866C7.36944 3.20857 5.34848 3.23994 3.3875 4.03852C2.88076 4.24387 2.38302 4.60037 2.04119 5.00822C1.18364 6.03781 1.47749 7.10732 2.75482 7.95153C1.22861 8.07132 0.197149 6.99609 0.58095 5.62711C0.946761 4.31802 1.94524 3.50233 3.22558 3.01463C5.14459 2.28166 7.12656 2.2018 9.13252 2.68665C9.58529 2.79502 10.0291 2.92622 10.4788 3.04886C11.3694 -0.0170969 14.026 -0.944013 16.6466 1.06383C18.1279 2.19609 19.5072 2.64387 21.3812 2.45563C23.5521 2.23602 25.4801 3.22568 27.3721 4.10982C28.2566 4.52337 29.1082 4.99396 29.9777 5.43032C32.7933 6.83923 35.7318 7.08736 38.7812 6.2346C38.9251 6.19467 39.069 6.15474 39.2309 6.18896C37.4948 7.36116 35.5219 7.40679 33.5009 7.24993C31.4979 7.09306 29.6869 6.42568 27.8878 5.61C26.1787 4.83424 24.3916 4.18968 22.5896 3.63068C21.795 3.3854 20.8744 3.49092 19.9749 3.59075C21.3002 5.1223 23.0213 5.63852 25.0243 5.50447C22.9104 6.17756 21.0993 5.49306 19.4832 4.28379C18.8715 3.82747 18.3138 3.68486 17.7501 4.09271C17.1894 4.50055 16.7576 5.07096 16.2718 5.57007C16.7906 5.82675 17.2823 6.17756 17.837 6.32586C20.1218 6.94761 22.4007 6.81927 24.6795 6.20322L24.6855 6.20608ZM17.7441 2.6239C16.6766 2.05634 15.6302 1.35474 14.4698 0.93834C13.8431 0.713028 12.9286 0.795738 12.3169 1.07239C11.8131 1.30055 11.4593 1.98789 11.2464 2.54119C11.1475 2.79502 11.4413 3.36543 11.7292 3.53941C12.6377 4.087 13.6242 4.53192 14.5987 4.97684C14.7906 5.06526 15.1714 5.07666 15.3003 4.95973C16.0739 4.27239 16.8026 3.53656 17.7471 2.62105L17.7441 2.6239Z" fill="#B29564"/>
<path d="M75.4402 2.84641C76.9574 2.70665 78.4596 2.47849 79.9649 2.45282C81.4521 2.42715 82.8913 2.80933 84.0397 3.75336C84.5615 4.18116 85.0292 4.74587 85.3051 5.3391C85.9588 6.75086 84.9273 8.01147 82.9753 7.94017C84.1537 7.54944 84.5135 6.86209 84.3786 5.96084C84.2466 5.0596 83.6589 4.45496 82.7984 4.09846C80.9124 3.31985 78.9664 3.18865 77.0234 3.84462C75.5841 4.32947 74.1719 4.89703 72.7866 5.50452C71.89 5.8981 70.9395 6.21182 70.5197 7.26994C70.2619 7.91735 69.4823 8.09418 68.6757 7.95157C69.0445 7.67493 69.3653 7.4325 69.6862 7.19293C69.6712 7.10452 69.6532 7.01895 69.6382 6.93054C66.7807 7.21004 63.8662 7.90594 61.2575 6.1719C64.148 6.95336 66.9816 7.02466 69.7821 5.72983C69.4433 4.58616 68.6007 4.08705 67.5693 3.87029C67.2904 3.81325 66.8826 4.05282 66.6128 4.24961C65.2485 5.23928 63.7523 5.84676 61.9982 5.78117C61.7763 5.77261 61.5544 5.69846 61.3235 5.58437C63.1586 5.50166 64.8137 5.07956 66.211 3.61075C64.6638 3.28562 63.3535 3.47956 62.0971 3.97297C60.403 4.64035 58.7269 5.34765 57.0627 6.07778C54.487 7.21289 51.8004 7.59507 49.0089 7.11307C48.2023 6.97332 47.4407 6.5997 46.6971 6.21468C48.838 6.75086 50.9939 7.02181 53.1228 6.43999C54.514 6.05781 55.8244 5.4104 57.1557 4.84854C58.6429 4.22109 60.0941 3.50808 61.5994 2.92056C63.1795 2.30452 64.8437 2.31592 66.5258 2.52983C66.9276 2.58116 67.4283 2.40719 67.7852 2.18758C68.4658 1.77118 69.0355 1.19507 69.7192 0.781521C72.3008 -0.77855 74.8435 0.188295 75.4462 2.84641H75.4402ZM68.3549 2.78651C69.1315 3.48526 69.8751 4.04141 70.4598 4.7202C70.8346 5.15086 71.0865 5.17368 71.5452 4.9284C72.3398 4.50345 73.1344 4.06423 73.977 3.73339C74.9185 3.36263 74.9185 2.72377 74.6576 2.01361C74.3398 1.14088 73.5542 0.852823 72.6546 0.801486C70.8046 0.693108 69.5752 1.73981 68.3549 2.78936V2.78651Z" fill="#B29564"/>
<path d="M55.4346 3.81601C56.3011 1.98499 55.2966 0.604602 53.1468 0.829914C52.3102 0.918328 51.4436 1.28909 50.733 1.73116C49.8005 2.30728 48.9849 3.05451 48.1603 3.77038C44.994 6.53116 40.9491 6.51975 37.8067 3.74756C36.9641 3.00318 36.0676 2.30728 35.1621 1.63134C34.2715 0.966813 33.2341 0.675904 32.0977 0.818506C30.3795 1.03526 29.7199 2.35291 30.6104 3.74756C30.5325 3.79034 30.4515 3.83027 30.3735 3.87305C30.1487 3.49658 29.8128 3.14578 29.7199 2.74364C29.54 1.97359 29.7888 1.26913 30.5205 0.80995C31.9058 -0.0599253 33.408 -0.245308 34.8562 0.553266C35.8427 1.09516 36.6943 1.8595 37.5788 2.55826C38.0466 2.92902 38.4364 3.3825 38.8861 3.77323C41.5128 6.06343 44.5622 6.0292 47.1858 3.73045C48.4032 2.66378 49.6056 1.56289 50.9549 0.658791C52.3402 -0.268125 54.2982 -0.0741855 55.5395 0.866991C56.6369 1.69694 56.586 3.12296 55.4346 3.81031V3.81601Z" fill="#B29564"/>
</g>
<defs>
<clipPath id="clip0_1332_27">
<rect width="85" height="8" fill="white" transform="translate(0.5)"/>
</clipPath>
</defs>
</svg>
