<svg width="21" height="19" viewBox="0 0 21 19" fill="none" xmlns="http://www.w3.org/2000/svg">
<path d="M17.9454 3.16452C17.5056 2.71607 16.9833 2.36034 16.4086 2.11763C15.8338 1.87492 15.2178 1.75 14.5956 1.75C13.9735 1.75 13.3574 1.87492 12.7827 2.11763C12.2079 2.36034 11.6857 2.71607 11.2459 3.16452L10.3331 4.09476L9.42033 3.16452C8.53192 2.25912 7.32699 1.75047 6.07059 1.75047C4.81419 1.75047 3.60926 2.25912 2.72085 3.16452C1.83244 4.06992 1.33334 5.2979 1.33334 6.57833C1.33334 7.85875 1.83244 9.08674 2.72085 9.99214L3.63363 10.9224L10.3331 17.75L17.0326 10.9224L17.9454 9.99214C18.3854 9.54391 18.7345 9.01171 18.9726 8.42596C19.2108 7.8402 19.3333 7.21237 19.3333 6.57833C19.3333 5.94428 19.2108 5.31645 18.9726 4.7307C18.7345 4.14494 18.3854 3.61275 17.9454 3.16452Z" stroke="#AF9262" stroke-width="2" stroke-linecap="round" stroke-linejoin="round"/>
</svg>
