<svg width="20" height="19" viewBox="0 0 20 19" fill="none" xmlns="http://www.w3.org/2000/svg">
<path d="M17.612 3.16452C17.1722 2.71607 16.65 2.36034 16.0752 2.11763C15.5005 1.87492 14.8844 1.75 14.2623 1.75C13.6401 1.75 13.0241 1.87492 12.4493 2.11763C11.8746 2.36034 11.3524 2.71607 10.9126 3.16452L9.99977 4.09476L9.08699 3.16452C8.19858 2.25912 6.99364 1.75047 5.73725 1.75047C4.48085 1.75047 3.27591 2.25912 2.38751 3.16452C1.4991 4.06992 1 5.2979 1 6.57833C1 7.85875 1.4991 9.08674 2.38751 9.99214L3.30029 10.9224L9.99977 17.75L16.6992 10.9224L17.612 9.99214C18.0521 9.54391 18.4011 9.01171 18.6393 8.42596C18.8774 7.8402 19 7.21237 19 6.57833C19 5.94428 18.8774 5.31645 18.6393 4.7307C18.4011 4.14494 18.0521 3.61275 17.612 3.16452Z" fill="#B29564" stroke="#AF9262" stroke-width="2" stroke-linecap="round" stroke-linejoin="round"/>
</svg>
