<svg width="26" height="24" viewBox="0 0 26 24" fill="none" xmlns="http://www.w3.org/2000/svg">
<path fill-rule="evenodd" clip-rule="evenodd" d="M1 1.5C1 1.22386 1.22386 1 1.5 1H6C6.22548 1 6.42306 1.15091 6.48238 1.36844L7.8819 6.5H25C25.1498 6.5 25.2917 6.56716 25.3867 6.68301C25.4816 6.79885 25.5197 6.95117 25.4903 7.09806L23.4903 17.0981C23.4435 17.3318 23.2383 17.5 23 17.5H9.5C9.26166 17.5 9.05645 17.3318 9.00971 17.0981L7.01309 7.11495L5.6181 2H1.5C1.22386 2 1 1.77614 1 1.5ZM8.1099 7.5L9.9099 16.5H22.5901L24.3901 7.5H8.1099Z" fill="#B29564" stroke="#B29564" stroke-linecap="round" stroke-linejoin="round"/>
<path d="M14.5 22C14.5 22.8284 13.8284 23.5 13 23.5C12.1716 23.5 11.5 22.8284 11.5 22C11.5 21.1716 12.1716 20.5 13 20.5C13.8284 20.5 14.5 21.1716 14.5 22Z" fill="#B29564"/>
<path d="M21.5 22C21.5 22.8284 20.8284 23.5 20 23.5C19.1716 23.5 18.5 22.8284 18.5 22C18.5 21.1716 19.1716 20.5 20 20.5C20.8284 20.5 21.5 21.1716 21.5 22Z" fill="#B29564"/>
</svg>
