<svg width="25" height="23" viewBox="0 0 25 23" fill="none" xmlns="http://www.w3.org/2000/svg">
<path d="M12.0876 0.601793C12.2862 0.312007 12.7138 0.312007 12.9124 0.601793L16.8079 6.28571C16.8729 6.38057 16.9686 6.45013 17.0789 6.48265L23.6884 8.431C24.0254 8.53034 24.1575 8.93707 23.9433 9.2155L19.7413 14.6767C19.6712 14.7679 19.6346 14.8804 19.6378 14.9954L19.8273 21.8834C19.8369 22.2346 19.4909 22.486 19.1599 22.3683L12.6675 20.0596C12.5592 20.021 12.4408 20.021 12.3325 20.0596L5.84008 22.3683C5.50907 22.486 5.16308 22.2346 5.17274 21.8834L5.36219 14.9954C5.36535 14.8804 5.32878 14.7679 5.25865 14.6767L1.05668 9.2155C0.842452 8.93707 0.974608 8.53034 1.31158 8.431L7.92106 6.48265C8.03138 6.45013 8.12711 6.38057 8.19212 6.28571L12.0876 0.601793Z" fill="#B29564"/>
</svg>
