<svg width="101" height="162" viewBox="0 0 101 162" fill="none" xmlns="http://www.w3.org/2000/svg">
<g clip-path="url(#clip0_2043_20468)">
<path d="M23.3418 37.3153C23.2278 37.21 23.1139 37.1164 23 37.0112C21.962 36.1455 20.8228 35.6191 19.962 35.3618C19.1012 35.1044 18.5316 35.0811 18.519 35.1278C18.5063 35.1746 19.0506 35.2682 19.8734 35.5723C20.6835 35.8765 21.7721 36.4146 22.7721 37.2451C22.8861 37.3387 23 37.4323 23.1012 37.5375C24.519 38.7892 25.4937 40.4385 26.0759 42.1932C26.6582 43.9478 26.8734 45.796 26.8861 47.6326C26.924 45.796 26.7721 43.9361 26.2405 42.1464C25.7088 40.3801 24.7721 38.6605 23.3418 37.3153ZM26.6076 41.3627C26.0633 39.1401 25.0886 36.9995 23.6076 35.3267C23.4936 35.198 23.3671 35.0694 23.2531 34.9524C22.1772 33.8762 20.9873 33.2211 20.0886 32.8936C19.1899 32.5661 18.5949 32.5427 18.5949 32.6012C18.5823 32.6597 19.1519 32.7766 20 33.1626C20.8481 33.537 21.9747 34.2154 23.0126 35.2448C23.1266 35.3618 23.2531 35.4788 23.3544 35.6074C24.8354 37.1632 25.8354 39.2337 26.443 41.4095C27.038 43.5969 27.2658 45.9013 27.2785 48.1941C27.3291 45.913 27.1645 43.5969 26.6076 41.3627ZM19.8354 34.3558C22.6329 35.4437 24.7721 37.7364 25.8481 40.3684C25.3291 39.0465 24.5823 37.7832 23.5696 36.7187C22.5696 35.6425 21.3164 34.7769 19.924 34.1686C19.8101 34.1218 19.7088 34.0751 19.5949 34.04C17.6329 33.2796 15.8734 33.303 15.8861 33.3732C15.8734 33.42 17.5949 33.4902 19.5063 34.2388C19.6202 34.2622 19.7342 34.309 19.8354 34.3558Z" fill="white"/>
<path d="M73.6328 42.2283C73.1011 44.018 72.9492 45.878 72.9872 47.7145C72.9999 45.878 73.2151 44.0297 73.7973 42.2751C74.367 40.5322 75.3417 38.8711 76.772 37.6195C76.8733 37.5259 76.9872 37.4206 77.1011 37.327C78.1011 36.4965 79.1771 35.9584 79.9999 35.6543C80.8227 35.3501 81.3543 35.2565 81.3543 35.2098C81.3543 35.163 80.7847 35.1864 79.9113 35.4437C79.0505 35.701 77.8986 36.2274 76.8733 37.0931C76.7594 37.1983 76.6328 37.2919 76.5315 37.3972C75.0885 38.7307 74.1644 40.4503 73.6328 42.2283ZM72.5822 48.276C72.5948 45.9832 72.8227 43.6788 73.4176 41.4914C74.0125 39.3156 75.0252 37.2451 76.5062 35.6894C76.6201 35.5607 76.7341 35.4437 76.848 35.3267C77.886 34.2856 79.0125 33.6189 79.8606 33.2446C80.7087 32.8585 81.2784 32.7416 81.2657 32.6831C81.2657 32.6246 80.6708 32.648 79.772 32.9755C78.8733 33.2913 77.6834 33.9581 76.6075 35.0343C76.4809 35.163 76.367 35.2799 76.253 35.4086C74.7594 37.0697 73.7973 39.222 73.253 41.4446C72.6961 43.6671 72.5442 45.9832 72.5822 48.276ZM80.3543 34.2973C82.2657 33.5487 83.9872 33.4785 83.9746 33.4317C83.9872 33.3615 82.2277 33.3381 80.2657 34.0985C80.1518 34.1453 80.0379 34.1804 79.9366 34.2272C78.5442 34.8237 77.291 35.7011 76.291 36.7772C75.291 37.8534 74.5442 39.1051 74.0125 40.4269C75.0885 37.7949 77.2277 35.5139 80.0252 34.4143C80.1265 34.3909 80.2404 34.3441 80.3543 34.2973Z" fill="white"/>
<path d="M76.4051 118.111C76.519 118.216 76.6456 118.321 76.7722 118.438C77.8735 119.362 79.1013 119.924 80.0254 120.205C80.9494 120.485 81.557 120.497 81.557 120.45C81.5697 120.403 80.9874 120.298 80.114 119.971C79.2406 119.643 78.0887 119.07 77.0127 118.181C76.8861 118.076 76.7722 117.982 76.6583 117.865C75.1393 116.531 74.1013 114.753 73.4811 112.894C72.8608 111.022 72.633 109.045 72.6203 107.068C72.5697 109.033 72.7469 111.022 73.3038 112.94C73.8735 114.847 74.8735 116.684 76.4051 118.111ZM72.8988 113.794C73.4811 116.169 74.519 118.462 76.114 120.251C76.2406 120.392 76.3671 120.52 76.4937 120.649C77.6456 121.795 78.9241 122.497 79.8735 122.848C80.8355 123.199 81.4684 123.223 81.4684 123.164C81.4811 123.106 80.8735 122.977 79.9621 122.567C79.0507 122.158 77.8482 121.444 76.7469 120.333C76.6203 120.205 76.4937 120.076 76.3798 119.947C74.7975 118.274 73.7216 116.075 73.076 113.736C72.4304 111.396 72.1899 108.928 72.1773 106.472C72.1393 108.928 72.3165 111.408 72.8988 113.794ZM80.1519 121.281C77.1519 120.111 74.8735 117.666 73.7216 114.859C74.2785 116.274 75.076 117.619 76.1519 118.766C77.2279 119.912 78.5697 120.848 80.0507 121.491C80.1646 121.538 80.2785 121.585 80.4051 121.632C82.4937 122.45 84.3798 122.415 84.3671 122.345C84.3798 122.298 82.5444 122.217 80.4937 121.421C80.3798 121.374 80.2659 121.339 80.1519 121.281Z" fill="white"/>
<path d="M25.962 113.233C26.5317 111.314 26.6962 109.326 26.6456 107.36C26.6329 109.326 26.3924 111.303 25.7848 113.186C25.1646 115.058 24.1266 116.824 22.6076 118.157C22.4937 118.263 22.3671 118.368 22.2532 118.473C21.1899 119.362 20.0253 119.935 19.1519 120.263C18.2785 120.59 17.6962 120.696 17.7089 120.743C17.7089 120.789 18.3291 120.778 19.2405 120.497C20.1646 120.216 21.3924 119.655 22.4937 118.731C22.6203 118.625 22.7468 118.52 22.8608 118.403C24.3924 116.976 25.3924 115.139 25.962 113.233ZM27.076 106.764C27.0633 109.22 26.8228 111.689 26.1772 114.028C25.5317 116.356 24.4557 118.567 22.8734 120.24C22.7595 120.368 22.6329 120.497 22.5063 120.626C21.4051 121.737 20.1899 122.45 19.2912 122.86C18.3798 123.269 17.7848 123.398 17.7848 123.456C17.7848 123.515 18.4177 123.491 19.3798 123.141C20.3291 122.801 21.6076 122.088 22.7595 120.941C22.8861 120.813 23.0253 120.672 23.1393 120.544C24.7342 118.766 25.7722 116.473 26.3544 114.087C26.9494 111.7 27.1266 109.22 27.076 106.764ZM18.7722 121.713C16.7215 122.509 14.8861 122.579 14.8987 122.638C14.8861 122.708 16.7722 122.731 18.8608 121.924C18.9874 121.877 19.1013 121.83 19.2152 121.784C20.7089 121.14 22.0506 120.204 23.1139 119.058C24.1899 117.912 24.9874 116.567 25.5443 115.151C24.3924 117.97 22.1013 120.415 19.1139 121.573C19.0127 121.62 18.8861 121.667 18.7722 121.713Z" fill="white"/>
<path d="M66.7215 87.9074L63.557 85.5913C63.4051 85.7434 63.2405 85.989 63.1266 86.1177C62.0633 87.3225 62.1266 87.3927 60.5063 87.4044C59.7342 87.4161 58.3798 87.3459 57.5696 87.3459L58.7722 84.3864L56.8481 84.2227C56.3544 84.1759 55.8481 84.1291 55.3291 84.094C55.3291 85.2053 55.3291 86.258 55.3291 87.3108C52.5063 87.3108 49.7595 87.3108 47 87.3108L48.2532 84.4098L46.2532 84.2344C45.7595 84.1876 45.2785 84.1525 44.7722 84.1057C44.7722 85.217 44.7722 86.2697 44.7722 87.3693C41.8987 87.3693 39.076 87.3693 36.2532 87.3693C36.7342 88.0829 36.3038 87.9893 37.2658 87.9893C39.557 88.001 41.6836 87.9425 43.962 87.9425C44.1772 87.9425 44.481 87.9776 44.7215 87.9776C44.7215 88.9485 44.7848 90.1066 44.7848 91.136C45.4051 91.0307 45.9367 90.9488 46.4684 90.8435C46.8355 90.7733 47 90.5628 46.9747 90.2118C46.9494 89.5685 46.9367 88.6678 46.9367 87.9893C49.7468 87.9893 52.6076 87.9542 55.4177 87.9542C55.4177 88.8666 55.3418 90.0364 55.3418 91.0424C55.9874 90.9254 56.557 90.8435 57.1139 90.7265C57.443 90.6563 57.557 90.4575 57.5443 90.1533C57.519 89.5334 57.557 88.6327 57.557 87.9542C57.8481 87.9542 58.3798 87.9542 58.5949 87.9542C60.2025 87.9542 60.2911 87.9191 61.8987 87.9191L63.1646 87.884L66.7215 87.9074Z" fill="white"/>
<path d="M60.443 101.734C60.1645 101.98 59.8734 102.179 59.6582 102.436C59.329 102.834 58.8987 102.915 58.3417 102.915C54.7088 102.892 51.0885 102.904 47.4556 102.904C51.2911 100.915 53.9113 98.9734 57.5949 95.2769C57.6708 95.1951 57.7974 95.1717 57.9366 95.16H59.8607C58.8734 94.4347 57.7088 93.7446 56.8227 93.0895C56.4556 93.3702 56.1265 93.6627 55.7594 93.8849C55.5316 94.0253 55.0252 94.1657 54.7468 94.1657C52.1139 94.1891 49.9113 94.154 47.2784 94.154C47.1392 94.154 46.7214 94.154 46.5063 94.1306C47.5316 92.3876 49.3417 92.2824 49.3544 92.2824C48.3164 92.0952 47.2658 91.9197 46.2278 91.7092C45.8607 91.639 45.6708 91.7092 45.4809 91.9782C44.3037 93.5808 42.8227 94.9728 41.2025 96.2713C39.1392 97.9206 36.8733 99.3594 34.367 100.517C34.5316 100.927 36.0126 100.517 36.405 100.33C38.5569 99.3477 39.3164 99.067 41.2025 97.9908C41.3544 97.9089 41.6708 97.8504 41.7974 97.9206C43.2531 98.6693 44.6075 99.5349 45.5695 100.728C45.9113 101.149 46.2657 101.43 47.0759 101.395C46.329 101.816 46.2025 101.933 45.3797 102.307C44.6961 102.623 44.1012 102.717 43.5442 102.705L42.962 102.658C42.7847 102.635 42.6708 102.611 42.5695 102.588C42.5695 102.787 42.5822 103.126 42.5822 103.301V103.383C42.5822 103.898 42.4177 103.886 41.8733 104.085C39.7974 104.857 37.7468 105.664 35.6708 106.425C34.6582 106.799 33.5949 107.092 32.5569 107.419C32.8354 107.934 35.924 107.068 36.4936 106.893C38.7468 106.249 37.9113 106.472 40.1645 105.816C40.5316 105.7 41.405 105.43 42.5569 105.009C42.5569 106.659 42.5569 108.285 42.5569 109.934C42.5569 110.776 42.5569 111.63 42.5569 112.496C43.1645 112.391 42.8987 112.472 43.4176 112.355C43.8987 112.25 44.2278 112.11 44.2278 111.466C44.2278 111.151 44.2278 110.507 44.2278 110.191C48.9999 110.191 54.2911 110.203 59.0126 110.203V112.484L60.4683 112.11C60.6582 112.063 60.848 112.028 61.0379 111.981V104.834C61.6835 104.389 62.6075 103.582 62.9746 103.29C61.886 102.635 61.4177 102.342 60.443 101.734ZM46.2151 98.5523C45.1771 97.9674 44.0126 97.6399 42.8101 97.4059C42.6835 97.3825 42.5569 97.3474 42.3544 97.3123L45.8733 95.0898L46.4683 95.0781H49.0506C50.962 95.0781 52.8987 95.0781 54.8987 95.0781C52.8101 97.3474 50.4683 99.2424 47.7341 100.974C47.9366 99.7805 47.2025 99.1138 46.2151 98.5523ZM44.1771 109.501C44.1771 107.676 44.2278 105.618 44.2278 103.816C44.4683 103.816 45.2784 103.84 45.5695 103.816C50.0632 103.816 54.5189 103.816 59.0126 103.816V109.501C54.3417 109.501 48.9113 109.501 44.1771 109.501Z" fill="white"/>
<path d="M60.4431 49.3287C61.9367 49.3404 65.8861 49.3872 67.3798 49.3872L66.3038 48.5333C66.1519 48.4631 66.0633 48.2876 65.6203 48.2876C64.5317 48.2759 65 48.311 63.7089 48.2993C63.4684 48.2993 62.5443 48.2876 62.3924 48.2876H62.038L61.2152 48.2642C61.1772 48.2642 61.1519 48.2642 61.1139 48.2642C59.9241 48.2642 60.1393 47.4922 60.2279 47.3518C60.8608 46.3107 61.1013 45.5738 61.8734 45.41L59.4304 44.2988C59.7848 44.9538 59.7089 45.1878 59.5317 45.761C58.7342 48.2876 58.1646 48.2876 56.1013 48.2876C55.1899 48.2876 54.6456 48.2642 53.7215 48.2642C53.7848 48.1473 54.038 47.7378 54.1013 47.5741C54.6329 46.3224 55.0506 45.4685 55.5823 44.2169L55.9494 43.2577C54.9494 42.8599 53.6836 42.2985 51.9114 41.4913C54.0886 45.3281 53.4177 46.299 53.2785 46.65C52.9874 47.3401 52.5696 47.8665 51.9114 48.5801C51.4937 49.0246 50.6076 50.1008 47.3418 51.6565V50.9781C47.3418 49.0948 47.3418 47.2115 47.3291 45.3398C47.3291 45.0591 47.4051 44.9304 47.7089 44.8953H47.7215C47.8228 44.8836 48.2025 44.8836 48.3544 44.8953H51.3418C51.557 44.8719 52.2025 44.9421 52.4177 44.6731C52.6582 44.3689 51.7848 43.8659 51.7089 43.8192C50.8861 43.2577 51.3671 43.5969 50.4937 43.0471C50.1139 43.3863 50.2532 43.2811 49.6962 43.6203C48.9114 44.1116 48.2152 44.0531 47.6582 44.0531C44.3291 44.0297 40.9874 44.0414 37.6582 44.0414C37.6329 44.0414 37.6203 44.0414 37.6076 44.0414C37.6076 44.0414 38.5063 44.9304 40.4177 44.9187C42.7089 44.907 42.7089 44.907 44.9874 44.8953C45.519 44.8953 45.6582 45.024 45.6456 45.3983C45.6203 47.422 45.557 46.5447 45.3671 49.434C45.3671 49.5042 45.2912 50.1593 45.2279 50.7675C45.2279 50.7675 45.1139 51.4694 44.2532 51.4694H38.7342C38.038 51.446 38.1013 50.8962 38.1393 50.7207C38.1393 50.709 38.1393 50.709 38.1519 50.6973C38.1519 50.6856 38.1519 50.6739 38.1646 50.6622C38.2658 50.2996 38.3544 49.937 38.3671 49.9136C38.7468 48.5801 38.6329 48.8725 39 47.539C39.076 47.2582 39.1013 46.8254 39.4684 46.7202C40.1519 46.5213 39.519 46.6851 40.1139 46.533L40.6582 46.4277C40.1393 46.3692 40.2658 46.3692 39.7089 46.299C38.2785 46.1119 38.0127 46.5915 37.9114 46.9541C37.4684 48.5567 37.0506 49.9955 36.6203 51.4928C36.4557 52.0426 36.2912 52.604 36.1266 53.1889C36.1013 53.2825 36.076 53.3644 36.0506 53.458C36.0127 53.5866 35.9747 53.727 35.9367 53.8557C35.9114 53.9376 35.2658 55.6688 35.1646 55.973C36.1772 55.8326 36.9367 54.2183 37.5063 53.3761C37.8734 52.8497 38.3418 52.7561 38.6203 52.7561H38.6329H38.6456H44.2152C44.4177 52.7795 44.6582 52.7795 44.6329 52.9199C42.5063 56.8503 39.519 60.3245 35.5443 63.2723C35.5317 63.284 35.519 63.284 35.5063 63.2957L33.6709 64.4303C33.6709 64.4303 33.6836 64.4303 33.6962 64.442H33.7089C33.7089 64.442 33.7215 64.442 33.7215 64.4537C34.0253 64.559 36.8101 64.0677 38.8101 62.5353C40.6456 61.1316 43.2785 58.757 45.9114 53.1772L45.8608 58.3242L45.8481 62.5821L45.8355 64.6643L45.7848 70.8055L46.5949 69.9399C47.5317 68.9105 47.3418 67.6355 47.3418 66.3136L47.3544 64.6526H47.3418V62.8043V58.9207C47.3418 55.7975 47.3418 56.5461 47.3418 53.4112C47.3418 53.3059 47.3165 53.1889 47.3418 53.0836V51.6799C47.6456 51.6098 49.4557 51.1886 52.0127 49.7966V51.9256C52.0127 54.3821 52.0127 56.8386 52.0127 59.2834C52.0127 60.535 51.9874 62.2429 51.9494 64.2432L51.8987 70.3961L52.7089 69.5305C53.6456 68.5011 53.4557 67.9864 53.4557 66.6763V66.4072H53.4684C53.4684 66.3955 53.481 65.9744 53.481 65.834C53.5823 65.5533 54.0127 65.5065 54.3544 65.4948L65.519 65.4012L65.2279 64.9801C65.076 64.8631 64.8608 64.5005 64.6582 64.4771C64.481 64.4537 64.519 64.4771 64.076 64.4654H63.2025C62.2785 64.4771 61.8861 64.4654 61.1013 64.4654C59.9874 64.4537 60.1139 64.3016 60.0253 64.056V60.4765C60.0253 60.1256 60.5949 60.1139 60.7975 60.1139C61.7848 60.1139 64.3798 60.1139 65.3671 60.1139L64.8481 59.6109C64.6456 59.412 64.3291 59.2834 64.0127 59.2834L62.5949 59.2717H61.9874C61.8228 59.2717 61.6076 59.2717 61.3291 59.2717C60.4431 59.2834 60.038 59.2834 60.0506 58.254L60.0253 55.0371C60.0506 54.4055 60.4684 54.4757 60.6582 54.4757C61.8734 54.4757 65.1519 54.4289 66.3671 54.4289L65.4684 53.5866C65.2912 53.4229 65.0253 53.3176 64.7595 53.3176H64.3165H60.7089C59.8608 53.3176 60 53.2006 59.9874 52.4871C59.9494 50.4166 59.962 51.6214 59.9494 50.4166C59.9241 49.8083 60.0127 49.3287 60.4431 49.3287ZM58.443 63.9975C58.3671 64.325 58 64.4537 57.6709 64.4537C57.3291 64.4537 57.038 64.4537 56.3671 64.4537C55.8987 64.4537 54.9241 64.442 54.4557 64.4537C54.2025 64.4537 53.6582 64.4537 53.519 64.0443C53.519 62.9447 53.5317 62.161 53.5317 60.8742C53.5317 60.1139 53.6836 60.1256 54.4051 60.1139C55.9494 60.1139 56.5317 60.1139 57.8987 60.1139C58.1899 60.1139 58.443 60.3128 58.443 60.5584V63.8103V63.9975ZM58.4051 58.64C58.4051 59.0611 58.0253 59.2717 57.5063 59.2717C56.9367 59.2717 56.3924 59.2717 55.8355 59.2717C55.2785 59.2717 54.7342 59.2717 54.1772 59.2717C53.8101 59.2717 53.519 59.0377 53.519 58.7453C53.519 57.4235 53.519 56.3356 53.5317 55.0138C53.5317 54.9085 53.4937 54.4757 54.1899 54.4757C55.4684 54.4757 56.3671 54.464 57.6709 54.464C58.2912 54.464 58.443 54.7447 58.443 55.1073L58.4051 58.64ZM58.519 50.3347C58.519 51.6331 58.519 51.3173 58.519 52.6625C58.519 53.2123 58.3924 53.2942 57.6582 53.2942H54.1519C53.481 53.2942 53.5063 52.5923 53.519 52.218C53.557 50.9547 53.5317 51.6214 53.5317 50.2996C53.5317 50.0657 53.4684 49.2468 54 49.2468C56.6709 49.2468 56.6456 49.2468 58 49.2468C58.5696 49.2702 58.519 49.7966 58.519 50.3347Z" fill="white"/>
<path d="M66.8988 135.271C64.1899 135.447 61.4684 135.54 58.7595 135.61C56.0507 135.68 53.3291 135.68 50.6203 135.716C47.9114 135.68 45.1899 135.68 42.481 135.61C39.7722 135.54 37.0507 135.458 34.3418 135.271C37.0507 135.084 39.7722 135.002 42.481 134.932C45.1899 134.862 47.9114 134.862 50.6203 134.827C53.3291 134.862 56.0507 134.862 58.7595 134.932C61.4684 135.002 64.1772 135.084 66.8988 135.271Z" fill="white"/>
<path d="M66.7974 137.926C64.0886 138.102 61.3671 138.195 58.6582 138.266C55.9493 138.336 53.2278 138.336 50.519 138.371C47.8101 138.336 45.0886 138.336 42.3797 138.266C39.6709 138.195 36.9493 138.113 34.2405 137.926C36.9493 137.739 39.6709 137.657 42.3797 137.587C45.0886 137.517 47.8101 137.517 50.519 137.482C53.2278 137.517 55.9493 137.517 58.6582 137.587C61.3671 137.657 64.0759 137.739 66.7974 137.926Z" fill="white"/>
<path d="M66.7974 141.014C64.0886 141.19 61.3671 141.283 58.6582 141.354C55.9493 141.424 53.2278 141.424 50.519 141.459C47.8101 141.424 45.0886 141.424 42.3797 141.354C39.6709 141.283 36.9493 141.202 34.2405 141.014C36.9493 140.827 39.6709 140.745 42.3797 140.675C45.0886 140.605 47.8101 140.605 50.519 140.57C53.2278 140.605 55.9493 140.605 58.6582 140.675C61.3671 140.745 64.0759 140.827 66.7974 141.014Z" fill="white"/>
<path d="M66.7974 144.103C64.0886 144.278 61.3671 144.372 58.6582 144.442C55.9493 144.512 53.2278 144.512 50.519 144.547C47.8101 144.512 45.0886 144.512 42.3797 144.442C39.6709 144.372 36.9493 144.29 34.2405 144.103C36.9493 143.916 39.6709 143.834 42.3797 143.763C45.0886 143.693 47.8101 143.693 50.519 143.658C53.2278 143.693 55.9493 143.693 58.6582 143.763C61.3671 143.834 64.0759 143.927 66.7974 144.103Z" fill="white"/>
<path d="M62.2279 146.945C60.1899 147.121 58.152 147.214 56.114 147.284C54.076 147.366 52.038 147.378 50.0001 147.39C47.9621 147.378 45.9241 147.366 43.8861 147.284C41.8482 147.214 39.8102 147.132 37.7722 146.945C39.8102 146.758 41.8482 146.676 43.8861 146.606C45.9241 146.524 47.9621 146.512 50.0001 146.501C52.038 146.512 54.076 146.524 56.114 146.606C58.152 146.676 60.1899 146.77 62.2279 146.945Z" fill="white"/>
<path d="M61.1646 150.033C59.3924 150.209 57.6076 150.302 55.8355 150.373C54.0633 150.454 52.2785 150.466 50.5064 150.478C48.7342 150.466 46.9494 150.454 45.1773 150.373C43.4051 150.302 41.6203 150.221 39.8481 150.033C41.6203 149.846 43.4051 149.764 45.1773 149.694C46.9494 149.612 48.7342 149.601 50.5064 149.589C52.2785 149.601 54.0633 149.612 55.8355 149.694C57.6076 149.776 59.3924 149.858 61.1646 150.033Z" fill="white"/>
<path d="M58.5949 152.689C55.924 153.028 53.2531 153.11 50.5822 153.121C47.9114 153.11 45.2405 153.028 42.5696 152.689C45.2405 152.338 47.9114 152.268 50.5822 152.256C53.2531 152.268 55.924 152.349 58.5949 152.689Z" fill="white"/>
<path d="M55.6836 155.145C53.9621 155.367 52.2406 155.426 50.519 155.438C48.7975 155.426 47.076 155.379 45.3545 155.145C47.076 154.911 48.7975 154.864 50.519 154.853C52.2406 154.864 53.9621 154.923 55.6836 155.145Z" fill="white"/>
<path d="M61.5317 28.1912C61.7216 28.2847 61.9115 28.39 62.0888 28.4953Z" fill="black"/>
<path d="M65.266 13.7096C65.1014 13.499 64.9368 13.3119 64.7722 13.1013Z" fill="black"/>
<path d="M36.8613 126.603L36.051 129.785L36.5321 131.364L35.7472 131.575L35.2661 130.007L32.7974 127.679L33.6962 127.445L35.2787 129.013C35.2787 129.013 35.3547 129.106 35.494 129.282H35.5066C35.5066 129.177 35.5193 129.071 35.5446 128.954L36.0384 126.837L36.8613 126.603Z" fill="white"/>
<path d="M38.7468 127.749C39.076 127.492 39.4938 127.317 39.9875 127.211C40.9117 127.036 41.4687 127.352 41.6587 128.171L42.1018 130.159L41.3421 130.3L41.2409 129.82H41.2282C41.0636 130.229 40.7218 130.487 40.2281 130.58C39.8609 130.65 39.5697 130.615 39.3165 130.487C39.076 130.358 38.9241 130.159 38.8608 129.878C38.7342 129.282 39.0633 128.861 39.8609 128.603L40.899 128.276C40.7978 127.808 40.5066 127.621 40.0255 127.714C39.5824 127.796 39.2026 127.995 38.8861 128.311L38.7468 127.749ZM40.2027 129.001C39.9369 129.083 39.7723 129.177 39.6837 129.282C39.5951 129.387 39.5697 129.527 39.6077 129.691C39.633 129.832 39.7217 129.937 39.8609 129.995C40.0002 130.066 40.1648 130.077 40.342 130.042C40.6079 129.995 40.7978 129.867 40.937 129.68C41.0763 129.492 41.1143 129.27 41.0636 129.036L41.0003 128.755L40.2027 129.001Z" fill="white"/>
<path d="M52.3038 129.258L52.1772 126.357C52.1645 126.1 52.1645 125.808 52.1899 125.457H52.1645C52.1139 125.714 52.0633 125.878 52.0253 125.948L50.5696 129.317L50.038 129.34L48.2911 126.123C48.2532 126.042 48.1899 125.866 48.1139 125.609H48.0886C48.1266 125.878 48.1519 126.205 48.1645 126.591L48.2911 129.41L47.5316 129.434L47.3291 124.942L48.4683 124.895L50.0253 127.808C50.1519 128.042 50.2278 128.229 50.2658 128.381H50.2911C50.3291 128.252 50.4051 128.065 50.5063 127.784L51.8228 124.767L52.9114 124.72L53.1139 129.212L52.3038 129.258Z" fill="white"/>
<path d="M55.5947 129.352L55.772 126.147L56.5696 126.182L56.3797 129.387L55.5947 129.352ZM55.7593 125.036C55.7593 124.919 55.8226 124.825 55.9112 124.755C56.0125 124.685 56.1265 124.65 56.2657 124.661C56.405 124.673 56.5189 124.708 56.6075 124.79C56.6962 124.872 56.7341 124.965 56.7341 125.082C56.7341 125.199 56.6708 125.293 56.5696 125.363C56.4683 125.433 56.3543 125.468 56.2151 125.457C56.0758 125.457 55.9619 125.41 55.8733 125.328C55.7973 125.246 55.7466 125.153 55.7593 125.036Z" fill="white"/>
<path d="M62.1017 129.937L61.3168 129.843L61.5573 128.042C61.646 127.434 61.4181 127.094 60.899 127.036C60.6331 127.001 60.4053 127.071 60.2154 127.211C60.0255 127.363 59.8989 127.562 59.8735 127.831L59.6203 129.644L58.8228 129.551L59.2532 126.369L60.0508 126.463L59.9748 126.989H59.9875C60.3166 126.626 60.7471 126.474 61.2788 126.533C62.1144 126.626 62.4689 127.118 62.3549 127.995L62.1017 129.937Z" fill="white"/>
<path d="M67.7473 130.674C67.4687 131.844 66.6458 132.3 65.2659 132.019C64.7975 131.925 64.4176 131.773 64.1265 131.575L64.2657 130.966C64.6202 131.235 64.9874 131.411 65.3672 131.493C66.2407 131.668 66.7598 131.376 66.937 130.615L67.013 130.299H67.0003C66.6458 130.627 66.1901 130.744 65.6457 130.627C65.1899 130.533 64.8481 130.323 64.6329 129.984C64.4176 129.644 64.367 129.247 64.4809 128.779C64.6075 128.252 64.8608 127.855 65.2406 127.609C65.6204 127.352 66.0635 127.282 66.5699 127.387C67.051 127.48 67.3675 127.714 67.5194 128.089H67.532L67.6333 127.679L68.4182 127.843L67.7473 130.674ZM67.3421 128.966C67.3928 128.732 67.3548 128.521 67.2155 128.323C67.0763 128.124 66.8737 127.995 66.6078 127.948C66.2913 127.878 66.0128 127.937 65.7723 128.1C65.5444 128.276 65.3798 128.533 65.2912 128.907C65.2152 129.223 65.2406 129.492 65.3798 129.726C65.5064 129.949 65.7216 130.089 66.0128 130.159C66.304 130.218 66.5699 130.171 66.7977 130.019C67.0256 129.867 67.1776 129.656 67.2409 129.364L67.3421 128.966Z" fill="white"/>
<path d="M52.2829 9.08366L50.6985 7.61951L49.1141 9.08366L50.6985 10.5478L52.2829 9.08366Z" fill="white"/>
<path d="M52.3959 77.4515L50.8115 75.9873L49.2271 77.4515L50.8115 78.9156L52.3959 77.4515Z" fill="white"/>
<path d="M8.22653 42.7571L9.21118 41.8472L8.22653 40.9372L7.24189 41.8472L8.22653 42.7571Z" fill="white"/>
<path d="M8.54438 43.5151H7.91138V44.1936H8.54438V43.5151Z" fill="white"/>
<path d="M8.22385 46.7866L9.2085 45.8767L8.22385 44.9668L7.2392 45.8767L8.22385 46.7866Z" fill="white"/>
<path d="M8.54438 47.5508H7.91138V48.2292H8.54438V47.5508Z" fill="white"/>
<path d="M8.22116 50.8162L9.20581 49.9062L8.22116 48.9963L7.23651 49.9062L8.22116 50.8162Z" fill="white"/>
<path d="M8.54438 51.5864H7.91138V52.2649H8.54438V51.5864Z" fill="white"/>
<path d="M8.22727 54.8539L9.21191 53.944L8.22727 53.034L7.24262 53.944L8.22727 54.8539Z" fill="white"/>
<path d="M8.54438 55.6104H7.91138V56.2888H8.54438V55.6104Z" fill="white"/>
<path d="M8.22458 58.8833L9.20923 57.9734L8.22458 57.0635L7.23993 57.9734L8.22458 58.8833Z" fill="white"/>
<path d="M8.54438 59.6461H7.91138V60.3246H8.54438V59.6461Z" fill="white"/>
<path d="M8.22165 62.9129L9.2063 62.0029L8.22165 61.093L7.237 62.0029L8.22165 62.9129Z" fill="white"/>
<path d="M8.54438 63.6818H7.91138V64.3602H8.54438V63.6818Z" fill="white"/>
<path d="M8.22775 66.9507L9.2124 66.0408L8.22776 65.1308L7.24311 66.0408L8.22775 66.9507Z" fill="white"/>
<path d="M8.54438 67.7057H7.91138V68.3841H8.54438V67.7057Z" fill="white"/>
<path d="M8.22531 70.9801L9.20996 70.0702L8.22531 69.1603L7.24066 70.0702L8.22531 70.9801Z" fill="white"/>
<path d="M8.54438 71.7413H7.91138V72.4198H8.54438V71.7413Z" fill="white"/>
<path d="M8.22238 75.0097L9.20703 74.0997L8.22238 73.1898L7.23773 74.0997L8.22238 75.0097Z" fill="white"/>
<path d="M8.54438 75.7771H7.91138V76.4556H8.54438V75.7771Z" fill="white"/>
<path d="M8.22873 79.0474L9.21338 78.1375L8.22873 77.2275L7.24408 78.1375L8.22873 79.0474Z" fill="white"/>
<path d="M8.54438 79.8127H7.91138V80.4912H8.54438V79.8127Z" fill="white"/>
<path d="M8.22678 83.64L9.21143 82.7301L8.22678 81.8202L7.24213 82.7301L8.22678 83.64Z" fill="white"/>
<path d="M8.54463 84.3982H7.91162V85.0767H8.54463V84.3982Z" fill="white"/>
<path d="M8.22409 87.6696L9.20874 86.7596L8.22409 85.8497L7.23944 86.7596L8.22409 87.6696Z" fill="white"/>
<path d="M8.54463 88.4338H7.91162V89.1123H8.54463V88.4338Z" fill="white"/>
<path d="M8.22141 91.699L9.20605 90.7891L8.22141 89.8791L7.23676 90.7891L8.22141 91.699Z" fill="white"/>
<path d="M8.54463 92.4696H7.91162V93.1481H8.54463V92.4696Z" fill="white"/>
<path d="M8.22751 95.7368L9.21216 94.8269L8.22751 93.917L7.24286 94.8269L8.22751 95.7368Z" fill="white"/>
<path d="M8.54463 96.4935H7.91162V97.172H8.54463V96.4935Z" fill="white"/>
<path d="M8.22482 99.7662L9.20947 98.8563L8.22483 97.9464L7.24018 98.8563L8.22482 99.7662Z" fill="white"/>
<path d="M8.54463 100.529H7.91162V101.208H8.54463V100.529Z" fill="white"/>
<path d="M8.22189 103.796L9.20654 102.886L8.2219 101.976L7.23725 102.886L8.22189 103.796Z" fill="white"/>
<path d="M8.54463 104.565H7.91162V105.243H8.54463V104.565Z" fill="white"/>
<path d="M8.228 107.834L9.21265 106.924L8.228 106.014L7.24335 106.924L8.228 107.834Z" fill="white"/>
<path d="M8.54463 108.589H7.91162V109.267H8.54463V108.589Z" fill="white"/>
<path d="M8.22556 111.863L9.21021 110.953L8.22556 110.043L7.24091 110.953L8.22556 111.863Z" fill="white"/>
<path d="M8.54463 112.625H7.91162V113.303H8.54463V112.625Z" fill="white"/>
<path d="M8.22263 115.892L9.20728 114.983L8.22263 114.073L7.23798 114.983L8.22263 115.892Z" fill="white"/>
<path d="M8.54463 116.66H7.91162V117.339H8.54463V116.66Z" fill="white"/>
<path d="M8.22873 119.93L9.21338 119.02L8.22873 118.11L7.24408 119.02L8.22873 119.93Z" fill="white"/>
<path d="M8.54463 120.696H7.91162V121.374H8.54463V120.696Z" fill="white"/>
<path d="M93.4062 42.6025L94.3909 41.6926L93.4062 40.7827L92.4216 41.6926L93.4062 42.6025Z" fill="white"/>
<path d="M93.7216 43.3629H93.0886V44.0414H93.7216V43.3629Z" fill="white"/>
<path d="M93.4035 46.632L94.3882 45.722L93.4035 44.8121L92.4189 45.722L93.4035 46.632Z" fill="white"/>
<path d="M93.7216 47.3986H93.0886V48.077H93.7216V47.3986Z" fill="white"/>
<path d="M93.4096 50.6698L94.3943 49.7599L93.4096 48.85L92.425 49.7599L93.4096 50.6698Z" fill="white"/>
<path d="M93.7216 51.4226H93.0886V52.1011H93.7216V51.4226Z" fill="white"/>
<path d="M93.407 54.6994L94.3916 53.7894L93.407 52.8795L92.4223 53.7894L93.407 54.6994Z" fill="white"/>
<path d="M93.7216 55.4583H93.0886V56.1367H93.7216V55.4583Z" fill="white"/>
<path d="M93.404 58.7288L94.3887 57.8188L93.404 56.9089L92.4194 57.8188L93.404 58.7288Z" fill="white"/>
<path d="M93.7216 59.4939H93.0886V60.1724H93.7216V59.4939Z" fill="white"/>
<path d="M93.4101 62.7665L94.3948 61.8566L93.4101 60.9466L92.4255 61.8566L93.4101 62.7665Z" fill="white"/>
<path d="M93.7216 63.5295H93.0886V64.208H93.7216V63.5295Z" fill="white"/>
<path d="M93.4077 66.796L94.3923 65.8861L93.4077 64.9762L92.423 65.8861L93.4077 66.796Z" fill="white"/>
<path d="M93.7216 67.5536H93.0886V68.2321H93.7216V67.5536Z" fill="white"/>
<path d="M93.4048 70.8254L94.3894 69.9155L93.4048 69.0056L92.4201 69.9155L93.4048 70.8254Z" fill="white"/>
<path d="M93.7216 71.5892H93.0886V72.2677H93.7216V71.5892Z" fill="white"/>
<path d="M93.4111 74.8632L94.3958 73.9532L93.4111 73.0433L92.4265 73.9532L93.4111 74.8632Z" fill="white"/>
<path d="M93.7216 75.6249H93.0886V76.3033H93.7216V75.6249Z" fill="white"/>
<path d="M93.4082 78.8927L94.3928 77.9828L93.4082 77.0729L92.4235 77.9828L93.4082 78.8927Z" fill="white"/>
<path d="M93.7216 79.6489H93.0886V80.3274H93.7216V79.6489Z" fill="white"/>
<path d="M93.4062 83.4854L94.3909 82.5754L93.4062 81.6655L92.4216 82.5754L93.4062 83.4854Z" fill="white"/>
<path d="M93.7216 84.2461H93.0886V84.9246H93.7216V84.2461Z" fill="white"/>
<path d="M93.4035 87.515L94.3882 86.6051L93.4035 85.6952L92.4189 86.6051L93.4035 87.515Z" fill="white"/>
<path d="M93.7216 88.2817H93.0886V88.9602H93.7216V88.2817Z" fill="white"/>
<path d="M93.4096 91.5527L94.3943 90.6428L93.4096 89.7329L92.425 90.6428L93.4096 91.5527Z" fill="white"/>
<path d="M93.7216 92.3184H93.0886V92.9968H93.7216V92.3184Z" fill="white"/>
<path d="M93.407 95.5823L94.3916 94.6724L93.4069 93.7624L92.4223 94.6724L93.407 95.5823Z" fill="white"/>
<path d="M93.7216 96.3414H93.0886V97.0199H93.7216V96.3414Z" fill="white"/>
<path d="M93.404 99.6117L94.3887 98.7018L93.404 97.7919L92.4194 98.7018L93.404 99.6117Z" fill="white"/>
<path d="M93.7216 100.377H93.0886V101.056H93.7216V100.377Z" fill="white"/>
<path d="M93.4101 103.649L94.3948 102.74L93.4101 101.83L92.4255 102.739L93.4101 103.649Z" fill="white"/>
<path d="M93.7216 104.413H93.0886V105.091H93.7216V104.413Z" fill="white"/>
<path d="M93.4077 107.679L94.3923 106.769L93.4077 105.859L92.423 106.769L93.4077 107.679Z" fill="white"/>
<path d="M93.7216 108.437H93.0886V109.115H93.7216V108.437Z" fill="white"/>
<path d="M93.4048 111.708L94.3894 110.798L93.4048 109.889L92.4201 110.798L93.4048 111.708Z" fill="white"/>
<path d="M93.7216 112.472H93.0886V113.151H93.7216V112.472Z" fill="white"/>
<path d="M93.4111 115.746L94.3958 114.836L93.4111 113.926L92.4265 114.836L93.4111 115.746Z" fill="white"/>
<path d="M93.7216 116.508H93.0886V117.187H93.7216V116.508Z" fill="white"/>
<path d="M93.4082 119.776L94.3928 118.866L93.4082 117.956L92.4235 118.866L93.4082 119.776Z" fill="white"/>
<path d="M93.7216 120.532H93.0886V121.21H93.7216V120.532Z" fill="white"/>
<path d="M50.4556 27.3022C50.367 27.0215 50.2278 26.7758 50.0252 26.577C49.8227 26.3898 49.5569 26.2962 49.329 26.3079C49.1012 26.3196 48.924 26.3898 48.7847 26.46C48.7088 26.5068 48.6455 26.5536 48.5949 26.6004C48.5949 26.6004 48.5949 26.6121 48.5822 26.6121C48.5569 26.6355 48.5316 26.6706 48.5189 26.694C48.4556 26.7759 48.367 26.9045 48.367 26.9981C48.3417 27.0683 48.3923 27.1385 48.4683 27.1619C48.5442 27.1853 48.6202 27.1385 48.6455 27.0683C48.6581 27.0215 48.6455 26.963 48.5949 26.9279C48.5949 26.9162 48.5316 26.7174 48.7721 26.5536C48.7847 26.5419 48.81 26.5302 48.8227 26.5302C49.0632 26.4132 49.5569 26.3547 49.8607 26.7057C50.1392 27.0332 50.3797 27.6649 49.9493 28.0041C49.5569 28.355 48.8227 28.4369 48.2911 28.2147C48.0252 28.0977 47.8227 27.9105 47.6961 27.6883C47.5569 27.4543 47.5442 27.2204 47.4936 26.8811C47.3797 26.2495 47.1392 25.6763 46.8227 25.2318C46.329 24.4948 45.7341 24.1322 45.4936 24.0152C45.4936 24.0152 45.4683 24.0035 45.443 23.9918C45.4176 23.9801 45.405 23.9684 45.3923 23.9684C45.3037 23.9333 45.1518 23.8865 44.9619 23.8631C44.6328 23.8047 44.1898 23.8047 43.6835 23.8515C43.4303 23.8748 43.1645 23.8982 42.8987 23.9216C42.7594 23.9333 42.6455 23.9333 42.5442 23.9216C42.4303 23.8982 42.3037 23.8631 42.1771 23.8164C41.6835 23.6292 41.1265 23.2432 41.0759 22.7753C41.0632 22.5296 41.1645 22.284 41.3544 22.0968C41.5442 21.9213 41.8227 21.7459 42.0632 21.7225C42.3417 21.6874 42.6202 21.7225 42.81 21.8629C42.9999 22.0032 43.0632 22.2372 43.0759 22.4477C43.0885 22.6583 43.0126 22.8455 42.8607 22.939C42.7468 23.0092 42.6202 23.0326 42.5063 23.0443C42.0885 23.0209 42.0506 22.8806 42.0506 22.8455C42.0632 22.7987 42.0252 22.7402 41.9746 22.7168C41.8987 22.6817 41.81 22.7051 41.7721 22.7636C41.7341 22.8338 41.7594 22.9156 41.8227 22.9507C41.8607 22.9858 41.924 23.0092 41.9999 23.0326C42.0632 23.056 42.1898 23.0911 42.3797 23.1145C42.5189 23.1262 42.7088 23.1379 42.9113 23.0443C43.1138 22.9507 43.2404 22.6934 43.2404 22.4594C43.2531 22.2255 43.2025 21.933 42.9619 21.7108C42.7214 21.5002 42.367 21.4417 42.0379 21.4534C41.6582 21.4885 41.3797 21.6523 41.1012 21.8746C40.8354 22.1085 40.6455 22.4477 40.6455 22.8104C40.6455 23.1964 40.8733 23.5122 41.1138 23.7579C41.367 24.0035 41.6455 24.179 41.962 24.3194C42.1138 24.3895 42.2784 24.448 42.443 24.4831C42.5569 24.5065 42.6835 24.5182 42.7847 24.5182C42.4556 24.834 42.2151 25.2084 41.9366 25.5593C41.6075 25.9687 41.2404 26.2729 40.6961 26.1676C40.1265 26.0506 39.5189 25.805 39.0632 25.3721C38.8227 25.1616 38.6202 24.8808 38.3037 24.6235C38.1012 24.4597 37.8354 24.3544 37.5569 24.3077C37.4556 24.2258 37.3164 24.0971 37.1898 23.9216C37.0632 23.7345 36.9999 23.4771 37.1012 23.2315C37.2151 22.9858 37.443 22.7402 37.7341 22.6466C38.0252 22.553 38.3923 22.6817 38.4936 22.939C38.5949 23.1964 38.3797 23.4537 38.2025 23.5824C37.9999 23.7111 37.7594 23.6643 37.6582 23.5824C37.6328 23.559 37.6075 23.5473 37.5822 23.5239C37.5316 23.4537 37.5569 23.4186 37.5822 23.3952C37.5949 23.3835 37.6075 23.3602 37.5949 23.3368C37.5822 23.3017 37.5569 23.29 37.5189 23.3017C37.4936 23.3134 37.4809 23.3368 37.4809 23.3602C37.4809 23.4186 37.5442 23.5005 37.5442 23.5005C37.5569 23.5239 37.5949 23.559 37.6328 23.5941C37.7468 23.6877 37.9873 23.7462 38.2278 23.6175C38.3417 23.559 38.443 23.4537 38.5189 23.3368C38.5949 23.2198 38.6328 23.056 38.5822 22.9039C38.4683 22.5881 38.0506 22.4243 37.6961 22.5296C37.3417 22.6232 37.0885 22.8922 36.9493 23.173C36.8101 23.4654 36.886 23.8047 37.0252 24.0152C37.0885 24.1205 37.1645 24.2024 37.2278 24.2843C37.1898 24.2843 37.1392 24.2843 37.1012 24.2843C36.6708 24.296 36.2531 24.4714 35.9366 24.7171C35.6202 24.9627 35.367 25.2435 35.1392 25.5242C34.6835 26.0623 34.2657 26.7525 33.5822 26.6472C33.2404 26.6355 32.9493 26.4951 32.7847 26.2495C32.7088 26.1325 32.6455 25.9804 32.6328 25.84C32.6202 25.7114 32.6455 25.5359 32.6835 25.4072C32.7594 25.1148 32.9493 24.8691 33.2278 24.7756C33.5063 24.6937 33.848 24.7171 34.0759 24.8691C34.1898 24.951 34.2657 25.0563 34.3164 25.1733C34.329 25.2084 34.3417 25.2318 34.3544 25.2669V25.2903L34.3417 25.337C34.329 25.4072 34.3164 25.4657 34.2911 25.5359C34.2151 25.7933 34.0506 26.0155 33.7974 25.9687C33.5442 25.9453 33.329 25.7816 33.2404 25.5827C33.1898 25.4072 33.3037 25.1499 33.5063 25.1148C33.7088 25.068 33.9366 25.1148 34.0379 25.2435C34.1265 25.3604 34.0632 25.5827 33.9366 25.6295C33.7974 25.6997 33.6328 25.6529 33.5949 25.5476C33.5442 25.4423 33.5949 25.3253 33.6708 25.3253C33.7468 25.3137 33.7847 25.337 33.8101 25.3604C33.8354 25.454 33.7594 25.454 33.7594 25.454C33.7341 25.454 33.7088 25.4657 33.7088 25.5008C33.6961 25.5359 33.7214 25.5593 33.7468 25.571C33.7721 25.5827 33.7974 25.571 33.8101 25.5476C33.8607 25.4774 33.8354 25.3955 33.8354 25.3838C33.8227 25.337 33.7468 25.2903 33.6582 25.302C33.5442 25.3136 33.4809 25.454 33.5316 25.571C33.5695 25.7114 33.7847 25.7699 33.9493 25.6997C34.0379 25.6646 34.1012 25.5827 34.1265 25.4891C34.1518 25.4072 34.1645 25.2903 34.1012 25.1967C33.962 25.0095 33.7088 24.9627 33.4556 25.0095C33.1771 25.0797 33.0252 25.3487 33.0885 25.6295C33.1771 25.8868 33.443 26.0974 33.7594 26.1325C33.9113 26.1676 34.1265 26.1208 34.2404 25.9921C34.367 25.8751 34.4303 25.7348 34.4809 25.5944C34.5063 25.5242 34.5316 25.454 34.5442 25.3721L34.5569 25.3137V25.302C34.5569 25.2435 34.5569 25.2786 34.5569 25.2552L34.5442 25.2201C34.5316 25.185 34.5189 25.1382 34.5063 25.1031C34.443 24.951 34.3417 24.799 34.2025 24.6937C34.1012 24.6235 33.9873 24.565 33.8607 24.5299C33.9366 24.4948 34.0126 24.4597 34.0885 24.4129C34.3417 24.2726 34.5949 23.9918 34.6075 23.6292C34.6202 23.4654 34.6202 23.2783 34.5569 23.1028C34.4936 22.9273 34.329 22.7753 34.1265 22.7402C33.924 22.7051 33.7214 22.7402 33.5569 22.8455C33.3923 22.9507 33.3037 23.1262 33.2784 23.3017C33.2531 23.4654 33.329 23.6526 33.4936 23.7345C33.6582 23.8047 33.8227 23.7813 33.9619 23.7345C34.1012 23.6877 34.1771 23.5473 34.1645 23.442C34.1518 23.3368 34.0885 23.2432 33.9999 23.2081C33.8987 23.173 33.8227 23.2081 33.7974 23.2432C33.7847 23.2549 33.7594 23.2783 33.7468 23.3017C33.7468 23.3017 33.7468 23.3017 33.7468 23.3134C33.7214 23.3485 33.7341 23.3952 33.7721 23.4186C33.8101 23.4537 33.8733 23.442 33.9113 23.4069C33.924 23.3952 33.924 23.3835 33.9366 23.3602C33.9366 23.3602 33.9873 23.1964 34.1012 23.2783C34.1898 23.3952 34.1898 23.6175 33.9619 23.6877C33.8354 23.7345 33.6708 23.7345 33.5316 23.676C33.3923 23.6058 33.329 23.442 33.3544 23.29C33.3797 23.1379 33.4683 22.9741 33.6075 22.8922C33.7468 22.8104 33.9493 22.7753 34.1138 22.8104C34.4809 22.8922 34.5695 23.3017 34.5189 23.6058C34.4936 23.9333 34.2657 24.1673 34.0379 24.296C33.886 24.3778 33.7341 24.4363 33.6075 24.4714C33.4556 24.4597 33.2911 24.4831 33.1392 24.5182C32.7468 24.6235 32.4809 24.9744 32.3797 25.3137C32.329 25.4891 32.2911 25.6529 32.3037 25.8634C32.329 26.0506 32.3797 26.2378 32.4809 26.4015C32.6835 26.7525 33.1265 26.963 33.5442 26.9747C33.7341 26.9864 33.9746 26.9864 34.1898 26.9045C34.405 26.8226 34.5695 26.7057 34.7214 26.577C35.0126 26.3196 35.2404 26.0272 35.4809 25.7582C35.9366 25.2201 36.4683 24.7288 37.1138 24.7288C37.4556 24.7171 37.7341 24.799 37.9619 24.9861C38.1898 25.1733 38.405 25.4657 38.6582 25.7114C39.1898 26.2378 39.886 26.5536 40.5822 26.7057C40.6708 26.7291 40.7721 26.7408 40.8607 26.7408C40.7214 26.8694 40.5822 27.0098 40.4303 27.1853C40.1265 27.5479 39.8227 28.0743 39.848 28.6943C39.8733 29.3025 40.2657 29.8991 40.8354 30.2383C41.405 30.601 42.2278 30.5542 42.7088 30.1682C42.9493 29.981 43.1138 29.7236 43.2025 29.478C43.2151 29.4429 43.2278 29.4195 43.2278 29.3844L43.2404 29.361C43.2404 29.3727 43.2404 29.3376 43.2404 29.3376V29.3259V29.2791C43.2278 29.2206 43.2151 29.1505 43.2025 29.092C43.1645 28.975 43.1138 28.858 43.0379 28.7644C42.886 28.5539 42.5949 28.5422 42.405 28.6007C42.2151 28.6475 42.0506 28.7527 41.9999 28.8814C41.924 29.0686 41.9493 29.209 41.9746 29.2674C41.9873 29.2908 41.9873 29.3142 41.9999 29.3376C42.0126 29.361 42.0379 29.3727 42.0632 29.361C42.0885 29.3493 42.1138 29.3142 42.1012 29.2908C42.0885 29.2674 42.0759 29.2557 42.0506 29.2557C42.0506 29.2557 41.9873 29.2674 41.962 29.1622C41.962 29.092 41.9746 29.0101 42.0252 28.9165C42.0885 28.7995 42.2278 28.706 42.4176 28.6709C42.6075 28.6241 42.8354 28.6475 42.9619 28.8346C43.0252 28.9165 43.0632 29.0218 43.0885 29.1388C43.1012 29.1973 43.1138 29.2557 43.1138 29.3142V29.361V29.3727L43.1012 29.3961C43.0885 29.4195 43.0759 29.4546 43.0632 29.478C42.9746 29.7119 42.81 29.9342 42.5822 30.098C42.1392 30.4255 41.405 30.4489 40.924 30.1097C40.4176 29.7938 40.0885 29.244 40.0885 28.7293C40.0759 28.203 40.3544 27.7468 40.6455 27.4192C40.9746 27.0683 41.2911 26.8226 41.5189 26.6589C41.5695 26.6355 41.6202 26.6121 41.6708 26.5887C41.9999 26.4132 42.2151 26.1676 42.405 25.957C42.7721 25.5125 43.0379 25.1265 43.3417 24.8925C43.6328 24.6586 43.9366 24.5884 44.2025 24.6001C44.7468 24.6469 45.0759 24.8457 45.0885 24.834V24.8224C45.2784 24.9159 45.7214 25.1616 46.1265 25.688C46.405 26.0389 46.6582 26.5068 46.7974 27.0566C46.8607 27.3022 46.924 27.7 47.1392 28.0158C47.3417 28.3433 47.6835 28.6007 48.0506 28.7177C48.7974 28.9633 49.6581 28.8112 50.1645 28.2965C50.4809 27.9807 50.5569 27.5947 50.4556 27.3022Z" fill="white"/>
<path d="M50.5442 27.3022C50.6328 27.0215 50.7721 26.7758 50.9746 26.577C51.1771 26.3898 51.443 26.2962 51.6708 26.3079C51.8987 26.3196 52.0759 26.3898 52.2151 26.46C52.2911 26.5068 52.3544 26.5536 52.405 26.6004C52.405 26.6004 52.405 26.6121 52.4176 26.6121C52.443 26.6355 52.4683 26.6706 52.4809 26.694C52.5442 26.7759 52.6328 26.9045 52.6328 26.9981C52.6581 27.0683 52.6075 27.1385 52.5316 27.1619C52.4556 27.1853 52.3797 27.1385 52.3544 27.0683C52.3417 27.0215 52.3544 26.963 52.405 26.9279C52.405 26.9162 52.4683 26.7174 52.2278 26.5536C52.2151 26.5419 52.1898 26.5302 52.1771 26.5302C51.9366 26.4132 51.443 26.3547 51.1392 26.7057C50.8607 27.0332 50.6202 27.6649 51.0506 28.0041C51.443 28.355 52.1771 28.4369 52.7088 28.2147C52.9746 28.0977 53.1771 27.9105 53.3037 27.6883C53.443 27.4543 53.4556 27.2204 53.5062 26.8811C53.6202 26.2495 53.8607 25.6763 54.1771 25.2318C54.6708 24.4948 55.2657 24.1322 55.5062 24.0152C55.5062 24.0152 55.5316 24.0035 55.5569 23.9918C55.5822 23.9801 55.5949 23.9684 55.6075 23.9684C55.6961 23.9333 55.848 23.8865 56.0379 23.8631C56.367 23.8047 56.81 23.8047 57.3164 23.8515C57.5695 23.8748 57.8354 23.8982 58.1012 23.9216C58.2404 23.9333 58.3543 23.9333 58.4556 23.9216C58.5695 23.8982 58.6961 23.8631 58.8227 23.8164C59.3164 23.6292 59.8733 23.2432 59.924 22.7753C59.9366 22.5296 59.8354 22.284 59.6455 22.0968C59.4556 21.9213 59.1771 21.7459 58.9366 21.7225C58.6581 21.6874 58.3797 21.7225 58.1898 21.8629C57.9999 22.0032 57.9366 22.2372 57.924 22.4477C57.9113 22.6583 57.9873 22.8455 58.1392 22.939C58.2531 23.0092 58.3797 23.0326 58.4936 23.0443C58.9113 23.0209 58.9493 22.8806 58.9493 22.8455C58.9366 22.7987 58.9746 22.7402 59.0252 22.7168C59.1012 22.6817 59.1898 22.7051 59.2278 22.7636C59.2657 22.8338 59.2404 22.9156 59.1771 22.9507C59.1392 22.9858 59.0759 23.0092 58.9999 23.0326C58.9366 23.056 58.81 23.0911 58.6202 23.1145C58.4809 23.1262 58.2911 23.1379 58.0885 23.0443C57.886 22.9507 57.7594 22.6934 57.7594 22.4594C57.7468 22.2255 57.7974 21.933 58.0379 21.7108C58.2784 21.5002 58.6328 21.4417 58.9619 21.4534C59.3417 21.4885 59.6202 21.6523 59.8987 21.8746C60.1645 22.1085 60.3543 22.4477 60.3543 22.8104C60.3543 23.1964 60.1265 23.5122 59.886 23.7579C59.6328 24.0035 59.3543 24.179 59.0379 24.3194C58.886 24.3895 58.7214 24.448 58.5569 24.4831C58.443 24.5065 58.3164 24.5182 58.2151 24.5182C58.5442 24.834 58.7847 25.2084 59.0632 25.5593C59.3923 25.9687 59.7594 26.2729 60.3037 26.1676C60.8733 26.0506 61.4809 25.805 61.9366 25.3721C62.1771 25.1616 62.3797 24.8808 62.6961 24.6235C62.8987 24.4597 63.1645 24.3544 63.443 24.3077C63.5442 24.2258 63.6835 24.0971 63.81 23.9216C63.9366 23.7345 63.9999 23.4771 63.8987 23.2315C63.7847 22.9858 63.5569 22.7402 63.2657 22.6466C62.9746 22.553 62.6075 22.6817 62.5062 22.939C62.405 23.1964 62.6202 23.4537 62.7974 23.5824C62.9999 23.7111 63.2404 23.6643 63.3417 23.5824C63.367 23.559 63.3923 23.5473 63.4176 23.5239C63.4683 23.4537 63.443 23.4186 63.4176 23.3952C63.405 23.3835 63.3923 23.3602 63.405 23.3368C63.4176 23.3017 63.443 23.29 63.4809 23.3017C63.5062 23.3134 63.5189 23.3368 63.5189 23.3602C63.5189 23.4186 63.4556 23.5005 63.4556 23.5005C63.443 23.5239 63.405 23.559 63.367 23.5941C63.2531 23.6877 63.0126 23.7462 62.7721 23.6175C62.6581 23.559 62.5569 23.4537 62.4809 23.3368C62.405 23.2198 62.367 23.056 62.4176 22.9039C62.5316 22.5881 62.9493 22.4243 63.3037 22.5296C63.6581 22.6232 63.9113 22.8922 64.0505 23.173C64.1898 23.4654 64.1138 23.8047 63.9746 24.0152C63.9113 24.1205 63.8354 24.2024 63.7721 24.2843C63.81 24.2843 63.8607 24.2843 63.8987 24.2843C64.329 24.296 64.7468 24.4714 65.0632 24.7171C65.3797 24.9627 65.6328 25.2435 65.8607 25.5242C66.3164 26.0623 66.7341 26.7525 67.4176 26.6472C67.7594 26.6355 68.0506 26.4951 68.2151 26.2495C68.2911 26.1325 68.3543 25.9804 68.367 25.84C68.3797 25.7114 68.3543 25.5359 68.3164 25.4072C68.2404 25.1148 68.0506 24.8691 67.7721 24.7756C67.4936 24.6937 67.1518 24.7171 66.924 24.8691C66.81 24.951 66.7341 25.0563 66.6835 25.1733C66.6708 25.2084 66.6581 25.2318 66.6455 25.2669V25.2903L66.6581 25.337C66.6708 25.4072 66.6835 25.4657 66.7088 25.5359C66.7847 25.7933 66.9493 26.0155 67.2024 25.9687C67.4556 25.9453 67.6708 25.7816 67.7594 25.5827C67.81 25.4072 67.6961 25.1499 67.4936 25.1148C67.2911 25.068 67.0632 25.1148 66.9619 25.2435C66.8733 25.3604 66.9366 25.5827 67.0632 25.6295C67.2024 25.6997 67.367 25.6529 67.405 25.5476C67.4556 25.4423 67.405 25.3253 67.329 25.3253C67.2531 25.3137 67.2151 25.337 67.1898 25.3604C67.1645 25.454 67.2404 25.454 67.2404 25.454C67.2657 25.454 67.2911 25.4657 67.2911 25.5008C67.3037 25.5359 67.2784 25.5593 67.2531 25.571C67.2278 25.5827 67.2025 25.571 67.1898 25.5476C67.1392 25.4774 67.1645 25.3955 67.1645 25.3838C67.1771 25.337 67.2531 25.2903 67.3417 25.302C67.4556 25.3136 67.5189 25.454 67.4683 25.571C67.4303 25.7114 67.2151 25.7699 67.0506 25.6997C66.9619 25.6646 66.8987 25.5827 66.8733 25.4891C66.848 25.4072 66.8354 25.2903 66.8986 25.1967C67.0379 25.0095 67.2911 24.9627 67.5442 25.0095C67.8227 25.0797 67.9746 25.3487 67.9113 25.6295C67.8227 25.8868 67.5569 26.0974 67.2404 26.1325C67.0885 26.1676 66.8733 26.1208 66.7594 25.9921C66.6328 25.8751 66.5695 25.7348 66.5189 25.5944C66.4936 25.5242 66.4683 25.454 66.4556 25.3721L66.443 25.3137V25.302C66.443 25.2435 66.443 25.2786 66.443 25.2552L66.4556 25.2201C66.4683 25.185 66.4809 25.1382 66.4936 25.1031C66.5569 24.951 66.6581 24.799 66.7974 24.6937C66.8987 24.6235 67.0126 24.565 67.1392 24.5299C67.0632 24.4948 66.9873 24.4597 66.9113 24.4129C66.6581 24.2726 66.405 23.9918 66.3923 23.6292C66.3797 23.4654 66.3797 23.2783 66.443 23.1028C66.5062 22.9273 66.6708 22.7753 66.8733 22.7402C67.0759 22.7051 67.2784 22.7402 67.443 22.8455C67.6075 22.9507 67.6961 23.1262 67.7214 23.3017C67.7468 23.4654 67.6708 23.6526 67.5062 23.7345C67.3417 23.8047 67.1771 23.7813 67.0379 23.7345C66.8987 23.6877 66.8227 23.5473 66.8354 23.442C66.848 23.3368 66.9113 23.2432 66.9999 23.2081C67.1012 23.173 67.1771 23.2081 67.2024 23.2432C67.2151 23.2549 67.2404 23.2783 67.2531 23.3017C67.2531 23.3017 67.2531 23.3017 67.2531 23.3134C67.2784 23.3485 67.2657 23.3952 67.2278 23.4186C67.1898 23.4537 67.1265 23.442 67.0885 23.4069C67.0759 23.3952 67.0759 23.3835 67.0632 23.3602C67.0632 23.3602 67.0126 23.1964 66.8986 23.2783C66.81 23.3952 66.81 23.6175 67.0379 23.6877C67.1645 23.7345 67.329 23.7345 67.4683 23.676C67.6075 23.6058 67.6708 23.442 67.6455 23.29C67.6202 23.1379 67.5316 22.9741 67.3923 22.8922C67.2531 22.8104 67.0506 22.7753 66.886 22.8104C66.5189 22.8922 66.4303 23.3017 66.4809 23.6058C66.5062 23.9333 66.7341 24.1673 66.9619 24.296C67.1138 24.3778 67.2657 24.4363 67.3923 24.4714C67.5442 24.4597 67.7088 24.4831 67.8607 24.5182C68.2531 24.6235 68.5189 24.9744 68.6202 25.3137C68.6708 25.4891 68.7088 25.6529 68.6961 25.8634C68.6708 26.0506 68.6202 26.2378 68.5189 26.4015C68.3164 26.7525 67.8733 26.963 67.4556 26.9747C67.2657 26.9864 67.0252 26.9864 66.81 26.9045C66.5949 26.8226 66.4303 26.7057 66.2784 26.577C65.9873 26.3196 65.7594 26.0272 65.5189 25.7582C65.0632 25.2201 64.5316 24.7288 63.886 24.7288C63.5442 24.7171 63.2657 24.799 63.0379 24.9861C62.81 25.1733 62.5949 25.4657 62.3417 25.7114C61.81 26.2378 61.1138 26.5536 60.4176 26.7057C60.329 26.7291 60.2278 26.7408 60.1392 26.7408C60.2784 26.8694 60.4176 27.0098 60.5695 27.1853C60.8733 27.5479 61.1771 28.0743 61.1518 28.6943C61.1265 29.3025 60.7341 29.8991 60.1645 30.2383C59.5949 30.601 58.7721 30.5542 58.2911 30.1682C58.0506 29.981 57.886 29.7236 57.7974 29.478C57.7847 29.4429 57.7721 29.4195 57.7721 29.3844L57.7594 29.361C57.7594 29.3727 57.7594 29.3376 57.7594 29.3376V29.3259V29.2791C57.7721 29.2206 57.7847 29.1505 57.7974 29.092C57.8354 28.975 57.886 28.858 57.9619 28.7644C58.1138 28.5539 58.405 28.5422 58.5949 28.6007C58.7847 28.6475 58.9493 28.7527 58.9999 28.8814C59.0759 29.0686 59.0506 29.209 59.0252 29.2674C59.0126 29.2908 59.0126 29.3142 58.9999 29.3376C58.9873 29.361 58.9619 29.3727 58.9366 29.361C58.9113 29.3493 58.886 29.3142 58.8987 29.2908C58.9113 29.2674 58.924 29.2557 58.9493 29.2557C58.9493 29.2557 59.0126 29.2674 59.0379 29.1622C59.0379 29.092 59.0252 29.0101 58.9746 28.9165C58.9113 28.7995 58.7721 28.706 58.5822 28.6709C58.3923 28.6241 58.1645 28.6475 58.0379 28.8346C57.9746 28.9165 57.9366 29.0218 57.9113 29.1388C57.8987 29.1973 57.886 29.2557 57.886 29.3142V29.361V29.3727L57.8987 29.3961C57.9113 29.4195 57.924 29.4546 57.9366 29.478C58.0252 29.7119 58.1898 29.9342 58.4176 30.098C58.8607 30.4255 59.5949 30.4489 60.0759 30.1097C60.5822 29.7938 60.9113 29.244 60.9113 28.7293C60.924 28.203 60.6455 27.7468 60.3543 27.4192C60.0252 27.0683 59.7088 26.8226 59.4809 26.6589C59.4303 26.6355 59.3797 26.6121 59.329 26.5887C58.9999 26.4132 58.7847 26.1676 58.5949 25.957C58.2278 25.5125 57.9619 25.1265 57.6581 24.8925C57.367 24.6586 57.0632 24.5884 56.7974 24.6001C56.2531 24.6469 55.924 24.8457 55.9113 24.834V24.8224C55.7214 24.9159 55.2784 25.1616 54.8733 25.688C54.5949 26.0389 54.3417 26.5068 54.2025 27.0566C54.1392 27.3022 54.0759 27.7 53.8607 28.0158C53.6581 28.3433 53.3164 28.6007 52.9493 28.7177C52.2025 28.9633 51.3417 28.8112 50.8354 28.2965C50.5189 27.9807 50.443 27.5947 50.5442 27.3022Z" fill="white"/>
<path fill-rule="evenodd" clip-rule="evenodd" d="M47.5046 14.2282C47.8386 12.9775 49.0616 12.0624 50.5064 12.0624C51.9402 12.0624 53.1619 12.9786 53.5071 14.2282C53.553 14.2264 53.5973 14.2264 53.6422 14.2264H53.6457C55.3501 14.2264 56.745 15.4992 56.745 17.102C56.745 18.1095 56.1818 18.9984 55.344 19.5043C55.4831 19.8355 55.5678 20.1905 55.5678 20.5762C55.5678 22.1789 54.1728 23.4517 52.4685 23.4517C51.7187 23.4517 51.0141 23.2012 50.4775 22.7792C49.9485 23.1649 49.2936 23.3932 48.5697 23.3932C46.8653 23.3932 45.4704 22.1204 45.4704 20.5177C45.4704 20.1571 45.5433 19.8162 45.6703 19.5037C44.833 18.9895 44.2678 18.1114 44.2678 17.102C44.2678 15.4992 45.6628 14.2264 47.3672 14.2264H47.3706C47.4151 14.2264 47.459 14.2264 47.5046 14.2282ZM50.5064 12.3624C49.1395 12.3624 48.0165 13.2556 47.767 14.4196L47.738 14.555L47.6007 14.5368C47.5232 14.5266 47.4566 14.5264 47.3672 14.5264C45.8058 14.5264 44.5678 15.6868 44.5678 17.102C44.5678 18.0346 45.1139 18.8536 45.9339 19.3105L46.0555 19.3783L45.9969 19.5046C45.8535 19.8138 45.7704 20.155 45.7704 20.5177C45.7704 21.9329 47.0083 23.0932 48.5697 23.0932C49.2695 23.0932 49.8952 22.8593 50.3882 22.4704L50.485 22.394L50.5787 22.4742C51.0697 22.8948 51.7438 23.1517 52.4685 23.1517C54.0299 23.1517 55.2678 21.9914 55.2678 20.5762C55.2678 20.1926 55.1732 19.8399 55.0162 19.5052L54.9562 19.3772L55.0804 19.3097C55.8981 18.8652 56.445 18.0355 56.445 17.102C56.445 15.6868 55.2071 14.5264 53.6457 14.5264C53.5562 14.5264 53.4896 14.5266 53.4121 14.5368L53.2762 14.5548L53.2461 14.421C52.9843 13.2552 51.8599 12.3624 50.5064 12.3624Z" fill="white"/>
<path fill-rule="evenodd" clip-rule="evenodd" d="M48.413 12.9949C48.0368 13.3384 47.7583 13.7741 47.6259 14.2635L47.6017 14.3528C47.6095 14.3538 47.6173 14.3548 47.6251 14.356C47.7432 13.8261 48.0251 13.3588 48.413 12.9949ZM56.5714 16.7444C56.5857 16.8538 56.5931 16.9653 56.5931 17.0785C56.5931 18.0487 56.0419 18.9382 55.1515 19.4307C55.1526 19.433 55.1537 19.4353 55.1548 19.4375L55.2644 19.3715C56.0958 18.8704 56.5969 18.0051 56.5969 17.1019C56.5969 16.9808 56.5882 16.8615 56.5714 16.7444ZM55.3102 19.8408C55.3795 20.0746 55.4159 20.3169 55.4159 20.5644C55.4159 22.0853 54.0842 23.2996 52.4684 23.2996C51.7377 23.2996 51.0331 23.042 50.4872 22.5871L50.4742 22.5765L50.4689 22.5802C49.9363 22.9972 49.2594 23.2294 48.5697 23.2294C46.9539 23.2294 45.6222 22.0151 45.6222 20.4942C45.6222 20.1229 45.7023 19.7641 45.8614 19.4191C44.9578 18.9263 44.4197 18.0481 44.4197 17.0785C44.4197 16.4731 44.6307 15.9162 44.9868 15.4652C44.6118 15.9237 44.3906 16.4923 44.3906 17.1019C44.3906 18.0156 44.8906 18.8586 45.7243 19.3722L45.8342 19.4399L45.7837 19.5586C45.6529 19.8662 45.5931 20.1853 45.5931 20.5176C45.5931 22.0143 46.9192 23.2452 48.557 23.2452C49.2232 23.2452 49.8627 23.0438 50.3799 22.6658L50.4712 22.5991L50.5605 22.6685C51.09 23.08 51.7535 23.3037 52.4558 23.3037C54.1054 23.3037 55.4197 22.0619 55.4197 20.5761C55.4197 20.3236 55.3832 20.0773 55.3102 19.8408ZM47.3687 14.0743C47.7711 12.7977 49.0563 11.8986 50.4937 11.8986C51.9434 11.8986 53.2176 12.7867 53.6191 14.0743H53.6328C55.4127 14.0743 56.8969 15.4169 56.8969 17.1019C56.8969 18.0758 56.3795 18.9985 55.5293 19.559C55.6563 19.8829 55.7197 20.225 55.7197 20.5761C55.7197 22.2487 54.2492 23.6037 52.4558 23.6037C51.7282 23.6037 51.0342 23.3834 50.4657 22.9723C49.9115 23.3481 49.245 23.5452 48.557 23.5452C46.7771 23.5452 45.2931 22.2026 45.2931 20.5176C45.2931 20.1898 45.3456 19.87 45.4606 19.5594C44.6103 18.9912 44.0906 18.0895 44.0906 17.1019C44.0906 15.4294 45.5611 14.0743 47.3545 14.0743H47.3687ZM47.919 14.4189L47.8682 14.6775L47.5848 14.6537C47.5222 14.644 47.4581 14.6434 47.3672 14.6434C45.8943 14.6434 44.7197 15.7452 44.7197 17.0785C44.7197 17.9324 45.1927 18.7142 46.0084 19.1576L46.0156 19.1615L46.2399 19.3L46.1362 19.5397C45.9932 19.848 45.9222 20.1657 45.9222 20.4942C45.9222 21.8276 47.0969 22.9294 48.5697 22.9294C49.1948 22.9294 49.8077 22.7181 50.2872 22.3415L50.2942 22.3359L50.488 22.2019L50.6767 22.3545L50.6784 22.3559C51.1703 22.7661 51.8072 22.9996 52.4684 22.9996C53.9413 22.9996 55.1159 21.8977 55.1159 20.5644C55.1159 20.2153 55.0336 19.876 54.8792 19.5566L54.7469 19.3121L55.0033 19.1699C55.8073 18.7263 56.2931 17.9321 56.2931 17.0785C56.2931 15.7452 55.1185 14.6434 53.6456 14.6434C53.5669 14.6434 53.4904 14.6437 53.428 14.6533L53.4177 14.6549L53.1446 14.6775L53.0938 14.4189C52.8441 13.3028 51.7599 12.4793 50.5064 12.4793C49.2529 12.4793 48.1687 13.3028 47.919 14.4189Z" fill="white"/>
<path fill-rule="evenodd" clip-rule="evenodd" d="M48.5119 15.4016C48.7447 14.5743 49.5563 13.9706 50.5063 13.9706C51.4551 13.9706 52.2659 14.5728 52.4999 15.3985C52.524 15.3977 52.5462 15.3977 52.5643 15.3977L52.5696 15.3977C53.7051 15.3977 54.644 16.2517 54.644 17.3241C54.644 17.9902 54.2685 18.5712 53.7537 18.9157C53.846 19.1349 53.8971 19.3663 53.8971 19.6168C53.8971 20.6893 52.9583 21.5433 51.8228 21.5433C51.3253 21.5433 50.86 21.383 50.5033 21.1088C50.1521 21.3589 49.7132 21.5082 49.2405 21.5082C48.105 21.5082 47.1661 20.6542 47.1661 19.5818C47.1661 19.3466 47.2059 19.1284 47.2856 18.9205C46.7347 18.5755 46.3687 17.9916 46.3687 17.3241C46.3687 16.2517 47.3075 15.3977 48.443 15.3977C48.4661 15.3977 48.4902 15.3995 48.5119 15.4016ZM50.5063 14.2206C49.6231 14.2206 48.8934 14.8045 48.7297 15.5608L48.7084 15.6594H48.6076C48.5758 15.6594 48.5418 15.6559 48.5154 15.6532L48.5125 15.6529C48.4824 15.6498 48.4607 15.6477 48.443 15.6477C47.4266 15.6477 46.6187 16.408 46.6187 17.3241C46.6187 17.9284 46.9688 18.4624 47.5036 18.7589L47.6047 18.8149L47.5568 18.92C47.4631 19.1255 47.4161 19.3417 47.4161 19.5818C47.4161 20.4979 48.2241 21.2582 49.2405 21.2582C49.693 21.2582 50.1089 21.1041 50.429 20.8522L50.5096 20.7887L50.5876 20.8554C50.9057 21.1276 51.3448 21.2933 51.8228 21.2933C52.8392 21.2933 53.6471 20.533 53.6471 19.6168C53.6471 19.3686 53.589 19.1415 53.4825 18.9229L53.4322 18.8195L53.5311 18.7607C54.0314 18.4635 54.394 17.9279 54.394 17.3241C54.394 16.408 53.586 15.6477 52.5696 15.6477C52.5152 15.6477 52.4672 15.6483 52.4332 15.6562L52.3097 15.6847L52.2829 15.5608C52.1192 14.8045 51.3895 14.2206 50.5063 14.2206Z" fill="white"/>
<path fill-rule="evenodd" clip-rule="evenodd" d="M50.5062 14.0217C49.606 14.0217 48.8106 14.5878 48.5752 15.3603L48.5482 15.4488H48.4429C47.3253 15.4488 46.4287 16.291 46.4287 17.3007C46.4287 17.911 46.7343 18.4578 47.2711 18.8105L47.3535 18.8647L47.32 18.9574C47.2488 19.1548 47.2135 19.3511 47.2135 19.5584C47.2135 20.5681 48.1101 21.4103 49.2278 21.4103C49.6472 21.4103 50.0658 21.2883 50.4114 21.0571L50.4829 21.0092L50.5532 21.0589C50.9125 21.3135 51.3431 21.457 51.7974 21.457C52.914 21.457 53.799 20.6275 53.799 19.5935C53.799 19.3738 53.7635 19.1674 53.6813 18.9613L53.6435 18.8665L53.7287 18.8105C54.2666 18.4571 54.5838 17.8981 54.5838 17.3007C54.5838 16.291 53.6872 15.4488 52.5695 15.4488H52.4643L52.4373 15.3603C52.2018 14.5878 51.4065 14.0217 50.5062 14.0217ZM48.365 15.2001C48.6666 14.358 49.5408 13.7717 50.5062 13.7717C51.4717 13.7717 52.3459 14.358 52.6475 15.2001C53.8492 15.2384 54.8338 16.1593 54.8338 17.3007C54.8338 17.9581 54.5007 18.5653 53.9482 18.9629C54.0185 19.17 54.049 19.3779 54.049 19.5935C54.049 20.7819 53.0352 21.707 51.7974 21.707C51.319 21.707 50.8645 21.5645 50.4788 21.3108C50.1051 21.5408 49.6661 21.6603 49.2278 21.6603C47.991 21.6603 46.9635 20.7244 46.9635 19.5584C46.9635 19.3537 46.9938 19.1581 47.054 18.9646C46.5003 18.5673 46.1787 17.9691 46.1787 17.3007C46.1787 16.1593 47.1633 15.2384 48.365 15.2001ZM48.6377 15.5409C48.8169 14.7298 49.5939 14.1461 50.4809 14.1461C51.368 14.1461 52.1449 14.7298 52.3241 15.5409L52.3363 15.5894L52.3871 15.5858C52.4481 15.5731 52.5069 15.5731 52.5523 15.5732L52.5569 15.5732C53.5917 15.5732 54.4414 16.3575 54.4414 17.3241C54.4414 17.9347 54.0842 18.513 53.5159 18.8257L53.5149 18.8262L53.4732 18.8486L53.4896 18.8789C53.6142 19.1093 53.6692 19.3523 53.6692 19.6052C53.6692 20.5846 52.8057 21.3561 51.7847 21.3561C51.3275 21.3561 50.8806 21.207 50.527 20.9056L50.4813 20.8676L50.4184 20.9205C50.0798 21.1834 49.6476 21.3327 49.2024 21.3327C48.1676 21.3327 47.3179 20.5484 47.3179 19.5818C47.3179 19.3409 47.3727 19.1014 47.468 18.8875L47.4854 18.8489L47.4449 18.8251C46.8634 18.5117 46.5205 17.9448 46.5205 17.3241C46.5205 16.3447 47.384 15.5732 48.405 15.5732C48.4376 15.5732 48.469 15.5768 48.4928 15.5796L48.4953 15.5798C48.5218 15.5829 48.54 15.5849 48.5569 15.5849H48.5658L48.6256 15.5894L48.6377 15.5409ZM50.4809 14.3961C49.6977 14.3961 49.0321 14.9111 48.8815 15.5963L48.8807 15.5998L48.8173 15.8537L48.5521 15.8348C48.5212 15.8345 48.4916 15.8311 48.469 15.8285L48.4666 15.8282C48.44 15.8251 48.4219 15.8232 48.405 15.8232C47.5019 15.8232 46.7705 16.5021 46.7705 17.3241C46.7705 17.8491 47.0597 18.3343 47.5654 18.606L47.5696 18.6083L47.8055 18.7471L47.6964 18.9893C47.6963 18.9894 47.6964 18.9892 47.6964 18.9893C47.6145 19.1731 47.5679 19.3782 47.5679 19.5818C47.5679 20.3932 48.2879 21.0827 49.2024 21.0827C49.5918 21.0827 49.9691 20.952 50.2632 20.7244L50.4805 20.5418L50.6886 20.7149C50.9932 20.9747 51.3814 21.1061 51.7847 21.1061C52.6878 21.1061 53.4192 20.4272 53.4192 19.6052C53.4192 19.3901 53.3729 19.1886 53.2697 18.9979L53.1342 18.7474L53.3954 18.6066C53.3955 18.6065 53.3952 18.6067 53.3954 18.6066C53.89 18.3343 54.1914 17.8363 54.1914 17.3241C54.1914 16.5127 53.4714 15.8232 52.5569 15.8232C52.5041 15.8232 52.4676 15.8237 52.4331 15.8316L52.4236 15.8338L52.1446 15.8537L52.0803 15.5963C51.9297 14.9111 51.2641 14.3961 50.4809 14.3961Z" fill="white"/>
<path d="M52.9121 17.7101C52.7855 17.8154 52.6209 17.8154 52.431 17.7101C52.355 17.5347 52.2411 17.3475 52.0892 17.1486C51.1903 17.3124 49.9243 17.5113 48.3038 17.7218C48.2658 17.7803 48.2025 17.8271 48.1139 17.8388L47.8987 17.0668C48.3165 17.0668 48.6836 17.0668 49.0001 17.0551C49.3293 16.4819 49.5825 15.9204 49.7724 15.3706L50.8105 15.6513C50.7852 15.7215 50.7092 15.7566 50.57 15.7566C50.2028 16.2245 49.785 16.6573 49.3166 17.0551C50.3421 17.0317 51.2283 17.0083 51.9626 16.9849C51.6967 16.6807 51.4055 16.4117 51.089 16.1777L51.1397 16.1309C51.722 16.2479 52.1778 16.4234 52.5196 16.6573C52.7981 16.8445 52.9754 17.0551 53.0387 17.2773C53.0767 17.4645 53.0387 17.6048 52.9121 17.7101ZM48.6076 20.2953V17.8973L49.3799 18.1663H51.6208L51.9626 17.8271L52.6842 18.3184C52.6336 18.3769 52.5449 18.4237 52.4183 18.4471V20.1081C52.4057 20.1198 52.3424 20.1549 52.2031 20.19C52.0512 20.2368 51.9119 20.2485 51.8107 20.2485H51.6967V19.7923H49.3419V20.0964C49.3419 20.1315 49.2786 20.1666 49.152 20.2251C49.0128 20.2719 48.8735 20.307 48.7342 20.307H48.6076V20.2953ZM49.3293 19.6402H51.6841V18.3067H49.3293V19.6402Z" fill="white"/>
<path d="M81.1267 50.7793C81.114 50.557 81.076 50.4049 81.0254 50.3348C80.9368 50.2295 80.7849 50.1593 80.557 50.1359V50.054C80.7596 50.0657 80.9621 50.0774 81.152 50.0891C81.2279 50.0891 81.2659 50.054 81.2659 49.9838V48.9661C81.2279 48.9778 81.1773 48.9895 81.1267 48.9895C80.8229 49.5042 80.4305 49.8902 79.9368 50.1476L79.8608 50.1008C80.152 49.6914 80.3545 49.2001 80.4811 48.6152L81.2786 48.8375V48.159H81.0254V48.2526C81.0254 48.2877 80.9621 48.3228 80.8355 48.3696C80.6963 48.4163 80.5697 48.4397 80.4431 48.4397H80.3419V46.6734L81.0507 46.9308H82.19L82.5317 46.6149L83.0887 46.9775H83.7975C83.8102 46.7319 83.8102 46.3342 83.7975 45.8078C83.7975 45.5855 83.7975 45.4101 83.7975 45.2931L84.8608 45.375C84.8482 45.4686 84.7596 45.527 84.6203 45.5387C84.6203 45.6206 84.6203 45.7376 84.6077 45.8897C84.6077 46.381 84.595 46.7319 84.5824 46.9658H85.0127L85.3798 46.5564C85.3165 46.5447 85.2532 46.5096 85.19 46.4629C85.152 46.1938 85.0127 45.9131 84.7596 45.6089L84.8229 45.5738C85.2279 45.644 85.5191 45.761 85.6963 45.9248C85.8355 46.0651 85.8735 46.2055 85.8102 46.3459C85.7469 46.4862 85.633 46.5447 85.4684 46.5447C85.7469 46.7436 85.9621 46.8957 86.114 47.0126C86.1013 47.0711 86.0381 47.1062 85.9368 47.1062H84.5824C84.5697 47.2583 84.5697 47.387 84.557 47.4688L85.2026 47.5156C85.1899 47.5975 85.114 47.6443 84.9874 47.6677V49.8785C84.9874 49.9136 85.0001 49.9487 85.0127 49.9604C85.0254 49.9721 85.0634 49.9838 85.114 49.9838H85.3039C85.4051 49.9838 85.4558 49.9838 85.4811 49.9838C85.5191 49.9838 85.557 49.9604 85.5824 49.9019C85.633 49.8201 85.7216 49.5276 85.8608 49.0129H85.9368L85.9621 49.9487C86.0507 49.9838 86.1013 50.0306 86.1393 50.0774C86.1646 50.1125 86.1773 50.1593 86.1773 50.2295C86.1773 50.4985 85.8608 50.6272 85.2279 50.6272H84.8608C84.595 50.6272 84.4305 50.5921 84.3418 50.5102C84.2659 50.44 84.2406 50.2997 84.2406 50.0774V48.8959C83.9115 49.6797 83.2659 50.2997 82.2912 50.7442L82.2153 50.6623C82.7975 50.2178 83.2026 49.6914 83.4558 49.0714C83.6456 48.5684 83.7596 47.925 83.7975 47.1179H83.152C83.114 47.1413 83.0507 47.1647 82.9748 47.1647V48.1824C82.9748 48.2058 82.8988 48.2292 82.7596 48.276C82.6203 48.3111 82.4938 48.3345 82.3798 48.3345H82.2532V48.1239H82.0127V49.9604C82.0127 50.2061 81.9621 50.3815 81.8608 50.4868C81.7343 50.6623 81.4937 50.7559 81.1267 50.7793ZM80.0127 46.4395L79.9621 46.2757H81.2786V45.3165L82.2406 45.3867C82.2279 45.4686 82.1646 45.5153 82.0381 45.5387V46.2757H82.3925L82.7976 45.7961C82.8862 45.8546 82.9748 45.9248 83.0634 45.9832C83.2532 46.1353 83.4051 46.2523 83.5317 46.3459C83.5191 46.4044 83.4558 46.4395 83.3418 46.4395H80.0127ZM81.0254 47.9952H82.2659V47.1062H81.0254V47.9952ZM82.4431 49.6563C82.4431 49.3639 82.3545 49.0363 82.1646 48.6971L82.2279 48.6737C82.5824 48.7907 82.8355 48.931 83.0001 49.1065C83.1267 49.2586 83.1773 49.3989 83.1267 49.5393C83.0887 49.668 83.0001 49.7499 82.8608 49.785C82.7216 49.8084 82.5824 49.7733 82.4431 49.6563Z" fill="white"/>
<path d="M80.8607 69.5773V67.2377C80.5696 67.46 80.2785 67.6355 79.9747 67.7875L79.9114 67.7407C80.2785 67.4483 80.5949 67.1208 80.8734 66.7347V66.3019L81.1266 66.3604C81.3038 66.0914 81.4557 65.7989 81.6076 65.4714H80.1139L80.0633 65.3076H81.6835C81.8607 64.8982 81.9873 64.4888 82.0759 64.1028L83.1266 64.3367C83.1012 64.4186 83.0126 64.4537 82.8734 64.4537C82.7721 64.7228 82.6329 65.0035 82.481 65.2959H84.7848L85.2531 64.7812C85.5316 64.9801 85.8101 65.179 86.0886 65.3778C86.0759 65.4363 86.0126 65.4597 85.8987 65.4597H82.3924C82.1899 65.8106 81.9493 66.1499 81.6709 66.4774L81.8861 66.5242C81.8734 66.5827 81.7975 66.6178 81.6582 66.6295V69.3667C81.6456 69.4018 81.5949 69.4369 81.481 69.4837C81.3418 69.5305 81.1772 69.5539 80.9873 69.5539L80.8607 69.5773ZM81.8987 69.3901L81.8481 69.2263H83.405V67.2845H82.1266L82.0759 67.1208H83.405V65.7521L84.3924 65.834C84.3924 65.9159 84.3164 65.9627 84.1772 65.9861V67.1208H84.6582L85.0633 66.6763C85.1519 66.7347 85.2405 66.7932 85.3291 66.8634C85.5316 67.0038 85.6962 67.1091 85.8101 67.2026C85.7975 67.2611 85.7342 67.2962 85.6202 67.2962H84.1772V69.238H84.9114L85.3418 68.7467C85.443 68.8169 85.5316 68.8754 85.6202 68.9339C85.8354 69.086 86.0126 69.2146 86.1392 69.3082C86.1266 69.3667 86.0633 69.4018 85.9494 69.4018H81.8987V69.3901Z" fill="white"/>
<path d="M81.2911 89.1006C81.2785 88.89 81.2405 88.738 81.1646 88.6561C81.0633 88.5508 80.8861 88.4806 80.6203 88.4455V88.3636C80.8608 88.3753 81.1139 88.387 81.3544 88.3987C81.443 88.3987 81.4937 88.3636 81.4937 88.2817V87.0184C81.0886 87.5448 80.557 87.9893 79.9114 88.3636L79.8354 88.2934C80.1519 88.001 80.4304 87.6501 80.6836 87.2173C80.9241 86.8195 81.1139 86.4101 81.2532 85.989H80.7975C80.7722 86.1177 80.7468 86.1996 80.7342 86.2464C80.6709 86.2932 80.5823 86.3166 80.4557 86.3282C80.3291 86.3399 80.2025 86.3282 80.0633 86.2931C80.1266 86.0826 80.2025 85.7902 80.2658 85.4158C80.3418 85.0415 80.3798 84.7608 80.3924 84.5619L81.2658 84.6438C81.2532 84.7374 81.1646 84.7842 81.0127 84.8076C80.9494 85.1585 80.8987 85.4977 80.8228 85.8136H81.481V84.3397H80.076L80.0253 84.1759H81.9114L82.2785 83.7197C82.3671 83.7782 82.443 83.8367 82.5316 83.8951C82.7215 84.0355 82.8734 84.1525 82.9747 84.2344C82.962 84.2929 82.8987 84.328 82.7848 84.328H82.1646V85.7785L82.4177 85.3807C82.5063 85.4626 82.5949 85.5562 82.6836 85.6381C82.9494 84.9947 83.1266 84.3163 83.2279 83.6261L84.2405 83.8601C84.2152 83.9419 84.1266 83.9887 83.9873 83.9887C83.8734 84.328 83.7595 84.597 83.6582 84.8193L83.7595 84.8543H84.2405C84.3544 84.4917 84.4557 84.1174 84.519 83.6963L85.4684 83.9185C85.443 84.0004 85.3544 84.0355 85.2152 84.0355C85 84.3163 84.7215 84.5853 84.4051 84.8426H85.038L85.4051 84.4215C85.481 84.48 85.5696 84.5268 85.6456 84.5853C85.8228 84.714 85.962 84.8193 86.0633 84.9128C86.0506 84.9713 85.9873 85.0064 85.8861 85.0064H84.9494V86.0241H85.076L85.4051 85.603C85.5949 85.7668 85.7975 85.9305 85.9873 86.0943C85.9747 86.1528 85.9114 86.1879 85.8101 86.1879H84.9494V87.229H85.0886L85.4304 86.8078C85.6203 86.9716 85.8228 87.1354 86.0127 87.2991C86 87.3576 85.9367 87.3927 85.8354 87.3927H84.9494V88.5274H85.1393L85.519 88.0829C85.6076 88.1414 85.6836 88.1999 85.7595 88.2583C85.9494 88.3987 86.0886 88.5157 86.1899 88.5976C86.1772 88.6561 86.1139 88.6912 86.0127 88.6912H83.6709V88.89C83.6709 88.9251 83.6203 88.9602 83.5063 89.007C83.3798 89.0538 83.2279 89.0772 83.0633 89.0772H82.9367V85.9071C82.7595 86.106 82.5823 86.2698 82.4051 86.4101L82.3165 86.3633C82.3924 86.2347 82.4684 86.0943 82.5316 85.9656H82.1646V88.2817C82.1646 88.5274 82.1139 88.7029 82.0127 88.8081C81.8987 88.9836 81.6582 89.0772 81.2911 89.1006ZM83.6962 86.0358H84.2532V85.0181H83.6962V86.0358ZM83.6962 87.2524H84.2532V86.2113H83.6962V87.2524ZM83.6962 88.5508H84.2532V87.4161H83.6962V88.5508Z" fill="white"/>
<path d="M81.7215 109.232V107.7C81.2025 107.875 80.6202 108.027 79.9493 108.144L79.8987 108.062C80.5569 107.852 81.1645 107.594 81.7215 107.314V107.021L82.0506 107.127C82.1898 107.045 82.3544 106.951 82.5316 106.834C82.443 106.846 82.3417 106.822 82.2531 106.776C82.1898 106.553 82.0253 106.343 81.7594 106.144C81.2911 106.425 80.8101 106.635 80.2911 106.787L80.2405 106.729C80.6075 106.53 80.9493 106.284 81.2784 105.98C81.5822 105.711 81.8354 105.43 82.0506 105.138C81.924 105.15 81.8227 105.161 81.7341 105.161H81.6075V104.6H80.0253L79.9746 104.436H81.5949V103.746L82.5822 103.816C82.5696 103.898 82.4936 103.957 82.3544 103.968V104.424H83.6962V103.734L84.6962 103.804C84.6835 103.886 84.6075 103.945 84.4556 103.957V104.413H85.0379L85.4303 103.957C85.5189 104.015 85.5949 104.085 85.6835 104.144C85.8734 104.284 86.0253 104.401 86.1265 104.483C86.1139 104.541 86.0506 104.576 85.9493 104.576H84.4556V104.974C84.4556 104.998 84.3924 105.033 84.2658 105.068C84.1265 105.103 83.9746 105.115 83.8101 105.115H83.6835V104.576H82.3417V104.834L83.3164 104.998C83.2911 105.068 83.1898 105.115 82.9999 105.115C82.9113 105.208 82.8227 105.302 82.7341 105.384H83.9873L84.3924 105.044L85.1265 105.606C85.0759 105.664 84.962 105.688 84.7848 105.699C84.2278 106.343 83.5316 106.869 82.6708 107.29H84.6455L84.9999 106.939L85.7468 107.442C85.6961 107.501 85.6075 107.548 85.4936 107.571V108.998C85.4936 109.022 85.405 109.057 85.2531 109.092C85.0886 109.139 84.9493 109.162 84.8354 109.162H84.7088V108.788H82.481V109.022C82.481 109.057 82.4303 109.092 82.3164 109.139C82.1898 109.197 82.0379 109.22 81.8607 109.22H81.7215V109.232ZM82.8607 106.6C83.2784 106.284 83.6329 105.945 83.924 105.582H82.5443C82.3291 105.758 82.1265 105.91 81.9367 106.027C82.2911 106.05 82.5442 106.121 82.7088 106.238C82.8607 106.343 82.9113 106.471 82.8607 106.6ZM82.481 108.624H84.7088V107.466H82.481V108.624Z" fill="white"/>
<path d="M17.0127 54.2301L16.8988 54.1248L10.1772 47.9134L10.2912 47.8081L17.0127 41.6084L17.1266 41.7137L23.8481 47.9251L23.7342 48.0304L17.0127 54.2301ZM10.6329 47.9134L17.0127 53.809L23.3924 47.9134L17.0127 42.0178L10.6329 47.9134Z" fill="white"/>
<path d="M17.0127 73.6948L16.8988 73.5895L10.1772 67.3781L10.2912 67.2728L17.0127 61.0731L17.1266 61.1784L23.8481 67.3898L23.7342 67.4951L17.0127 73.6948ZM10.6329 67.3898L17.0127 73.2854L23.3924 67.3898L17.0127 61.4942L10.6329 67.3898Z" fill="white"/>
<path d="M17.0127 93.3001L16.8988 93.1948L10.1772 86.9833L10.2912 86.8781L17.0127 80.6783L17.1266 80.7836L23.8481 86.995L23.7342 87.1003L17.0127 93.3001ZM10.6329 86.9833L17.0127 92.8789L23.3924 86.9833L17.0127 81.0878L10.6329 86.9833Z" fill="white"/>
<path d="M17.0127 112.776L16.8988 112.671L10.1772 106.46L10.2912 106.355L17.0127 100.155L17.1266 100.26L23.8481 106.471L23.7342 106.577L17.0127 112.776ZM10.6329 106.46L17.0127 112.355L23.3924 106.46L17.0127 100.564L10.6329 106.46Z" fill="white"/>
<path d="M83.0254 54.2534L82.9115 54.1481L76.1899 47.9367L76.3039 47.8314L83.0254 41.6317L83.1393 41.737L89.8608 47.9484L89.7469 48.0537L83.0254 54.2534ZM76.6456 47.9367L83.0254 53.8323L89.4051 47.9367L83.0254 42.0411L76.6456 47.9367Z" fill="white"/>
<path d="M83.0254 73.6598L82.9115 73.5545L76.1899 67.3431L76.3039 67.2378L83.0254 61.0381L83.1393 61.1434L89.8608 67.3548L89.7469 67.4601L83.0254 73.6598ZM76.6456 67.3548L83.0254 73.2504L89.4051 67.3548L83.0254 61.4592L76.6456 67.3548Z" fill="white"/>
<path d="M83.0254 93.2532L82.9115 93.1479L76.1899 86.9365L76.3039 86.8312L83.0254 80.6315L83.1393 80.7367L89.8608 86.9482L89.7469 87.0534L83.0254 93.2532ZM76.6456 86.9482L83.0254 92.8438L89.4051 86.9482L83.0254 81.0526L76.6456 86.9482Z" fill="white"/>
<path d="M83.0254 112.741L82.9115 112.636L76.1899 106.425L76.3039 106.319L83.0254 100.12L83.1393 100.225L89.8608 106.436L89.7469 106.542L83.0254 112.741ZM76.6456 106.436L83.0254 112.332L89.4051 106.436L83.0254 100.541L76.6456 106.436Z" fill="white"/>
<path d="M19.7089 47.5039C19.5696 47.6209 19.3924 47.6209 19.1646 47.5039C19.076 47.305 18.9494 47.0945 18.7848 46.8722C17.7722 47.0594 16.3544 47.27 14.5443 47.5156C14.4937 47.5858 14.4304 47.6326 14.3291 47.6443L14.0886 46.7787C14.557 46.7787 14.9747 46.7787 15.3165 46.767C15.6836 46.1236 15.962 45.4919 16.1772 44.8719L17.3418 45.1878C17.3165 45.2697 17.2279 45.3048 17.076 45.3048C16.6582 45.8311 16.1899 46.3108 15.6709 46.7553C16.8228 46.7319 17.8101 46.7085 18.6329 46.6851C18.3418 46.3458 18.0127 46.0417 17.6456 45.7844L17.7215 45.7376C18.3671 45.8662 18.8861 46.0651 19.2658 46.3224C19.5823 46.533 19.7722 46.767 19.8355 47.0126C19.8988 47.2232 19.8608 47.3869 19.7089 47.5039ZM14.8988 50.4049V47.7145L15.7595 48.0069H18.2658L18.6582 47.6326L19.4684 48.1824C19.4051 48.2526 19.3038 48.2993 19.1646 48.3227V50.1827C19.1519 50.2061 19.076 50.2294 18.9241 50.2762C18.7469 50.323 18.6076 50.3464 18.481 50.3464H18.3544V49.8317H15.7089V50.171C15.7089 50.2061 15.6329 50.2528 15.4937 50.3113C15.3291 50.3698 15.1772 50.4049 15.0253 50.4049H14.8988ZM15.7089 49.668H18.3544V48.1824H15.7089V49.668Z" fill="white"/>
<path d="M19.4431 69.8581C19.2406 69.7996 19.0507 69.6943 18.8735 69.5539C18.3672 69.1445 17.9874 68.6298 17.7343 67.9748C17.5191 67.425 17.3672 66.7465 17.3039 65.9277H14.0128L13.9495 65.7639H17.2912C17.2659 65.3428 17.2533 64.9217 17.2533 64.4772L18.2912 64.5708C18.2786 64.6643 18.19 64.7228 18.0507 64.7345C18.0381 65.1322 18.0507 65.4715 18.0634 65.7639H18.8102L19.1267 65.4364C19.076 65.4364 19.0254 65.413 18.9621 65.3896C18.9115 65.2726 18.8229 65.1439 18.6836 65.0036C18.5697 64.8749 18.4431 64.7696 18.3166 64.6877L18.3672 64.6409C18.7469 64.6175 19.0381 64.6643 19.2533 64.7579C19.4305 64.8398 19.5317 64.9451 19.5444 65.0854C19.5571 65.2024 19.5191 65.3077 19.4052 65.3779C19.6077 65.5183 19.8355 65.6703 20.076 65.8341C20.0634 65.8926 20.0001 65.9277 19.8862 65.9277H18.0507C18.1014 66.6061 18.2153 67.1676 18.3925 67.6238C18.595 68.1619 18.9115 68.5713 19.3166 68.8638C19.3672 68.9106 19.4052 68.9223 19.4305 68.9223C19.4558 68.9223 19.4938 68.8989 19.5191 68.8404C19.6836 68.6064 19.8102 68.3725 19.9241 68.1268L20.0001 68.1385L19.8735 69.1328C20.0887 69.4603 20.1393 69.6709 20.0254 69.7645C19.8862 69.8932 19.6963 69.9166 19.4431 69.8581ZM14.5064 69.7879L14.0001 69.0509C14.2153 69.0275 14.6583 68.9574 15.3292 68.8521V67.1091H14.2279L14.1773 66.9454H16.2026L16.6203 66.4775C16.8735 66.6529 17.1267 66.8401 17.3672 67.0156C17.3545 67.074 17.2912 67.1091 17.19 67.1091H16.114V68.7234C16.709 68.6181 17.1773 68.5362 17.5191 68.4778L17.5444 68.5479C16.7722 68.8872 15.8229 69.2498 14.671 69.6358C14.6457 69.7177 14.5824 69.7645 14.5064 69.7879Z" fill="white"/>
<path d="M13.9114 89.3696L13.8481 89.2994C14.4684 88.9485 14.9494 88.4689 15.2659 87.8489C15.114 87.7203 14.9621 87.5916 14.7849 87.4746C14.7469 87.6033 14.7216 87.6969 14.6836 87.7787C14.6076 87.8255 14.519 87.8489 14.3924 87.8489C14.2659 87.8606 14.114 87.8372 13.9747 87.8021C14.1519 87.3225 14.3671 86.5856 14.6203 85.5796H13.9494L13.8861 85.4158H14.6583C14.7975 84.8193 14.8988 84.3397 14.9494 83.9653L15.8861 84.1408C15.8608 84.2344 15.7722 84.2695 15.6203 84.2695C15.5697 84.5151 15.4811 84.9011 15.3545 85.4041H15.7595L16.1393 85.0649L16.8102 85.5796C16.7722 85.6381 16.6836 85.6732 16.557 85.6849C16.4557 86.5388 16.2659 87.2173 15.9874 87.7203C16.3292 87.9191 16.557 88.1414 16.6456 88.387C16.7342 88.5976 16.7089 88.773 16.595 88.89C16.4811 89.007 16.3038 89.0187 16.0887 88.9134C16.0127 88.6912 15.8608 88.4572 15.6583 88.2116C15.2279 88.7146 14.6583 89.0889 13.9114 89.3696ZM15.4178 87.4863C15.6203 86.9716 15.7469 86.3399 15.7975 85.5796H15.2912C15.1266 86.2347 14.9747 86.8079 14.8102 87.3225C15.0633 87.3693 15.2659 87.4278 15.4178 87.4863ZM17.5697 89.4515C17.5443 89.2059 17.4937 89.0421 17.4178 88.9602C17.3165 88.8549 17.1266 88.773 16.8481 88.7263V88.6561C17.1266 88.6678 17.3924 88.6795 17.6583 88.7029C17.7469 88.7029 17.7975 88.6678 17.7975 88.6093V86.7494H16.4557L16.4051 86.5973H17.7975V85.5679L18.2912 85.603C18.4811 85.3807 18.7089 85.0766 18.9494 84.7023H16.5443L16.4811 84.5385H18.9747L19.3925 84.1876L20.076 84.7374C20.038 84.7842 19.9494 84.8076 19.8102 84.8076C19.2912 85.1819 18.8608 85.4509 18.519 85.6381L18.7975 85.6615C18.7849 85.7551 18.7089 85.8019 18.5697 85.8136V86.609H19.114L19.5064 86.1294C19.7469 86.3165 19.9747 86.492 20.2152 86.6792C20.2026 86.7377 20.1393 86.7728 20.038 86.7728H18.5823V88.6678C18.5823 88.9368 18.519 89.1123 18.4051 89.2292C18.2532 89.3228 17.9747 89.4164 17.5697 89.4515Z" fill="white"/>
<path d="M13.8734 107.676L13.8354 107.606C14.443 107.337 15 106.963 15.519 106.483C16.038 106.004 16.3671 105.571 16.4937 105.161L17.6709 105.407C17.6582 105.477 17.5443 105.524 17.3418 105.536C17.6203 105.84 18.038 106.109 18.5949 106.319C19.0633 106.495 19.5823 106.635 20.1772 106.729V106.822C20.0127 106.869 19.8734 106.951 19.7722 107.08C19.6709 107.197 19.6076 107.325 19.5823 107.477C18.4051 107.068 17.6203 106.448 17.2405 105.594C16.9367 106.027 16.481 106.425 15.8608 106.811C15.2532 107.197 14.5823 107.477 13.8734 107.676ZM15.5063 105.653V105.009H13.962L13.9241 104.834H15.5063V104.085L16.4937 104.155C16.481 104.237 16.4051 104.296 16.2658 104.307V104.822H17.7089V104.073L18.7089 104.144C18.6962 104.226 18.6203 104.284 18.481 104.296V104.81H18.9873L19.3924 104.331C19.481 104.389 19.5696 104.46 19.6456 104.518C19.8481 104.67 20 104.787 20.1013 104.881C20.0886 104.939 20.0253 104.974 19.9241 104.974H18.481V105.442C18.481 105.477 18.4177 105.501 18.2911 105.536C18.1519 105.571 18 105.582 17.8354 105.582H17.7089V104.963H16.2658V105.454C16.2658 105.489 16.2025 105.524 16.076 105.547C15.9367 105.582 15.7975 105.594 15.6456 105.594H15.5063V105.653ZM14.3291 109.349L14.2785 109.279C14.557 109.092 14.8228 108.846 15.076 108.542C15.3038 108.261 15.481 107.992 15.5949 107.735L16.481 108.144C16.443 108.214 16.3671 108.238 16.2279 108.214C16.0127 108.448 15.7468 108.659 15.4304 108.846C15.076 109.08 14.7089 109.244 14.3291 109.349ZM16.6076 109.56V107.501H15.1266L15.076 107.337H16.6076V106.577L17.5949 106.647C17.5696 106.729 17.5063 106.776 17.3798 106.799V107.325H17.7722L18.1519 106.881C18.2405 106.939 18.3165 106.998 18.4051 107.056C18.5949 107.197 18.7468 107.302 18.8481 107.396C18.8354 107.454 18.7722 107.489 18.6582 107.489H17.3671V109.372C17.3671 109.396 17.3038 109.431 17.1646 109.478C17.0127 109.525 16.8734 109.548 16.7468 109.548H16.6076V109.56ZM19.3165 109.185C19.1899 109.279 19.0253 109.279 18.8228 109.197C18.7215 108.986 18.5443 108.753 18.3038 108.507C18.1013 108.296 17.8734 108.097 17.6203 107.922L17.6709 107.887C18.2152 107.957 18.6456 108.074 18.962 108.261C19.2279 108.413 19.3798 108.589 19.443 108.788C19.4937 108.951 19.4557 109.092 19.3165 109.185Z" fill="white"/>
<path d="M17.1774 58.7921L15.3037 57.0608L17.1774 55.3296L19.0511 57.0608L17.1774 58.7921ZM15.6455 57.0608L17.1901 58.4879L18.7346 57.0608L17.1901 55.6337L15.6455 57.0608Z" fill="white"/>
<path d="M18.6644 76.8495L16.9636 75.2778L15.2629 76.8495L16.9636 78.4212L18.6644 76.8495Z" fill="white"/>
<path d="M17.1774 98.9032L15.3037 97.1719L17.1774 95.4407L19.0511 97.1719L17.1774 98.9032ZM15.6455 97.1836L17.1901 98.6107L18.7346 97.1836L17.1901 95.7565L15.6455 97.1836Z" fill="white"/>
<path d="M83.1647 58.7921L81.291 57.0608L83.1647 55.3296L85.0384 57.0608L83.1647 58.7921ZM81.6328 57.0608L83.1774 58.4879L84.7219 57.0608L83.1774 55.6337L81.6328 57.0608Z" fill="white"/>
<path d="M84.6505 76.8506L82.9497 75.2789L81.249 76.8506L82.9497 78.4223L84.6505 76.8506Z" fill="white"/>
<path d="M83.1647 98.9032L81.291 97.1719L83.1647 95.4407L85.0384 97.1719L83.1647 98.9032ZM81.6328 97.1836L83.1774 98.6107L84.7219 97.1836L83.1774 95.7565L81.6328 97.1836Z" fill="white"/>
<path d="M70.5569 138.464C66.405 149.987 58.8733 157.298 50.5063 157.298C42.3037 157.298 34.924 150.068 30.7214 138.956V138.932L29.3923 139.201C33.7594 150.993 41.6708 158.467 50.5063 158.467C59.443 158.467 67.443 150.805 71.7721 138.757L70.5569 138.464Z" fill="white"/>
<path d="M79.848 28.1445H72.9366C68.9619 13.9553 60.1898 4.81946 50.5062 4.81946C40.8227 4.81946 32.0505 13.9553 28.0759 28.1445H21.1645C11.0379 28.1445 2.79736 35.5256 2.79736 44.5913V114.812C2.79736 123.878 11.0379 131.259 21.1645 131.259H26.0885V130.089H21.1645C11.7341 130.089 4.06319 123.234 4.06319 114.812V44.5913C4.06319 36.169 11.7341 29.3142 21.1645 29.3142H29.0632L29.1771 28.8697C32.9493 14.973 41.3164 5.98922 50.5062 5.98922C59.6961 5.98922 68.0632 14.973 71.8354 28.8814L71.9493 29.3259H79.848C89.2784 29.3259 96.9493 36.1807 96.9493 44.603V114.824C96.9493 123.246 89.2784 130.101 79.848 130.101H75.1265V131.27H79.848C89.9746 131.27 98.2151 123.889 98.2151 114.824V44.5913C98.2151 35.5256 89.9746 28.1445 79.848 28.1445Z" fill="white"/>
<path d="M73.1393 139.365C68.8102 152.958 60.1773 161.696 50.5064 161.696C40.8735 161.696 32.2659 153.016 27.9241 139.517H27.595C31.9747 153.192 40.7216 161.988 50.519 161.988C60.3292 161.988 69.0886 153.168 73.4557 139.459L73.1393 139.365Z" fill="white"/>
<path d="M81.8734 24.7404H74.0886C69.9367 9.709 60.6962 0 50.5063 0C40.3165 0 31.0633 9.709 26.9114 24.7404H19.1266C8.58228 24.7404 0 32.3555 0 41.7136V116.181C0 125.539 8.58228 133.154 19.1266 133.154H21.4937V132.861H19.1266C8.75949 132.861 0.316456 125.375 0.316456 116.181V41.7136C0.316456 32.5193 8.75949 25.0329 19.1266 25.0329H27.1646L27.1899 24.9276C31.2785 9.96635 40.4304 0.29244 50.5063 0.29244C60.5696 0.29244 69.7215 9.96635 73.8228 24.9276L73.8481 25.0329H81.8861C92.2532 25.0329 100.696 32.5193 100.696 41.7136V116.181C100.696 125.375 92.2532 132.861 81.8861 132.861H75.443L75.4304 133.154H81.8734C92.4177 133.154 101 125.539 101 116.181V41.7136C101 32.3555 92.4177 24.7404 81.8734 24.7404Z" fill="white"/>
<path d="M75.1139 127.235C75.1139 129.984 75.1266 132.721 75.1266 135.47C59.2785 130.276 41.9494 130.288 26.1013 135.493C26.1013 132.744 26.0886 130.007 26.0886 127.258C41.9241 122.053 59.2532 122.041 75.1139 127.235ZM75.7595 126.837C75.5443 126.767 75.3165 126.685 75.1013 126.615C59.2532 121.421 41.9241 121.433 26.076 126.638C25.8608 126.708 25.6329 126.778 25.4177 126.86C25.4177 127.059 25.4177 127.27 25.4177 127.469C25.4177 130.218 25.4304 132.955 25.4304 135.704C25.4304 135.903 25.4304 136.113 25.4304 136.312C25.6456 136.242 25.8734 136.16 26.0886 136.09C41.9241 130.884 59.2658 130.873 75.1139 136.066C75.3291 136.137 75.557 136.207 75.7722 136.289C75.7722 136.09 75.7722 135.879 75.7722 135.68C75.7722 132.931 75.7595 130.194 75.7595 127.445C75.7721 127.246 75.7721 127.047 75.7595 126.837Z" fill="white"/>
<path d="M25.4431 136.347C25.5697 136.137 25.6836 135.926 25.8102 135.715C27.9241 136.324 30.0507 137.026 32.2026 137.809C32.076 138.008 31.9621 138.207 31.8355 138.406C29.671 137.634 27.5444 136.944 25.4431 136.347Z" fill="white"/>
<path d="M75.7468 136.312C75.6202 136.101 75.5063 135.891 75.3797 135.68C73.2784 136.289 71.1392 136.99 68.9873 137.786C69.1139 137.985 69.2405 138.184 69.3544 138.382C71.519 137.599 73.6455 136.909 75.7468 136.312Z" fill="white"/>
<path d="M31.7976 137.681C31.7976 137.809 31.7976 137.938 31.7976 138.067C25.9242 139.517 20.2026 141.646 14.7723 144.465C16.152 142.383 17.5444 140.348 18.9495 138.359C17.5191 137.61 16.1014 136.909 14.6963 136.253C18.3672 134.347 22.1773 132.779 26.0761 131.493V130.884C22.1773 132.171 18.3672 133.738 14.6963 135.645C14.2026 135.903 13.6963 136.172 13.2026 136.441C13.5571 136.593 13.8988 136.756 14.2533 136.92C15.5064 137.493 16.7596 138.113 18.0381 138.768C16.7849 140.57 15.5444 142.395 14.3166 144.266C13.9621 144.804 13.6204 145.343 13.2659 145.881C13.7596 145.612 14.2533 145.343 14.7596 145.085C20.19 142.266 25.9115 140.137 31.7849 138.687C32.0128 138.628 32.228 138.581 32.4558 138.523C32.4558 138.336 32.4558 138.137 32.4558 137.95L31.7976 137.681Z" fill="white"/>
<path d="M82.9874 138.64C84.2658 137.985 85.519 137.365 86.7722 136.78C87.1266 136.616 87.4684 136.452 87.8228 136.3C87.3291 136.031 86.8355 135.762 86.3291 135.505C82.7089 133.645 78.9621 132.113 75.1266 130.849V131.458C78.9621 132.709 82.7089 134.242 86.3291 136.113C84.9367 136.768 83.519 137.482 82.0886 138.23C83.5064 140.219 84.9114 142.254 86.3038 144.325C80.9241 141.553 75.2532 139.459 69.4431 138.032C69.4431 137.844 69.4557 137.786 69.4557 137.61L68.7595 137.868C68.7595 137.926 68.7848 137.821 68.7848 137.88C68.7848 138.078 68.7848 138.289 68.7848 138.488C69.0127 138.535 69.2279 138.593 69.4557 138.652C75.2658 140.079 80.9367 142.173 86.3165 144.945C86.8102 145.202 87.3165 145.46 87.8102 145.729C87.4557 145.19 87.114 144.652 86.7595 144.126C85.5064 142.266 84.2532 140.441 82.9874 138.64Z" fill="white"/>
</g>
<defs>
<clipPath id="clip0_2043_20468">
<rect width="101" height="162" fill="white"/>
</clipPath>
</defs>
</svg>
