<svg width="19" height="20" viewBox="0 0 19 20" fill="none" xmlns="http://www.w3.org/2000/svg">
<path d="M1.1875 1.6875C18.9109 1.6875 14.7918 13.4623 14.8104 15.2807L17.8125 18.3125H16.8477L14.2352 15.6703C12.7879 15.8262 9.61875 16.9506 6.27891 14.2973C2.93164 11.6439 3.11719 8.46738 1.1875 1.6875ZM4.14512 3.39453C2.30078 2.52246 3.95215 3.73594 3.95215 3.73594C5.62949 4.89375 6.40137 6.4709 7.29941 8.18535C8.46836 10.4193 10.2311 13.3695 12.6506 14.4086C15.0627 15.4477 13.9197 14.8725 12.8732 14.0932C11.8268 13.3064 10.3424 10.8646 9.49629 9.26152C8.31992 7.03496 7.23262 4.86035 4.14512 3.39453Z" fill="white"/>
</svg>
